<?xml version="1.0" encoding="UTF-8"?>
<svg version="1.1" xmlns="http://www.w3.org/2000/svg" width="1024" height="1024">
<path d="M0 0 C337.92 0 675.84 0 1024 0 C1024 337.92 1024 675.84 1024 1024 C686.08 1024 348.16 1024 0 1024 C0 686.08 0 348.16 0 0 Z " fill="#0C0C0C" transform="translate(0,0)"/>
<path d="M0 0 C13.86 0 27.72 0 42 0 C42.33 23.43 42.66 46.86 43 71 C44.98 68.36 46.96 65.72 49 63 C60.48894206 52.69701325 73.78362713 50.19390544 88.71582031 50.82519531 C106.09846556 52.15546188 121.25877185 60.38386662 133 73 C149.58793202 92.6264691 151.58688338 116.38399815 150 141 C147.45317958 162.48800538 138.13866847 180.16653741 121.5 193.9375 C110.5508133 201.95909667 97.91828456 205.53580501 84.5 205.375 C83.53191406 205.38660156 82.56382812 205.39820313 81.56640625 205.41015625 C68.28539652 205.35667567 57.75160788 200.57844292 47.82421875 191.94140625 C46 190 46 190 42 184 C41.34 189.61 40.68 195.22 40 201 C26.8 200.67 13.6 200.34 0 200 C0 134 0 68 0 0 Z " fill="#FD6107" transform="translate(193,529)"/>
<path d="M0 0 C13.2 0 26.4 0 40 0 C40 66.66 40 133.32 40 202 C27.79 202 15.58 202 3 202 C2.01 193.09 2.01 193.09 1 184 C-0.32 185.98 -1.64 187.96 -3 190 C-11.94048099 200.79494758 -23.43561862 204.92787219 -37.15625 206.3203125 C-54.10955861 206.94976703 -70.46130599 200.65362584 -83.375 189.8125 C-98.71922226 174.95256382 -106.65298212 154.65119146 -107.23828125 133.5 C-107.61561106 107.73866481 -107.61561106 107.73866481 -103 96 C-102.69964844 95.18660156 -102.39929688 94.37320313 -102.08984375 93.53515625 C-101.17316269 91.27718429 -100.13332583 89.15709684 -99 87 C-98.53078125 86.06800781 -98.0615625 85.13601563 -97.578125 84.17578125 C-88.45353155 67.20838247 -73.70583981 57.19917456 -55.734375 51.25 C-42.16946995 47.63269199 -26.72907566 49.80906518 -14.4296875 56.40234375 C-9.61033738 59.57133764 -3.6268772 63.74624559 -1 69 C-0.67 46.23 -0.34 23.46 0 0 Z " fill="#FCC916" transform="translate(784,529)"/>
<path d="M0 0 C102.84269663 0 102.84269663 0 125.3359375 20.0859375 C137.13854007 32.25030567 141.53225647 48.58098108 141.42211914 65.12255859 C140.87847365 81.99517576 134.87993014 97.25643583 122.921875 109.3046875 C109.27646457 121.89203134 89.91565629 128.22357766 71.5390625 128.09765625 C70.83740967 128.09664917 70.13575684 128.09564209 69.4128418 128.09460449 C66.81687767 128.089412 64.22093702 128.07545103 61.625 128.0625 C55.80875 128.041875 49.9925 128.02125 44 128 C44 150.77 44 173.54 44 197 C29.48 197 14.96 197 0 197 C0 131.99 0 66.98 0 0 Z " fill="#FEA307" transform="translate(193,303)"/>
<path d="M0 0 C1.30432983 0.00737183 1.30432983 0.00737183 2.63500977 0.01489258 C24.89265604 0.4135553 43.56452435 8.81876175 59.375 24.3125 C60.07496094 24.97636719 60.77492188 25.64023437 61.49609375 26.32421875 C75.52565365 40.68195549 80.0578561 60.75223729 79.84375 80.21582031 C79.21173768 99.06427118 72.13319924 116.37158801 59.375 130.3125 C58.77300781 131.00601563 58.17101562 131.69953125 57.55078125 132.4140625 C45.35155091 145.661864 26.31760677 153.68122463 8.48046875 154.6328125 C-13.85442612 155.34896557 -33.87641782 149.5924565 -50.625 134.3125 C-51.53765625 133.53712891 -51.53765625 133.53712891 -52.46875 132.74609375 C-65.76855011 120.68559319 -73.74048226 101.46923611 -74.76904297 83.84423828 C-75.5744085 61.64035221 -70.93019903 41.76403858 -55.95703125 24.69921875 C-41.33221734 9.73144438 -21.07041811 -0.14285731 0 0 Z " fill="#1CA9EE" transform="translate(432.625,579.6875)"/>
<path d="M0 0 C17.49 0 34.98 0 53 0 C54.98 3.568125 56.96 7.13625 59 10.8125 C64.39055365 20.47475214 69.91396872 30.04905352 75.5625 39.5625 C76.56120117 41.24533081 76.56120117 41.24533081 77.58007812 42.9621582 C80.98873589 48.68377193 84.44384544 54.36885314 88 60 C90.65528269 56.77072889 93.03894782 53.51185177 95.25 49.96484375 C95.85263672 49.00022217 96.45527344 48.03560059 97.07617188 47.04174805 C97.71103516 46.01734619 98.34589844 44.99294434 99 43.9375 C99.9909668 42.34578979 99.9909668 42.34578979 101.00195312 40.72192383 C105.7043219 33.14733101 110.33303817 25.53062664 114.87890625 17.86108398 C115.77302418 16.35584426 116.69386084 14.86616266 117.64038086 13.39331055 C119.11581247 10.97902092 119.11581247 10.97902092 119.98657227 8.00708008 C121.54290722 4.18156389 122.6290748 2.45180718 126 0 C134.41270142 -1.9207258 143.38780807 -1.02367525 151.9375 -0.6875 C154.36252014 -0.63230129 156.7876599 -0.58211501 159.21289062 -0.53710938 C165.14454205 -0.41610914 171.07171977 -0.23229285 177 0 C175.55496647 3.73245564 173.90661395 6.92536533 171.7265625 10.2890625 C170.74574707 11.81055908 170.74574707 11.81055908 169.74511719 13.36279297 C169.04547852 14.43932129 168.34583984 15.51584961 167.625 16.625 C166.52983602 18.32091046 165.43624318 20.01782764 164.34265137 21.7147522 C163.60853674 22.85356635 162.8739168 23.99205492 162.13879395 25.13021851 C158.9776683 30.02544685 155.85521404 34.94417582 152.75 39.875 C152.03191162 41.01412842 152.03191162 41.01412842 151.29931641 42.17626953 C150.34447993 43.69125084 149.3898874 45.20638592 148.43554688 46.72167969 C145.46548787 51.43538558 142.48835007 56.14462618 139.51220703 60.85449219 C136.93439057 64.93469627 134.35942636 69.01665877 131.7890625 73.1015625 C131.25925781 73.94267578 130.72945312 74.78378906 130.18359375 75.65039062 C129.18263555 77.23963127 128.1825593 78.82942794 127.18359375 80.41992188 C126.72339844 81.15017578 126.26320313 81.88042969 125.7890625 82.6328125 C125.34208008 83.34856445 124.89509766 84.06431641 124.43457031 84.80175781 C123.41841427 86.3588492 122.3491802 87.88188438 121.24511719 89.37792969 C120.67696289 90.15813477 120.10880859 90.93833984 119.5234375 91.7421875 C118.99411621 92.43940918 118.46479492 93.13663086 117.91943359 93.85498047 C116.73529064 96.01064256 116.73529064 96.01064256 117.64208984 98.44213867 C119.05834725 101.10990725 120.56085314 103.64808735 122.203125 106.18359375 C122.84636719 107.18197266 123.48960937 108.18035156 124.15234375 109.20898438 C125.19068359 110.80709961 125.19068359 110.80709961 126.25 112.4375 C126.97574525 113.56153607 127.70099867 114.68588983 128.42578125 115.81054688 C129.9054523 118.10624547 131.38679144 120.40085418 132.86914062 122.69482422 C135.93447961 127.44947124 138.96844825 132.22376825 142 137 C146.98497138 144.84299313 151.98804248 152.67422755 157 160.5 C158.99758025 163.62097577 160.99494001 166.74209252 162.9921875 169.86328125 C164.35097363 171.98605413 165.71036602 174.10843905 167.0703125 176.23046875 C169.04903765 179.31893519 171.0248456 182.40924914 173 185.5 C173.90878906 186.91635742 173.90878906 186.91635742 174.8359375 188.36132812 C175.38507813 189.22177734 175.93421875 190.08222656 176.5 190.96875 C176.9846875 191.72607422 177.469375 192.48339844 177.96875 193.26367188 C179 195 179 195 179 196 C171.94080296 196.45917145 164.88547412 196.77259659 157.81469727 196.98876953 C155.41479757 197.07890509 153.01587637 197.2014782 150.61938477 197.35791016 C131.23805153 198.59064513 131.23805153 198.59064513 125.86767578 194.29400635 C122.30217438 190.06222561 120.07806258 185.35709021 118.00202942 180.2638092 C116.4536109 176.76558448 114.32733829 173.73708301 112.125 170.625 C111.30878813 169.41959697 110.4947268 168.21273272 109.68359375 167.00390625 C109.25933105 166.37371582 108.83506836 165.74352539 108.39794922 165.09423828 C105.62524949 160.94051522 102.90836589 156.75028087 100.1875 152.5625 C99.64818848 151.73379395 99.10887695 150.90508789 98.55322266 150.05126953 C95.31651846 145.06608186 92.13111489 140.05218342 89 135 C85.23891744 139.65433967 81.67792348 144.38839988 78.37890625 149.3828125 C77.68297363 150.43339844 76.98704102 151.48398437 76.27001953 152.56640625 C75.71740448 153.40268555 75.71740448 153.40268555 75.15362549 154.25585938 C73.13860484 157.30232411 71.11367348 160.34219575 69.08984375 163.3828125 C68.23632797 164.66536448 67.38281234 165.94791656 66.52929688 167.23046875 C66.10253662 167.87161621 65.67577637 168.51276367 65.23608398 169.17333984 C64.36816047 170.47775431 63.50064945 171.78244332 62.63354492 173.08740234 C61.34927461 175.01996014 60.06344294 176.95147146 58.77734375 178.8828125 C58.4010936 179.44976837 58.02484344 180.01672424 57.63719177 180.6008606 C56.87034372 181.75121009 56.09115201 182.89341058 55.30088806 184.02780151 C53.91329447 186.07212367 53.91329447 186.07212367 52.56056213 188.634552 C48.52300927 195.49009326 48.52300927 195.49009326 44.41322327 196.86605835 C41.28116111 197.15784761 38.30210127 197.12679381 35.16015625 196.9765625 C34.03806259 196.96241302 32.91596893 196.94826355 31.75987244 196.9336853 C28.19131614 196.87789723 24.62914298 196.75249179 21.0625 196.625 C18.63746077 196.57481896 16.21232266 196.52919517 13.78710938 196.48828125 C7.85591134 196.37828945 1.92841154 196.21118 -4 196 C-2.68022455 192.61503453 -1.27335147 189.63513973 0.6953125 186.578125 C1.50935547 185.30678711 1.50935547 185.30678711 2.33984375 184.00976562 C2.92894531 183.09904297 3.51804687 182.18832031 4.125 181.25 C5.05119141 179.80657227 5.05119141 179.80657227 5.99609375 178.33398438 C7.31633117 176.27690101 8.63832486 174.22094395 9.96191406 172.16601562 C12.64668122 167.99542859 15.31951059 163.81725746 17.9921875 159.63891602 C20.01198219 156.48126764 22.03333716 153.32462144 24.0546875 150.16796875 C28.32323156 143.49823833 32.58206224 136.82233443 36.82299805 130.13500977 C39.84071488 125.37849049 42.87963359 120.63730886 45.94921875 115.9140625 C46.59552246 114.9139917 47.24182617 113.9139209 47.90771484 112.88354492 C49.14781202 110.96554279 50.39393507 109.05141896 51.64697266 107.1418457 C52.20304199 106.27906006 52.75911133 105.41627441 53.33203125 104.52734375 C53.82421143 103.77187256 54.3163916 103.01640137 54.82348633 102.23803711 C56.13718642 99.7390355 56.7624489 97.81552354 57 95 C56.30427309 92.91391134 56.30427309 92.91391134 55 90.98046875 C54.53311768 90.21863281 54.06623535 89.45679688 53.58520508 88.671875 C53.0620874 87.85203125 52.53896973 87.0321875 52 86.1875 C51.45819092 85.31222656 50.91638184 84.43695313 50.3581543 83.53515625 C48.58651098 80.68082806 46.79429695 77.84013216 45 75 C43.81792659 73.111355 42.6369392 71.22202985 41.45703125 69.33203125 C39.61619944 66.38480824 37.77392451 63.43855682 35.92626953 60.49560547 C30.26943045 51.47585926 24.7407296 42.38171945 19.23388672 33.27001953 C15.86695652 27.70233568 12.48210195 22.14764501 9.03515625 16.62890625 C8.42559082 15.65268311 7.81602539 14.67645996 7.18798828 13.6706543 C6.0483858 11.85062808 4.90501995 10.03295112 3.75732422 8.21801758 C3.25861816 7.42161865 2.75991211 6.62521973 2.24609375 5.8046875 C1.59145142 4.76803955 1.59145142 4.76803955 0.92358398 3.71044922 C0 2 0 2 0 0 Z " fill="#FDA507" transform="translate(641,303)"/>
<path d="M0 0 C39.93 0 79.86 0 121 0 C121 11.88 121 23.76 121 36 C95.59 36 70.18 36 44 36 C44 50.19 44 64.38 44 79 C67.43 79 90.86 79 115 79 C115 90.22 115 101.44 115 113 C91.57 113 68.14 113 44 113 C44 129.17 44 145.34 44 162 C69.74 162 95.48 162 122 162 C122 173.88 122 185.76 122 198 C81.74 198 41.48 198 0 198 C0 132.66 0 67.32 0 0 Z " fill="#FEA307" transform="translate(496,302)"/>
<path d="M0 0 C6.88007835 -0.46022957 13.75615397 -0.77301873 20.64819336 -0.98876953 C22.98596336 -1.07875199 25.32273514 -1.20120958 27.65698242 -1.35791016 C46.45821081 -2.58748397 46.45821081 -2.58748397 52.26626587 1.65563965 C56.28509413 5.85552309 59.09713983 10.67414236 61.79721069 15.79156494 C63.37825051 18.69450375 65.29621685 21.24503425 67.33203125 23.84375 C67.92177734 24.63394531 68.51152344 25.42414062 69.11914062 26.23828125 C70.29627469 27.81050876 71.47616595 29.38067418 72.65820312 30.94921875 C73.23119141 31.71878906 73.80417969 32.48835937 74.39453125 33.28125 C75.15020386 34.28768555 75.15020386 34.28768555 75.92114258 35.31445312 C77 37 77 37 77 39 C80.33415838 35.82892545 83.22947975 32.57108192 85.96781921 28.87353516 C86.97208219 27.52263628 87.98628388 26.17905688 89.01130676 24.84384155 C91.85421291 21.09712607 94.39896545 17.39873683 96.60620117 13.24145508 C103.28652498 1.32115578 103.28652498 1.32115578 109.64874268 -0.94235229 C117.02236861 -2.23608665 124.38786426 -1.64524256 131.8125 -1.125 C134.06543357 -1.034565 136.31871778 -0.9524608 138.57226562 -0.87890625 C144.05591473 -0.68193147 149.5263027 -0.38217809 155 0 C148.73185203 9.5134802 148.73185203 9.5134802 145.66796875 13.39453125 C145.10207031 14.11568115 144.53617188 14.83683105 143.953125 15.57983398 C143.37046875 16.31661377 142.7878125 17.05339355 142.1875 17.8125 C140.94067864 19.40307574 139.69458395 20.99422138 138.44921875 22.5859375 C137.85286621 23.34745117 137.25651367 24.10896484 136.64208984 24.89355469 C131.87529566 31.00831833 127.28220886 37.25288243 122.69140625 43.5 C121.48182454 45.1458728 120.27218807 46.79170536 119.0625 48.4375 C118.46550293 49.24993164 117.86850586 50.06236328 117.25341797 50.89941406 C112.26388705 57.67471484 107.17160759 64.36270639 102 71 C103.37964261 73.94079548 104.97503924 76.48058368 106.90625 79.08984375 C107.47972168 79.8669873 108.05319336 80.64413086 108.64404297 81.44482422 C109.25650879 82.26740723 109.86897461 83.08999023 110.5 83.9375 C111.13437988 84.79359863 111.76875977 85.64969727 112.42236328 86.53173828 C116.64226754 92.21274834 120.91660704 97.84648278 125.25 103.44140625 C133.90530343 114.61789466 142.43737503 125.89268834 150.9375 137.1875 C151.43942871 137.85241455 151.94135742 138.5173291 152.45849609 139.20239258 C155.88205855 143.76411711 155.88205855 143.76411711 157 146 C150.1385515 146.48628962 143.28158728 146.81613648 136.40673828 147.04370117 C134.07562451 147.13861518 131.74562326 147.2678279 129.41845703 147.43334961 C110.68086905 148.73155658 110.68086905 148.73155658 104.63235474 144.24298096 C100.35704642 139.78659506 97.26615569 134.69388605 94.29992676 129.30557251 C92.62772332 126.33972366 90.70358765 123.7730368 88.60546875 121.09375 C88.02345703 120.31128906 87.44144531 119.52882813 86.84179688 118.72265625 C85.69089269 117.17634106 84.53702393 115.63222977 83.38085938 114.08984375 C82.81560547 113.32800781 82.25035156 112.56617188 81.66796875 111.78125 C81.17578857 111.12189453 80.6836084 110.46253906 80.17651367 109.78320312 C79 108 79 108 78 105 C74.14797039 108.71221003 70.75532665 112.61987306 67.4375 116.8125 C66.92445313 117.45687012 66.41140625 118.10124023 65.8828125 118.76513672 C60.57196913 125.4731454 55.44943858 132.32101018 50.36523438 139.20166016 C49.91470703 139.7951123 49.46417969 140.38856445 49 141 C48.51112305 141.88631104 48.02224609 142.77262207 47.51855469 143.68579102 C43.51170296 147.36754242 39.35424751 146.61978024 34.109375 146.48828125 C33.04962463 146.48120651 31.98987427 146.47413177 30.89801025 146.46684265 C27.51462084 146.43886336 24.13288884 146.37611521 20.75 146.3125 C18.45575307 146.28742184 16.1614802 146.26460784 13.8671875 146.24414062 C8.24422658 146.18902525 2.62223169 146.10536309 -3 146 C1.19521677 138.49620168 1.19521677 138.49620168 3.59375 135.59765625 C4.06022949 135.02619873 4.52670898 134.45474121 5.00732422 133.8659668 C5.49990723 133.27082275 5.99249023 132.67567871 6.5 132.0625 C10.74114978 126.85188875 14.86936135 121.58130425 18.875 116.1875 C23.17781533 110.4001 27.55874124 104.68184064 32 99 C36.64695753 93.03769532 41.29104055 87.07343721 45.875 81.0625 C46.65230469 80.05993164 46.65230469 80.05993164 47.4453125 79.03710938 C50.30827702 75.43075675 50.30827702 75.43075675 51 71 C49.68653844 68.91783053 48.33985427 66.97164029 46.875 65 C46.43124023 64.39115967 45.98748047 63.78231934 45.53027344 63.1550293 C44.02752336 61.09786408 42.51408936 59.04883098 41 57 C39.90327778 55.50678067 38.8069337 54.01328354 37.7109375 52.51953125 C34.14994928 47.6727859 30.5756151 42.83595943 27 38 C19.84174291 28.31587557 12.69763286 18.62192039 5.625 8.875 C5.059021 8.09825928 4.49304199 7.32151855 3.90991211 6.52124023 C3.13852905 5.45498413 3.13852905 5.45498413 2.3515625 4.3671875 C1.89604004 3.73925293 1.44051758 3.11131836 0.97119141 2.46435547 C0 1 0 1 0 0 Z " fill="#07AE54" transform="translate(515,585)"/>
<path d="M0 0 C14.52 0 29.04 0 44 0 C44 53.13 44 106.26 44 161 C71.39 161 98.78 161 127 161 C127 172.55 127 184.1 127 196 C85.09 196 43.18 196 0 196 C0 131.32 0 66.64 0 0 Z " fill="#FEA507" transform="translate(353,303)"/>
<path d="M0 0 C9.55812681 6.85269092 15.91717273 17.11367362 18.5546875 28.52734375 C20.34324663 43.90120396 18.14886577 58.9712044 8.5546875 71.52734375 C1.87630789 79.18822851 -5.65394969 82.74840608 -15.71484375 83.90234375 C-25.13496801 84.25992854 -33.35926501 82.36517598 -40.7578125 76.33984375 C-51.09239923 66.36453713 -55.49285097 53.195813 -55.7578125 39.02734375 C-55.77162686 25.62587793 -51.32131379 14.24822232 -42.37890625 4.20703125 C-30.25064101 -7.55239587 -14.28041127 -8.60018378 0 0 Z " fill="#101010" transform="translate(453.4453125,617.47265625)"/>
<path d="M0 0 C9.91076088 6.1396852 13.97671386 15.58404973 16.86474609 26.53320312 C17.8880879 31.49749956 17.97312984 36.35976542 17.921875 41.4140625 C17.91430176 42.464729 17.90672852 43.51539551 17.89892578 44.59790039 C17.65583254 56.06675568 15.46228207 66.78282303 7.484375 75.5390625 C4.65759426 77.92530598 1.73821596 79.78872047 -1.515625 81.5390625 C-2.11890625 81.879375 -2.7221875 82.2196875 -3.34375 82.5703125 C-10.59185897 85.97377236 -19.82314409 85.64061306 -27.4609375 83.84765625 C-37.01720996 80.35537931 -41.73009951 74.98819929 -46.25390625 66.02734375 C-49.29644856 57.61560914 -49.88065329 49.04584558 -49.828125 40.1640625 C-49.82248535 39.15891602 -49.8168457 38.15376953 -49.81103516 37.11816406 C-49.61004912 24.79234714 -47.79913461 11.65119541 -38.5234375 2.59375 C-27.62266955 -5.92118949 -12.24815975 -6.05641049 0 0 Z " fill="#100F10" transform="translate(283.515625,616.4609375)"/>
<path d="M0 0 C2.8125 2.3125 2.8125 2.3125 5 5 C6.2684375 6.485 6.2684375 6.485 7.5625 8 C17.05569492 21.59593216 16.3982261 42.18617436 14.5390625 57.89453125 C12.64216378 66.40825904 8.95592137 74.2558569 1.75 79.4375 C-6.96439097 84.58161373 -16.49581312 86.62826696 -26.484375 84.4609375 C-35.85489719 81.59946931 -42.46184805 75.89195446 -47.1875 67.375 C-53.47664119 53.50731211 -54.75451672 35.27607571 -49.875 20.75 C-45.91999582 10.61322458 -40.89748845 2.57622119 -30.72265625 -2.03125 C-20.49671209 -5.61115914 -9.48636228 -5.44620424 0 0 Z " fill="#100F0F" transform="translate(770,616)"/>
<path d="M0 0 C37.45054945 0 37.45054945 0 48 10 C53.94303888 18.21453691 54.79389609 26.02452301 54 36 C52.31606827 43.66886109 48.28805316 49.34576578 42 54 C28.35750903 61.16386512 16.2359391 59 0 59 C0 39.53 0 20.06 0 0 Z " fill="#0A0909" transform="translate(237,338)"/>
<path d="M0 0 C39.93 0 79.86 0 121 0 C121 11.55 121 23.1 121 35 C95.59 35 70.18 35 44 35 C44 34.67 44 34.34 44 34 C69.08 34 94.16 34 120 34 C120 23.44 120 12.88 120 2 C81.06 2 42.12 2 2 2 C2 66.02 2 130.04 2 196 C41.27 196 80.54 196 121 196 C121 185.11 121 174.22 121 163 C95.59 163 70.18 163 44 163 C44 162.67 44 162.34 44 162 C69.74 162 95.48 162 122 162 C122 173.88 122 185.76 122 198 C81.74 198 41.48 198 0 198 C0 132.66 0 67.32 0 0 Z " fill="#D7A407" transform="translate(496,302)"/>
<path d="M0 0 C24.75 0 49.5 0 75 0 C75 0.33 75 0.66 75 1 C50.91 1 26.82 1 2 1 C2 65.02 2 129.04 2 195 C15.53 195 29.06 195 43 195 C43 172.89 43 150.78 43 128 C43.33 128 43.66 128 44 128 C44 150.77 44 173.54 44 197 C29.48 197 14.96 197 0 197 C0 131.99 0 66.98 0 0 Z " fill="#DAA607" transform="translate(193,303)"/>
<path d="M0 0 C0.33 0 0.66 0 1 0 C1 23.76 1 47.52 1 72 C-0.32 70.35 -1.64 68.7 -3 67 C-4.07656649 65.72342918 -5.15915357 64.45189018 -6.25 63.1875 C-6.77078125 62.58292969 -7.2915625 61.97835937 -7.828125 61.35546875 C-8.40820312 60.68451172 -8.40820312 60.68451172 -9 60 C-6.09457188 61.3024333 -4.1907039 62.70886268 -2 65 C-1.98969254 64.20042374 -1.97938507 63.40084747 -1.96876526 62.57704163 C-1.87095918 55.05732704 -1.76846935 47.53769807 -1.66066074 40.01812077 C-1.60539645 36.1518399 -1.551971 32.28555152 -1.50268555 28.41918945 C-1.4550935 24.69089913 -1.40275285 20.96270348 -1.34705925 17.23452568 C-1.32661222 15.80913067 -1.30790309 14.38370968 -1.29092598 12.95826912 C-1.26693404 10.96829459 -1.23629864 8.97840345 -1.20532227 6.98852539 C-1.18200584 5.28642662 -1.18200584 5.28642662 -1.15821838 3.54994202 C-1 1 -1 1 0 0 Z " fill="#05030E" transform="translate(783,528)"/>
<path d="M0 0 C4.04299812 3.81196966 6.66486382 7.33080934 10 12 C-6.5 12 -23 12 -40 12 C-40 11.34 -40 10.68 -40 10 C-24.82 10 -9.64 10 6 10 C4.02 7.36 2.04 4.72 0 2 C0 1.34 0 0.68 0 0 Z " fill="#07BC5B" transform="translate(662,719)"/>
<path d="M0 0 C0.33 0 0.66 0 1 0 C1.96205088 6.37358711 2.10655578 12.55929529 2 19 C1.34 19 0.68 19 0 19 C-0.33 15.7 -0.66 12.4 -1 9 C-3.71224618 10.61268692 -6.37352812 12.24901874 -9 14 C-9 10.26161126 -8.11005385 9.67777231 -5.625 7 C-3.51259272 4.705039 -1.73869403 2.60804104 0 0 Z " fill="#1E170F" transform="translate(785,712)"/>
<path d="M0 0 C4.6452527 3.13554558 7.48646163 6.89929788 10.4375 11.625 C10.80359375 12.19951904 11.1696875 12.77403809 11.546875 13.3659668 C12.55859375 15.0390625 12.55859375 15.0390625 14 18 C13.67 18.99 13.34 19.98 13 21 C12.54109375 20.19175781 12.0821875 19.38351562 11.609375 18.55078125 C10.99578125 17.48214844 10.3821875 16.41351562 9.75 15.3125 C9.14671875 14.25675781 8.5434375 13.20101562 7.921875 12.11328125 C4.06914553 5.82997238 4.06914553 5.82997238 -2 2 C-1.34 1.34 -0.68 0.68 0 0 Z " fill="#1DBDEE" transform="translate(491,604)"/>
<path d="M0 0 C0.33 0 0.66 0 1 0 C1.33 2.31 1.66 4.62 2 7 C1.34 7 0.68 7 0 7 C0.20625 7.5775 0.4125 8.155 0.625 8.75 C1.08661261 11.51967567 0.42944945 12.64561267 -1 15 C-1.99 14.67 -2.98 14.34 -4 14 C-2.68 9.38 -1.36 4.76 0 0 Z " fill="#121116" transform="translate(510,673)"/>
<path d="M0 0 C1.76462683 3.08809695 2 4.23312136 2 8 C1.34 8 0.68 8 0 8 C0 10.64 0 13.28 0 16 C-2.56220131 12.15669804 -1.91906612 10.76809323 -1.125 6.3125 C-0.92132813 5.13300781 -0.71765625 3.95351563 -0.5078125 2.73828125 C-0.34023438 1.83464844 -0.17265625 0.93101562 0 0 Z " fill="#170E11" transform="translate(343,667)"/>
<path d="M0 0 C3.25524265 3.02272532 5.61820737 6.25718301 8 10 C5.50638429 8.79618552 3.31856917 7.54571278 1 6 C0.3125 2.875 0.3125 2.875 0 0 Z " fill="#161110" transform="translate(688,703)"/>
<path d="M0 0 C0 0.66 0 1.32 0 2 C-1.53125 3.2890625 -1.53125 3.2890625 -3.5 4.625 C-4.1496875 5.07101562 -4.799375 5.51703125 -5.46875 5.9765625 C-5.9740625 6.31429687 -6.479375 6.65203125 -7 7 C-7 4 -7 4 -5.1875 1.8125 C-3 0 -3 0 0 0 Z " fill="#171211" transform="translate(783,719)"/>
<path d="M0 0 C3.36720387 1.39332574 4.9859524 2.9789286 7 6 C4 6 4 6 1.8125 4.125 C0 2 0 2 0 0 Z " fill="#E1C715" transform="translate(696,712)"/>
<path d="M0 0 C0.99 0 1.98 0 3 0 C2.34 2.31 1.68 4.62 1 7 C0.34 7 -0.32 7 -1 7 C-0.67 4.69 -0.34 2.38 0 0 Z " fill="#16120E" transform="translate(681,618)"/>
<path d="M0 0 C0.33 1.32 0.66 2.64 1 4 C-1.475 5.485 -1.475 5.485 -4 7 C-2.92598892 4.08482708 -2.22189824 2.22189824 0 0 Z " fill="#1CBAF1" transform="translate(373,610)"/>
</svg>
