<?xml version="1.0" encoding="UTF-8"?>
<svg version="1.1" xmlns="http://www.w3.org/2000/svg" width="1024" height="1024">
<path d="M0 0 C337.92 0 675.84 0 1024 0 C1024 337.92 1024 675.84 1024 1024 C686.08 1024 348.16 1024 0 1024 C0 686.08 0 348.16 0 0 Z " fill="#191818" transform="translate(0,0)"/>
<path d="M0 0 C1.90676035 -0.02152794 3.81342326 -0.05556885 5.71972656 -0.10253906 C24.85852134 -0.56937946 24.85852134 -0.56937946 31.26586914 4.83935547 C35.05724436 8.83641107 36.96473159 11.60361172 37.25097656 17.1550293 C36.71566346 26.82951089 31.31933444 35.44633103 26.87597656 43.8425293 C25.63242762 46.21552765 24.39009423 48.58912673 23.14941406 50.96362305 C22.81204224 51.60842621 22.47467041 52.25322937 22.1270752 52.91757202 C16.71239291 63.28375331 11.42184218 73.71443143 6.10992432 84.1335144 C-2.50825126 101.03510998 -11.3013782 117.83411853 -20.31152344 134.5300293 C-26.352068 145.75675827 -32.21709465 157.06682279 -38.02923584 168.41320801 C-42.84165781 177.80231059 -47.75708842 187.11851484 -52.85864258 196.35473633 C-56.82388517 203.5572304 -60.61013526 210.84559586 -64.37402344 218.1550293 C-68.69076429 226.53510265 -73.09349533 234.84488997 -77.71142578 243.0625 C-83.60513794 253.56632442 -89.11972969 264.27163343 -94.63964844 274.9753418 C-101.31056767 287.90308563 -108.07028762 300.75126686 -115.24902344 313.4050293 C-117.47558594 313.3347168 -117.47558594 313.3347168 -120.24902344 312.4050293 C-121.96339686 310.11712004 -123.27650052 308.02488815 -124.62402344 305.5300293 C-125.04337158 304.7860791 -125.46271973 304.04212891 -125.89477539 303.27563477 C-127.36267056 300.66097109 -128.80502934 298.03296169 -130.24902344 295.4050293 C-131.39993958 293.34173232 -132.55235519 291.27927124 -133.70605469 289.2175293 C-136.91435455 283.47308799 -140.10232998 277.71758042 -143.28466797 271.95874023 C-146.47420759 266.18700406 -149.67329364 260.42056586 -152.87402344 254.6550293 C-153.49752686 253.53177246 -154.12103027 252.40851563 -154.76342773 251.2512207 C-159.24656821 243.18473119 -163.77774074 235.1464436 -168.32885742 227.11816406 C-175.96554209 213.63101024 -183.4552544 200.06140359 -190.96386719 186.50268555 C-191.7671128 185.05338931 -192.57049316 183.60416773 -193.37402344 182.1550293 C-193.76404541 181.45112061 -194.15406738 180.74721191 -194.5559082 180.02197266 C-196.74299879 176.08413552 -198.95355626 172.16079932 -201.18652344 168.2487793 C-205.9771435 159.84788004 -210.72722426 151.43138178 -215.28417969 142.90112305 C-215.62656677 142.26033813 -215.96895386 141.61955322 -216.32171631 140.95935059 C-218.05143176 137.71429436 -219.76740231 134.46275204 -221.46435547 131.20043945 C-224.35470723 125.66579853 -227.2573725 120.23433473 -230.76855469 115.05737305 C-237.69155238 104.73010029 -237.69155238 104.73010029 -236.52636719 98.6081543 C-235.01730884 95.05670664 -232.93655172 91.93756194 -230.77148438 88.75610352 C-228.42504426 85.13259192 -226.47755676 81.31346464 -224.4699707 77.49487305 C-220.3142743 69.59580755 -215.98480592 61.84466337 -211.24902344 54.2800293 C-207.10563581 47.64429465 -204.53461508 40.85904426 -202.24902344 33.4050293 C-199.23990313 36.96100054 -196.97114309 40.52215055 -194.81542969 44.6472168 C-194.50131638 45.24345352 -194.18720306 45.83969025 -193.86357117 46.45399475 C-193.19120613 47.7307259 -192.52104153 49.00861791 -191.85290527 50.28756714 C-190.0766397 53.68607267 -188.28275607 57.07522331 -186.48730469 60.46362305 C-185.9470314 61.48375237 -185.9470314 61.48375237 -185.39584351 62.52449036 C-182.20611286 68.52680616 -178.8785417 74.44507058 -175.49902344 80.3425293 C-170.70680819 88.71845623 -166.18534902 97.20319602 -161.76757812 105.78173828 C-158.24788437 112.58135677 -154.55033499 119.25922578 -150.74902344 125.9050293 C-145.84407528 134.48321267 -141.18575796 143.15978292 -136.65429688 151.94042969 C-131.69783929 161.5276111 -126.50058052 170.9769508 -121.24902344 180.4050293 C-116.6774859 173.48036241 -112.93962105 166.16780897 -109.17883301 158.78536987 C-107.66148788 155.80741635 -106.13581128 152.83375964 -104.61050415 149.85987854 C-103.85491063 148.38662607 -103.09967839 146.91318824 -102.34481812 145.43955994 C-95.9402926 132.93897843 -89.3381293 120.55428068 -82.62402344 108.2175293 C-78.66156992 100.93579982 -74.78860594 93.63071407 -71.12646484 86.19360352 C-67.86043102 79.57123863 -64.4037182 73.05316771 -60.95214844 66.52612305 C-58.02897043 60.9972698 -55.13837876 55.45161317 -52.24902344 49.9050293 C-48.44510673 42.60885236 -44.63731858 35.31476251 -40.81152344 28.0300293 C-40.42287109 27.28817383 -40.03421875 26.54631836 -39.63378906 25.78198242 C-37.65556271 22.0202774 -35.65164964 18.27282247 -33.61621094 14.54174805 C-33.22159668 13.81689209 -32.82698242 13.09203613 -32.42041016 12.34521484 C-24.8060074 -0.26663566 -12.98273318 0.1100797 0 0 Z " fill="#5933B8" transform="translate(747.2490234375,178.594970703125)"/>
<path d="M0 0 C1.35215607 -0.01441132 1.35215607 -0.01441132 2.73162842 -0.02911377 C4.19720184 -0.03548859 4.19720184 -0.03548859 5.69238281 -0.04199219 C7.19832001 -0.0505423 7.19832001 -0.0505423 8.73468018 -0.05926514 C10.86314843 -0.06872389 12.99163139 -0.07525258 15.12011719 -0.07910156 C18.36842651 -0.08878644 21.61609764 -0.11979333 24.86425781 -0.15136719 C26.93196239 -0.15789927 28.99967149 -0.16314893 31.06738281 -0.16699219 C32.52081085 -0.18551239 32.52081085 -0.18551239 34.00360107 -0.20440674 C40.88241389 -0.18182145 45.8959294 1.07062231 51.03222656 5.92675781 C56.19745468 11.34294541 59.17511421 18.27066069 62.45800781 24.91113281 C63.16868896 26.32252206 63.8808611 27.73316148 64.59448242 29.14306641 C65.99509054 31.91239206 67.39002615 34.68444402 68.78027344 37.45898438 C71.02796787 41.93427927 73.35483226 46.36553527 75.70800781 50.78613281 C80.51822313 59.87289638 85.23241778 69.00908121 89.94262695 78.14794922 C93.4371831 84.92052154 96.96436203 91.67458929 100.52050781 98.41503906 C105.4575782 107.77797287 110.3182806 117.17866501 115.14550781 126.59863281 C115.77882019 127.83348923 115.77882019 127.83348923 116.42492676 129.09329224 C125.99766666 147.76665927 135.37616853 166.53564812 144.72116089 185.32373047 C145.79258212 187.47707088 146.86540105 189.62971015 147.93847656 191.78222656 C148.2584259 192.42606796 148.57837524 193.06990936 148.90802002 193.73326111 C156.49968959 209.68821044 156.49968959 209.68821044 170.49316406 219.69628906 C177.66648389 221.24551785 184.82128861 220.73689074 191.64550781 218.16113281 C190.40279403 222.15379779 188.94462917 225.7423125 186.95019531 229.41503906 C186.4070166 230.42074951 185.86383789 231.42645996 185.30419922 232.46264648 C184.71558105 233.53877197 184.12696289 234.61489746 183.52050781 235.72363281 C182.90739746 236.84809814 182.29428711 237.97256348 181.66259766 239.13110352 C180.68459958 240.92434878 179.70579887 242.71713367 178.72463989 244.50865173 C176.62085659 248.35394545 174.54818885 252.21429511 172.49691772 256.08784485 C171.1049334 258.71114414 169.69936743 261.32702614 168.29156494 263.94186401 C167.61843122 265.19890473 166.95076875 266.45889281 166.28900146 267.72195435 C161.8064167 276.26364995 157.56387959 283.46961198 148.53613281 287.57519531 C139.50967479 289.40488275 130.62116522 288.97476251 122.64550781 284.16113281 C116.01028265 278.31765742 112.2928684 271.18282896 108.68731689 263.23104858 C107.2183475 259.99426788 105.69759382 256.78189524 104.18066406 253.56738281 C103.88077576 252.92915085 103.58088745 252.29091888 103.27191162 251.63334656 C100.64772823 246.08255743 97.78043149 240.69783405 94.77050781 235.34863281 C91.29621811 229.16205157 87.97239636 222.94665168 84.83886719 216.58105469 C77.63716812 201.99003714 69.95826622 187.63037303 62.37109375 173.23706055 C55.75205098 160.67754595 49.184014 148.09143435 42.67675781 135.47363281 C42.16116806 134.47393463 42.16116806 134.47393463 41.63516235 133.45404053 C39.95661973 130.19864061 38.27934431 126.94259589 36.60400391 123.68554688 C33.05069188 116.78377654 29.45927821 109.90377319 25.83300781 103.04003906 C20.85375908 93.60754638 16.00709143 84.10972722 11.17175293 74.60287476 C0.86364368 54.30925777 0.86364368 54.30925777 -10.02978516 34.32592773 C-14.17254841 26.94034808 -16.23234344 20.7027648 -15.35449219 12.16113281 C-12.98669879 5.18929671 -7.51607309 0.06458188 0 0 Z " fill="#EF7100" transform="translate(254.3544921875,178.8388671875)"/>
<path d="M0 0 C3.00912031 3.55597125 5.27788035 7.11712125 7.43359375 11.2421875 C7.74770706 11.83842422 8.06182037 12.43466095 8.38545227 13.04896545 C9.05781731 14.32569661 9.72798191 15.60358862 10.39611816 16.88253784 C12.17238374 20.28104338 13.96626737 23.67019401 15.76171875 27.05859375 C16.30199203 28.07872307 16.30199203 28.07872307 16.85317993 29.11946106 C20.04291058 35.12177686 23.37048174 41.04004128 26.75 46.9375 C31.54221524 55.31342693 36.06367442 63.79816672 40.48144531 72.37670898 C44.00114053 79.17633029 47.69874897 85.85416023 51.5 92.5 C56.3884492 101.05097098 61.03498985 109.69790786 65.55297852 118.44970703 C68.9265558 124.97517096 72.39668166 131.43888843 75.9375 137.875 C80.23581645 145.69465928 84.40431997 153.57238614 88.5 161.5 C94.49525102 173.09635987 100.69052895 184.57201088 107 196 C107.48194824 196.87462891 107.96389648 197.74925781 108.46044922 198.65039062 C109.84633505 201.16403928 111.23483067 203.67621814 112.625 206.1875 C113.03903076 206.93636475 113.45306152 207.68522949 113.87963867 208.45678711 C115.50236619 211.37660321 117.14602021 214.21903031 119 217 C118.64714913 220.83383761 117.25683076 223.80303496 115.48046875 227.18359375 C114.958479 228.18310059 114.43648926 229.18260742 113.89868164 230.21240234 C113.3339917 231.27668457 112.76930176 232.3409668 112.1875 233.4375 C111.60798584 234.5404541 111.02847168 235.6434082 110.43139648 236.77978516 C105.19164106 246.71874842 99.82835595 256.58975217 94.41064453 266.43261719 C91.92916659 270.94892423 89.46520668 275.47479658 87 280 C84.63427734 279.67919922 84.63427734 279.67919922 82 279 C80.28562658 276.71209075 78.97252291 274.61985886 77.625 272.125 C77.20565186 271.3810498 76.78630371 270.63709961 76.35424805 269.87060547 C74.88635288 267.25594179 73.4439941 264.62793239 72 262 C70.84908386 259.93670302 69.69666825 257.87424194 68.54296875 255.8125 C65.33466889 250.06805869 62.14669346 244.31255113 58.96435547 238.55371094 C55.77481584 232.78197476 52.5757298 227.01553656 49.375 221.25 C48.75149658 220.12674316 48.12799316 219.00348633 47.4855957 217.84619141 C43.00245523 209.77970189 38.47128269 201.7414143 33.92016602 193.71313477 C26.28348134 180.22598094 18.79376903 166.6563743 11.28515625 153.09765625 C10.48191063 151.64836001 9.67853028 150.19913844 8.875 148.75 C8.48497803 148.04609131 8.09495605 147.34218262 7.69311523 146.61694336 C5.50602465 142.67910622 3.29546718 138.75577002 1.0625 134.84375 C-3.72812006 126.44285074 -8.47820083 118.02635248 -13.03515625 109.49609375 C-13.37754333 108.85530884 -13.71993042 108.21452393 -14.07269287 107.55432129 C-15.80240833 104.30926507 -17.51837887 101.05772274 -19.21533203 97.79541016 C-22.1056838 92.26076923 -25.00834906 86.82930543 -28.51953125 81.65234375 C-35.44252894 71.32507099 -35.44252894 71.32507099 -34.27734375 65.203125 C-32.7682854 61.65167735 -30.68752828 58.53253265 -28.52246094 55.35107422 C-26.17602082 51.72756262 -24.22853332 47.90843535 -22.22094727 44.08984375 C-18.06525087 36.19077825 -13.73578248 28.43963407 -9 20.875 C-4.85661237 14.23926535 -2.28559165 7.45401496 0 0 Z " fill="#1A8D8B" transform="translate(545,212)"/>
<path d="M0 0 C4.53553961 3.69983195 8.94696501 7.87291268 10.18359375 13.78125 C10.57608194 22.25899488 7.22847797 28.54697041 3.18359375 35.78125 C2.49675349 37.02959471 1.81058802 38.27831087 1.125 39.52734375 C-0.50369574 42.48127791 -2.14513917 45.42779313 -3.79296875 48.37109375 C-7.40651488 54.82874779 -10.98940454 61.30330564 -14.56640625 67.78125 C-14.90802795 68.39983887 -15.24964966 69.01842773 -15.60162354 69.65576172 C-21.6444753 80.60392883 -27.58855435 91.60349673 -33.50390625 102.62109375 C-40.13954635 114.97570989 -46.85514837 127.28649848 -53.69140625 139.53125 C-57.73950437 146.78611227 -61.69490492 154.08895375 -65.62890625 161.40625 C-66.21631592 162.49856934 -66.80372559 163.59088867 -67.40893555 164.71630859 C-69.82879269 169.21810747 -72.24752585 173.72050315 -74.66308594 178.22460938 C-76.44036829 181.53677436 -78.22177756 184.84669071 -80.00390625 188.15625 C-80.54442627 189.1663916 -81.08494629 190.1765332 -81.6418457 191.21728516 C-82.14675537 192.15362793 -82.65166504 193.0899707 -83.171875 194.0546875 C-83.61168701 194.87372559 -84.05149902 195.69276367 -84.50463867 196.53662109 C-87.92673025 202.39232739 -87.92673025 202.39232739 -91.61328125 204.00390625 C-100.01227044 206.04219753 -107.69013152 205.5804852 -115.40234375 201.65625 C-122.62727724 196.04465118 -126.91461081 188.63273256 -131.12890625 180.65625 C-131.65291016 179.69332031 -132.17691406 178.73039063 -132.71679688 177.73828125 C-134.13015957 175.10700166 -135.47988352 172.45211383 -136.81640625 169.78125 C-137.64011719 168.25757813 -137.64011719 168.25757813 -138.48046875 166.703125 C-139.04782412 161.76845271 -136.3499682 158.3007977 -133.87890625 154.15625 C-132.75211173 152.18331548 -131.62720085 150.2093043 -130.50390625 148.234375 C-129.60091797 146.66526367 -129.60091797 146.66526367 -128.6796875 145.06445312 C-125.7988906 139.98833196 -123.06229747 134.83717245 -120.32385254 129.68322754 C-118.73870251 126.70234277 -117.14458053 123.72626663 -115.55078125 120.75 C-115.23703552 120.16381897 -114.92328979 119.57763794 -114.60003662 118.97369385 C-106.91964459 104.63075708 -99.13479991 90.3438272 -91.33300781 76.06665039 C-88.75375159 71.34407453 -86.18497006 66.61618869 -83.6328125 61.87890625 C-77.6372266 50.75455527 -71.55953645 39.68653397 -65.30493164 28.70532227 C-62.20279411 23.25697153 -59.17864606 17.77717656 -56.23925781 12.23901367 C-51.8121107 4.59177791 -45.61973598 -1.17802911 -37.02416992 -3.75634766 C-25.49949237 -6.17011956 -10.16831261 -6.40618803 0 0 Z " fill="#892076" transform="translate(534.81640625,195.21875)"/>
<path d="M0 0 C6.9371175 4.26979065 13.41811119 9.48356497 15.62109375 17.61328125 C17.56631984 27.53244943 13.61680585 34.92068573 8.91308594 43.30419922 C7.55122365 45.73815491 6.22801337 48.19039614 4.91015625 50.6484375 C-0.90937626 61.46393696 -6.92902475 72.16616081 -12.95336914 82.8684082 C-17.71538029 91.35873994 -22.31927151 99.92822522 -26.89019775 108.52212524 C-31.67289085 117.50860906 -36.61393709 126.38856737 -41.66723633 135.22509766 C-45.48646448 141.9398227 -49.09176613 148.74633894 -52.62890625 155.61328125 C-68.312162 185.91894162 -68.312162 185.91894162 -79.37890625 189.61328125 C-88.28375915 190.68285855 -95.34183294 189.3819611 -102.53515625 184 C-111.74930054 176.24705396 -118.50028218 166.6067866 -120.7578125 154.59765625 C-121.433779 146.37100012 -117.59890119 140.114319 -113.77441406 133.15722656 C-112.21136514 130.30786165 -110.68083461 127.44226575 -109.15234375 124.57421875 C-102.13364831 111.43392464 -94.98871103 98.36119797 -87.84228516 85.29003906 C-85.37331167 80.77388536 -82.90701306 76.2562737 -80.44140625 71.73828125 C-79.95172363 70.84141602 -79.46204102 69.94455078 -78.95751953 69.02050781 C-76.29943071 64.14835675 -73.65147116 59.27094245 -71.015625 54.38671875 C-65.80167002 44.72666853 -60.58774945 35.07889935 -55.07421875 25.5859375 C-53.41218448 22.67163318 -51.86339942 19.71482569 -50.31640625 16.73828125 C-40.11956531 -1.95134634 -19.67219886 -9.68603411 0 0 Z " fill="#CDB900" transform="translate(528.37890625,376.38671875)"/>
<path d="M0 0 C2.2129192 2.81987048 3.99620392 5.66964778 5.6796875 8.83203125 C6.44430298 10.25878174 6.44430298 10.25878174 7.22436523 11.71435547 C7.76907471 12.73674316 8.31378418 13.75913086 8.875 14.8125 C13.30040118 23.05675952 17.80223149 31.2469287 22.4375 39.375 C27.64147122 48.51569071 32.66073716 57.74495849 37.62426758 67.01806641 C41.88720164 74.9688656 46.23532328 82.86856048 50.625 90.75 C51.24358887 91.86858398 51.86217773 92.98716797 52.49951172 94.13964844 C55.48631181 99.53368498 58.51234618 104.8943279 61.6484375 110.203125 C62.21481934 111.18313477 62.78120117 112.16314453 63.36474609 113.17285156 C64.41576231 114.98992648 65.48746945 116.79527373 66.58447266 118.58496094 C70.22553438 124.95776094 70.56895019 129.84966874 69 137 C65.25356325 149.15422723 58.78922334 159.56580277 47.8203125 166.34765625 C41.08217628 169.89471286 34.56457662 170.65885022 27 170 C16.12964115 166.16340276 11.62678197 157.49989676 6.6875 147.8125 C6.02642247 146.54400827 5.36389052 145.27627352 4.69995117 144.00927734 C3.38530298 141.49514759 2.07868642 138.97714232 0.78027344 136.45458984 C-1.51653284 131.99767695 -3.85021571 127.56076436 -6.1875 123.125 C-6.57381592 122.38701172 -6.96013184 121.64902344 -7.3581543 120.88867188 C-11.03292768 113.88213445 -14.84960308 106.95501931 -18.65844727 100.02075195 C-22.11706048 93.69490046 -25.42989552 87.31318589 -28.59033203 80.83325195 C-29.93370364 78.08396609 -31.29814569 75.55278146 -33 73 C-32.90111694 67.03105916 -29.6568084 62.47043445 -26.6875 57.5 C-25.59189704 55.62477929 -24.49820688 53.74843994 -23.40625 51.87109375 C-22.84292969 50.9054248 -22.27960937 49.93975586 -21.69921875 48.94482422 C-17.41912309 41.52722165 -13.35697502 33.98740463 -9.31152344 26.43994141 C-8.48506137 24.90240196 -7.65312782 23.36777906 -6.81347656 21.83740234 C-2.88373808 14.67172018 0.13479307 8.35717054 0 0 Z " fill="#482EAA" transform="translate(544,396)"/>
<path d="M0 0 C7.92 0 15.84 0 24 0 C36.10698061 52.47794441 36.10698061 52.47794441 41 76 C42.81384877 73.27922684 43.41260153 71.91892098 44.12109375 68.85546875 C44.32903564 67.9725415 44.53697754 67.08961426 44.7512207 66.17993164 C45.09092896 64.69867798 45.09092896 64.69867798 45.4375 63.1875 C45.96059684 60.96085744 46.48406875 58.73430298 47.0078125 56.5078125 C47.31418254 55.19695294 47.62049407 53.88607971 47.92675781 52.57519531 C49.94515287 43.95368915 52.00322397 35.34152738 54.05813599 26.72866821 C54.80933413 23.57578758 55.55702568 20.42208921 56.30444336 17.26831055 C56.77183568 15.30514317 57.23935924 13.34200702 57.70703125 11.37890625 C58.03167862 10.00392471 58.03167862 10.00392471 58.36288452 8.60116577 C58.66435898 7.33981308 58.66435898 7.33981308 58.97192383 6.05297852 C59.14701981 5.3156398 59.32211578 4.57830109 59.5025177 3.81861877 C60 2 60 2 61 0 C68.26 0 75.52 0 83 0 C83.79664063 3.42052734 83.79664063 3.42052734 84.609375 6.91015625 C85.13843664 9.17436667 85.66830352 11.43838728 86.19824219 13.70239258 C86.55975661 15.24874654 86.92046362 16.79528953 87.28027344 18.34204102 C89.39346312 27.42344415 91.6215409 36.45173986 94.05810547 45.45239258 C95.83824617 52.15722009 97.39134487 58.91649339 98.97460938 65.66992188 C99.22404297 66.72373047 99.47347656 67.77753906 99.73046875 68.86328125 C100.06147583 70.27540894 100.06147583 70.27540894 100.39916992 71.71606445 C100.91878722 74.00836241 100.91878722 74.00836241 102 76 C102.75115896 72.56275225 103.50084098 69.12518419 104.25 65.6875 C104.47743896 64.64456787 104.70487793 63.60163574 104.93920898 62.52709961 C106.17985329 56.8232624 107.39775934 51.1158107 108.57910156 45.39941406 C110.19761623 37.5749583 112.0040904 29.83024188 113.984375 22.08984375 C115.83243869 14.76825024 117.38655639 7.37574221 119 0 C126.59 0 134.18 0 142 0 C140.87662018 8.98703856 140.87662018 8.98703856 139.8359375 12.2421875 C139.60487305 12.9832373 139.37380859 13.72428711 139.13574219 14.48779297 C138.7591748 15.66946045 138.7591748 15.66946045 138.375 16.875 C133.60766783 32.32703613 129.57895101 47.97959774 125.47265625 63.6171875 C125.1434166 64.87044327 125.1434166 64.87044327 124.80752563 66.14901733 C123.7195975 70.29119744 122.63362451 74.43386917 121.55175781 78.57763672 C119.67345439 85.75885861 117.77414882 92.93315441 115.76171875 100.078125 C115.44549561 101.2012207 115.12927246 102.32431641 114.8034668 103.48144531 C114 106 114 106 113 107 C111.36527118 107.08700342 109.72685945 107.10701063 108.08984375 107.09765625 C107.10048828 107.09443359 106.11113281 107.09121094 105.09179688 107.08789062 C104.05087891 107.07951172 103.00996094 107.07113281 101.9375 107.0625 C100.89271484 107.05798828 99.84792969 107.05347656 98.77148438 107.04882812 C96.1809334 107.03699913 93.59049441 107.02051689 91 107 C88.38989425 101.37383611 86.74259886 95.75022778 85.22265625 89.74609375 C84.97003525 88.76818375 84.71741425 87.79027374 84.45713806 86.7827301 C83.65367616 83.66897623 82.85770759 80.55337109 82.0625 77.4375 C81.01433517 73.35218864 79.96262149 69.26779899 78.91015625 65.18359375 C78.65891998 64.20377533 78.40768372 63.22395691 78.14883423 62.21444702 C76.46224269 55.671232 74.64730329 49.18642859 72.66186523 42.72680664 C72.00943328 40.03886401 71.86931076 37.75329168 72 35 C71.34 35 70.68 35 70 35 C69.87778076 36.3106543 69.75556152 37.62130859 69.62963867 38.97167969 C69.11259373 43.59973166 68.14164252 47.96484163 66.92578125 52.453125 C66.72123322 53.22796234 66.51668518 54.00279968 66.30593872 54.80111694 C65.64795943 57.28585985 64.98055532 59.76794914 64.3125 62.25 C63.85715372 63.96003066 63.4021584 65.67015482 62.94750977 67.38037109 C60.09706288 78.06959473 57.16424393 88.73336189 54.05859375 99.3515625 C53.32287998 101.88719592 52.64034511 104.43861956 52 107 C44.41 107 36.82 107 29 107 C24.23232497 91.78011433 19.80703749 76.48984486 16 61 C13.51079331 50.8733995 10.73447611 40.857512 7.82373047 30.84521484 C6.23603084 25.36120434 4.67777612 19.86898419 3.125 14.375 C2.8144165 13.28904541 2.50383301 12.20309082 2.18383789 11.08422852 C1.89887451 10.07416748 1.61391113 9.06410645 1.3203125 8.0234375 C1.06523926 7.12544434 0.81016602 6.22745117 0.54736328 5.30224609 C0 3 0 3 0 0 Z " fill="#962AAE" transform="translate(502,625)"/>
<path d="M0 0 C7.59 0 15.18 0 23 0 C30.62195086 25.21106824 35.4871705 51.26363552 41 77 C42.90449125 69.01046952 44.80847381 61.02081805 46.71183491 53.03101826 C47.59597741 49.31969323 48.48028483 45.60840768 49.36499023 41.8972168 C50.22127954 38.3051982 51.07710813 34.7130701 51.93263817 31.12087059 C52.25655425 29.7611532 52.58062695 28.4014731 52.90487099 27.04183388 C53.36450608 25.11433738 53.82349458 23.18668672 54.2824707 21.2590332 C54.56990143 20.05276276 54.85733215 18.84649231 55.1534729 17.60366821 C56.26277243 12.88137705 57.32279656 8.14831708 58.37174988 3.41227722 C59 1 59 1 60 0 C61.70772358 -0.08713831 63.41898649 -0.10700007 65.12890625 -0.09765625 C66.68061523 -0.09282227 66.68061523 -0.09282227 68.26367188 -0.08789062 C69.35228516 -0.07951172 70.44089844 -0.07113281 71.5625 -0.0625 C73.2012207 -0.05573242 73.2012207 -0.05573242 74.87304688 -0.04882812 C77.58208495 -0.03699826 80.29101599 -0.02051543 83 0 C89.03693706 24.65779643 95.06960601 49.31632046 101 74 C104.11506544 61.91214558 106.86048319 49.76210816 109.5 37.5625 C110.25860585 34.06340627 111.01889471 30.56468503 111.78125 27.06640625 C112.05666626 25.80251572 112.05666626 25.80251572 112.33764648 24.51309204 C114.13255095 16.31943241 116.05619222 8.15957495 118 0 C125.92 0 133.84 0 142 0 C141.26136719 2.61679687 140.52273437 5.23359375 139.76171875 7.9296875 C133.85686267 28.90650505 128.10838718 49.91416575 122.6550293 71.01318359 C120.50574009 79.31929559 118.30819098 87.59676446 115.89453125 95.83081055 C114.84977 99.53224225 113.93280484 103.26878065 113 107 C105.41 107 97.82 107 90 107 C89.55269531 105.25976562 89.10539062 103.51953125 88.64453125 101.7265625 C84.40668008 85.28046303 84.40668008 85.28046303 79.92626953 68.89941406 C76.85168846 57.96027187 73.94214468 46.97533467 71 36 C69.61383112 38.61734467 68.60004475 41.07937389 67.85839844 43.94458008 C67.65749603 44.71163773 67.45659363 45.47869537 67.24960327 46.26899719 C67.03832794 47.09417343 66.82705261 47.91934967 66.609375 48.76953125 C66.38400055 49.63503098 66.1586261 50.5005307 65.92642212 51.39225769 C65.19682966 54.19795443 64.47343884 57.00521097 63.75 59.8125 C63.252566 61.72863253 62.75468142 63.64464815 62.25634766 65.56054688 C60.83247866 71.039054 59.41549 76.51932301 58 82 C57.04590486 85.69133924 56.0911488 89.38250382 55.13378906 93.07299805 C54.64109049 94.97356536 54.15071996 96.87473829 53.66308594 98.77661133 C52.11111129 104.77777742 52.11111129 104.77777742 51 107 C43.41 107 35.82 107 28 107 C27.49210937 105.00582031 26.98421875 103.01164063 26.4609375 100.95703125 C23.26205761 88.43346176 20.05726433 75.921951 16.43554688 63.51269531 C13.33451791 52.82448214 10.48536285 42.06638693 7.60205078 31.31787109 C7.19049933 29.7861141 6.77887935 28.25437552 6.3671875 26.72265625 C6.16848053 25.98126404 5.96977356 25.23987183 5.76504517 24.47601318 C4.17197319 18.56113308 2.46518264 12.68524273 0.70361328 6.81811523 C0 4 0 4 0 0 Z " fill="#FC7800" transform="translate(91,625)"/>
<path d="M0 0 C3.26585758 1.63292879 4.17001275 5.13269255 5.6875 8.3125 C13.70986115 26.15522277 13.70986115 26.15522277 28.84765625 37.53515625 C36.02097608 39.08438503 43.1757808 38.57575792 50 36 C48.75728622 39.99266498 47.29912135 43.58117969 45.3046875 47.25390625 C44.76150879 48.2596167 44.21833008 49.26532715 43.65869141 50.30151367 C43.07007324 51.37763916 42.48145508 52.45376465 41.875 53.5625 C41.26188965 54.68696533 40.6487793 55.81143066 40.01708984 56.9699707 C39.03909176 58.76321596 38.06029106 60.55600086 37.07913208 62.34751892 C34.97534878 66.19281264 32.90268104 70.05316229 30.85140991 73.92671204 C29.45942559 76.55001133 28.05385962 79.16589332 26.64605713 81.7807312 C25.9729234 83.03777192 25.30526094 84.29776 24.64349365 85.56082153 C20.16090889 94.10251714 15.91837178 101.30847917 6.890625 105.4140625 C-2.14070613 107.24473773 -11.01830766 106.80862605 -19 102 C-25.92012674 95.96381201 -29.83334072 88.21573165 -33.63989258 80.04077148 C-34.57615885 78.03321244 -35.53718016 76.03891571 -36.50195312 74.04492188 C-39.86972474 66.97136397 -39.86972474 66.97136397 -41 64 C-40.67 63.34 -40.34 62.68 -40 62 C-39.01 63.32 -38.02 64.64 -37 66 C-36.48953125 65.08863281 -35.9790625 64.17726563 -35.453125 63.23828125 C-34.7188877 61.92961023 -33.98449889 60.62102422 -33.25 59.3125 C-32.85240479 58.60351562 -32.45480957 57.89453125 -32.04516602 57.1640625 C-29.72510587 53.03635357 -27.38343406 48.9224877 -25.01171875 44.82421875 C-19.63744482 35.52588539 -14.47131223 26.20536143 -9.7578125 16.5546875 C-7.31821724 11.62128376 -4.6862027 6.80260483 -2 2 C-1.34 2 -0.68 2 0 2 C0 1.34 0 0.68 0 0 Z " fill="#F18000" transform="translate(396,361)"/>
<path d="M0 0 C6.6 0 13.2 0 20 0 C20.33 12.54 20.66 25.08 21 38 C23.97 36.35 26.94 34.7 30 33 C38.89220744 30.77694814 47.83989441 30.75380116 55.87890625 35.453125 C62.73854881 40.45573725 66.0173238 46.63255168 67.52783203 54.88305664 C68.2718213 60.25231133 68.12300726 65.64923337 68.09765625 71.05859375 C68.0962413 72.20288345 68.09482635 73.34717316 68.09336853 74.52613831 C68.08779301 78.16328601 68.07524498 81.80037105 68.0625 85.4375 C68.05748184 87.9108064 68.05291948 90.38411377 68.04882812 92.85742188 C68.03783159 98.90497188 68.02058381 104.95247533 68 111 C61.73 111 55.46 111 49 111 C48.98541748 109.56277588 48.97083496 108.12555176 48.95581055 106.64477539 C48.89758245 101.28271331 48.82035116 95.92106042 48.73754883 90.55932617 C48.70441454 88.24428986 48.67634728 85.929175 48.65356445 83.61401367 C48.6198069 80.27488922 48.56747969 76.93647719 48.51171875 73.59765625 C48.50532883 72.57229263 48.4989389 71.54692902 48.49235535 70.49049377 C48.35415091 63.64570019 47.91153418 56.32564736 43.21484375 50.9609375 C40.23144656 49.66655354 37.80893457 49.60248138 34.5625 49.625 C32.89380859 49.61339844 32.89380859 49.61339844 31.19140625 49.6015625 C26.73004086 50.15855059 24.13884494 51.86115506 21 55 C20.66840715 57.46620164 20.66840715 57.46620164 20.68115234 60.36767578 C20.66128265 61.48868683 20.64141296 62.60969788 20.62094116 63.76467896 C20.60938995 64.97928802 20.59783875 66.19389709 20.5859375 67.4453125 C20.56657135 68.68546112 20.5472052 69.92560974 20.5272522 71.20333862 C20.4775119 74.50111779 20.43627523 77.79886139 20.39910889 81.09680176 C20.35910998 84.46177334 20.30799897 87.82657392 20.2578125 91.19140625 C20.16160199 97.79417055 20.07762305 104.39699208 20 111 C13.4 111 6.8 111 0 111 C0 74.37 0 37.74 0 0 Z " fill="#FD7700" transform="translate(433,621)"/>
<path d="M0 0 C7.35522353 6.35223851 9.50426082 12.96848165 10.75 22.375 C10.99129029 26.52897006 10.98504741 30.66440048 10.9453125 34.82421875 C10.9424826 35.96284866 10.93965271 37.10147858 10.93673706 38.27461243 C10.92564393 41.87068707 10.90055997 45.46650209 10.875 49.0625 C10.86495615 51.5175745 10.85583277 53.97265295 10.84765625 56.42773438 C10.82574027 62.41025454 10.79128652 68.39258343 10.75 74.375 C5.14 74.375 -0.47 74.375 -6.25 74.375 C-6.25 71.735 -6.25 69.095 -6.25 66.375 C-6.74628906 66.77332031 -7.24257813 67.17164063 -7.75390625 67.58203125 C-16.87166922 74.69284829 -23.58046302 76.55387491 -35.25 75.375 C-42.76452158 73.42188646 -48.93338956 68.88728035 -53.1875 62.4375 C-55.48439344 56.02055395 -55.46614087 47.51125311 -53.55859375 41.0234375 C-49.69487318 33.68398504 -42.86516652 30.09550732 -35.39453125 27.3125 C-27.059416 25.02716756 -17.79849054 26.00092441 -9.25 26.375 C-9.5221085 24.74929244 -9.80872492 23.12600805 -10.1015625 21.50390625 C-10.25963379 20.59970947 -10.41770508 19.6955127 -10.58056641 18.76391602 C-11.07926272 16.14130621 -11.07926272 16.14130621 -13.625 14.3125 C-22.58675764 11.11187227 -30.4176428 12.04951836 -39.25 15.375 C-39.94480469 15.73851562 -40.63960937 16.10203125 -41.35546875 16.4765625 C-43.25 17.375 -43.25 17.375 -46.25 17.375 C-46.25 12.095 -46.25 6.815 -46.25 1.375 C-31.37827946 -5.82099381 -15.13162339 -7.56581169 0 0 Z " fill="#FC7800" transform="translate(286.25,657.625)"/>
<path d="M0 0 C5.89576125 4.88916787 8.00643633 9.75228194 9.5625 17.125 C9.94110449 21.61364274 9.91379165 26.06839174 9.85546875 30.5703125 C9.85122391 31.82133759 9.84697906 33.07236267 9.84260559 34.36129761 C9.82875204 37.65262875 9.80190206 40.94350082 9.76849365 44.23468018 C9.7375482 47.60691778 9.72404853 50.97922318 9.70898438 54.3515625 C9.67605528 60.94290771 9.62434541 67.53386525 9.5625 74.125 C4.2825 74.125 -0.9975 74.125 -6.4375 74.125 C-6.9325 70.165 -6.9325 70.165 -7.4375 66.125 C-7.83839844 66.52332031 -8.23929688 66.92164063 -8.65234375 67.33203125 C-15.50605217 73.71950101 -22.33964703 75.68383553 -31.65234375 75.421875 C-37.40202528 74.80900572 -42.62058537 73.33627642 -47.4375 70.125 C-47.4375 69.465 -47.4375 68.805 -47.4375 68.125 C-48.0975 68.125 -48.7575 68.125 -49.4375 68.125 C-50.69140625 66.48046875 -50.69140625 66.48046875 -52 64.3125 C-52.43441406 63.60480469 -52.86882813 62.89710938 -53.31640625 62.16796875 C-56.75781865 55.89668414 -56.24171865 48.05788211 -54.375 41.3125 C-52.06040341 35.23804227 -47.66901147 32.28208002 -42.0625 29.375 C-34.2527073 26.68196804 -27.11849551 25.84275064 -18.875 26 C-17.96169922 26.00902344 -17.04839844 26.01804687 -16.10742188 26.02734375 C-13.88382681 26.05062747 -11.66081323 26.0833229 -9.4375 26.125 C-9.83592559 24.51620578 -10.25703157 22.91301827 -10.6875 21.3125 C-11.03554688 19.97251953 -11.03554688 19.97251953 -11.390625 18.60546875 C-12.62720223 15.67551897 -13.70680554 14.70461705 -16.4375 13.125 C-25.30072651 10.09331287 -33.49856512 12.48407663 -41.78515625 16.03125 C-44.4375 17.125 -44.4375 17.125 -46.4375 17.125 C-46.4375 11.845 -46.4375 6.565 -46.4375 1.125 C-31.83222886 -6.17763557 -14.76036 -8.05110545 0 0 Z " fill="#972AAF" transform="translate(773.4375,657.875)"/>
<path d="M0 0 C10.659418 11.29800064 10 22.39840906 10 38 C-5.84 38 -21.68 38 -38 38 C-34.90725375 47.27823876 -33.49633676 50.18792073 -25.3125 54.375 C-15.31811485 56.26073305 -7.38459658 54.55745252 1.9453125 51.09375 C5 50 5 50 7 50 C7 55.94 7 61.88 7 68 C-6.98822004 72.87230136 -22.84861512 76.44132001 -37 70 C-46.58012234 64.9849024 -53.75095881 57.52890906 -57.32421875 47.265625 C-60.54520559 36.46694079 -60.00274839 23.31874976 -55.4375 12.9375 C-50.09415194 3.35496437 -42.55766811 -3.26580728 -32.1171875 -6.6015625 C-20.55979087 -8.77657072 -9.71085941 -6.50039525 0 0 Z " fill="#972AAF" transform="translate(921,660)"/>
<path d="M0 0 C8.41421332 6.18823096 11.7645444 12.08389426 14.25 22.3125 C14.25 28.2525 14.25 34.1925 14.25 40.3125 C-1.59 40.3125 -17.43 40.3125 -33.75 40.3125 C-30.72192675 49.65114336 -30.72192675 49.65114336 -23.75 55.3125 C-14.26040777 59.10833689 -6.19704237 56.88681904 3.25 54.3125 C5.89 53.6525 8.53 52.9925 11.25 52.3125 C11.25 57.9225 11.25 63.5325 11.25 69.3125 C10.095 69.93125 8.94 70.55 7.75 71.1875 C7.1003125 71.53554688 6.450625 71.88359375 5.78125 72.2421875 C-4.80106796 76.7168096 -18.94129638 77.35332807 -29.875 73.75 C-39.82008543 69.37107866 -48.56951847 61.43366581 -52.75 51.3125 C-55.42786876 40.04010417 -56.25763116 23.61236072 -50.2890625 13.42578125 C-49.78117188 12.72839844 -49.27328125 12.03101563 -48.75 11.3125 C-47.98816406 10.22001953 -47.98816406 10.22001953 -47.2109375 9.10546875 C-36.21162937 -4.94341059 -15.41547504 -9.68308734 0 0 Z " fill="#972AAF" transform="translate(696.75,657.6875)"/>
<path d="M0 0 C7.26 0 14.52 0 22 0 C23.97621741 6.76248848 25.95196787 13.5251097 27.92651367 20.28808594 C28.59843685 22.5889482 29.27063567 24.88972998 29.94311523 27.19042969 C30.90941611 30.49653363 31.8747268 33.80292528 32.83984375 37.109375 C33.14091537 38.13867126 33.441987 39.16796753 33.75218201 40.22845459 C34.1725045 41.66949554 34.1725045 41.66949554 34.60131836 43.13964844 C34.84780624 43.98348083 35.09429413 44.82731323 35.34825134 45.69671631 C35.94044568 47.78953466 36.48599274 49.88678935 37 52 C39.94381441 44.57933045 42.17583489 36.96105734 44.4375 29.3125 C45.95389996 24.20701035 47.47478497 19.10286352 49 14 C49.37656738 12.73978027 49.75313477 11.47956055 50.14111328 10.18115234 C50.49802246 9.00117676 50.85493164 7.82120117 51.22265625 6.60546875 C51.54113525 5.5486792 51.85961426 4.49188965 52.18774414 3.40307617 C53 1 53 1 54 0 C55.56172745 -0.08685603 57.12729344 -0.10702219 58.69140625 -0.09765625 C59.63564453 -0.09443359 60.57988281 -0.09121094 61.55273438 -0.08789062 C62.54595703 -0.07951172 63.53917969 -0.07113281 64.5625 -0.0625 C65.55958984 -0.05798828 66.55667969 -0.05347656 67.58398438 -0.04882812 C70.05604849 -0.03700007 72.52799518 -0.02051849 75 0 C72.15749814 9.71022487 69.00926098 19.31855728 65.875 28.9375 C65.44580261 30.25586349 65.44580261 30.25586349 65.00793457 31.6008606 C61.27852878 43.05403192 57.53792024 54.50353418 53.75 65.9375 C53.37987793 67.0608374 53.00975586 68.1841748 52.62841797 69.34155273 C52.29213379 70.35161377 51.95584961 71.3616748 51.609375 72.40234375 C51.32030273 73.27366943 51.03123047 74.14499512 50.73339844 75.04272461 C50 77 50 77 49 78 C47.21928754 78.08726223 45.4351686 78.10699041 43.65234375 78.09765625 C42.57275391 78.09443359 41.49316406 78.09121094 40.38085938 78.08789062 C39.24455078 78.07951172 38.10824219 78.07113281 36.9375 78.0625 C35.79732422 78.05798828 34.65714844 78.05347656 33.48242188 78.04882812 C30.65489649 78.03699747 27.8274736 78.0205141 25 78 C13.09555472 42.48049906 13.09555472 42.48049906 7.60546875 25.16992188 C5.42072957 18.28425886 3.15459725 11.43134133 0.8125 4.59765625 C0 2 0 2 0 0 Z " fill="#962AAD" transform="translate(787,654)"/>
<path d="M0 0 C6.27 0 12.54 0 19 0 C19 6.6 19 13.2 19 20 C24.94 20 30.88 20 37 20 C37.495 27.92 37.495 27.92 38 36 C31.73 36 25.46 36 19 36 C19.02809813 41.60685482 19.07116358 47.20943514 19.15258789 52.81518555 C19.17575277 54.72102307 19.19016007 56.62698833 19.19555664 58.53295898 C19.20485741 61.27668723 19.24587071 64.01841063 19.29296875 66.76171875 C19.2890361 67.61086349 19.28510345 68.46000824 19.28105164 69.33488464 C19.38905517 73.73600783 19.58881722 75.4816678 22.4152832 79.04467773 C24.98877288 80.99150675 25.86707447 81.61502252 29 81.375 C29.680625 81.33117187 30.36125 81.28734375 31.0625 81.2421875 C33.41041499 80.94869813 35.70366395 80.57408401 38 80 C38.90413673 83.83724172 39.10576898 87.37502274 39.0625 91.3125 C39.05347656 92.38113281 39.04445313 93.44976563 39.03515625 94.55078125 C39.02355469 95.35902344 39.01195312 96.16726563 39 97 C30.40876366 100.35365524 18.47606289 100.60064392 9.83203125 97.11328125 C4.7423026 94.02037578 1.92703432 89.51873518 0 84 C-0.24050903 81.57646179 -0.24050903 81.57646179 -0.22705078 79.02612305 C-0.22689972 78.06550461 -0.22674866 77.10488617 -0.22659302 76.11515808 C-0.21627045 75.0910231 -0.20594788 74.06688812 -0.1953125 73.01171875 C-0.1924826 71.95338333 -0.18965271 70.89504791 -0.18673706 69.80464172 C-0.1755629 66.43214502 -0.15046307 63.05991613 -0.125 59.6875 C-0.11496664 57.3977903 -0.10584141 55.10807643 -0.09765625 52.81835938 C-0.07563255 47.21213676 -0.04112141 41.60611375 0 36 C-4.29 36 -8.58 36 -13 36 C-13.33 30.72 -13.66 25.44 -14 20 C-9.38 20 -4.76 20 0 20 C0 13.4 0 6.8 0 0 Z " fill="#FD7900" transform="translate(315,634)"/>
<path d="M0 0 C1.20462891 -0.02416992 1.20462891 -0.02416992 2.43359375 -0.04882812 C3.62662109 -0.04979492 3.62662109 -0.04979492 4.84375 -0.05078125 C5.54693359 -0.05376221 6.25011719 -0.05674316 6.97460938 -0.05981445 C9.5 0.3125 9.5 0.3125 17.5 3.3125 C17.5 9.5825 17.5 15.8525 17.5 22.3125 C15.19 21.3225 12.88 20.3325 10.5 19.3125 C3.35171296 17.44581982 -5.47239611 16.59683894 -12.0625 20.375 C-16.77446459 23.87418046 -19.39516986 28.55086247 -20.5 34.3125 C-21.11210807 43.31755142 -21.1046949 49.90676179 -15.25 57.0625 C-8.15150749 62.87035751 -1.45402024 63.13635658 7.5 62.3125 C10.64907357 61.59218405 13.5327874 60.57588349 16.5 59.3125 C18.15 58.6525 19.8 57.9925 21.5 57.3125 C21.5 63.2525 21.5 69.1925 21.5 75.3125 C9.28476654 80.96432444 -4.97900067 82.7181258 -18.25 79.1875 C-26.65158134 76.01291303 -34.16147022 69.23135866 -38.56640625 61.421875 C-43.33231884 50.83095813 -43.6318699 34.25418335 -39.5390625 23.41015625 C-34.67523143 13.59106871 -27.89280385 6.22090487 -17.5 2.3125 C-11.55182014 0.54137708 -6.1900748 -0.02483979 0 0 Z " fill="#FC7900" transform="translate(400.5,652.6875)"/>
<path d="M0 0 C1.20366211 0.00483398 1.20366211 0.00483398 2.43164062 0.00976562 C3.68170898 0.02233398 3.68170898 0.02233398 4.95703125 0.03515625 C6.22450195 0.04192383 6.22450195 0.04192383 7.51757812 0.04882812 C9.6015928 0.06060222 11.68557102 0.07853735 13.76953125 0.09765625 C13.87807108 2.32573784 13.95536432 4.55535557 14.01953125 6.78515625 C14.0659375 8.02652344 14.11234375 9.26789062 14.16015625 10.546875 C13.70349088 14.69796322 12.71284579 16.20156066 9.76953125 19.09765625 C4.99394432 21.71071325 1.19646979 22.78835752 -4.23046875 22.09765625 C-7.93436896 20.07099387 -9.88409886 18.61721109 -12.23046875 15.09765625 C-12.77587915 12.03187568 -12.7685524 9.16473305 -12.23046875 6.09765625 C-8.68194376 1.49416437 -5.71530703 -0.04053409 0 0 Z " fill="#181917" transform="translate(750.23046875,696.90234375)"/>
<path d="M0 0 C0.74507813 0.00451172 1.49015625 0.00902344 2.2578125 0.01367188 C4.0885764 0.02540754 5.91929873 0.0433415 7.75 0.0625 C8.66020533 13.46274517 8.66020533 13.46274517 6.58984375 17.1015625 C5.0625 18.375 5.0625 18.375 1.75 20.0625 C0.986875 20.51625 0.22375 20.97 -0.5625 21.4375 C-4.60896861 22.37853921 -8.25216297 22.20680842 -12.25 21.0625 C-14.95552388 18.86426185 -16.69778333 17.16693333 -18.25 14.0625 C-18.37572207 9.41078351 -18.15680787 6.04283283 -14.9375 2.5625 C-10.04065991 -0.17062005 -5.51319083 -0.06331403 0 0 Z " fill="#0F0E10" transform="translate(269.25,696.9375)"/>
<path d="M0 0 C5.12161049 4.62194117 5.5504235 7.22796448 6.5625 14.3125 C-3.6675 14.3125 -13.8975 14.3125 -24.4375 14.3125 C-23.30734353 6.40140469 -23.30734353 6.40140469 -20.0625 2.9375 C-19.45664062 2.26976562 -18.85078125 1.60203125 -18.2265625 0.9140625 C-13.3709008 -3.43270889 -5.46262363 -2.6816516 0 0 Z " fill="#1A1B1A" transform="translate(906.4375,669.6875)"/>
<path d="M0 0 C5.15655608 4.81278567 5.054386 6.43508797 6 14 C-3.9 14 -13.8 14 -24 14 C-22.8623748 7.17424883 -21.17656981 3.52949858 -16 -1 C-10.50419931 -2.83193356 -5.22011513 -2.4965768 0 0 Z " fill="#171917" transform="translate(686,670)"/>
<path d="M0 0 C0.33 0 0.66 0 1 0 C1 35.64 1 71.28 1 108 C6.61 108 12.22 108 18 108 C18 90.51 18 73.02 18 55 C18.99 54.505 18.99 54.505 20 54 C20 72.48 20 90.96 20 110 C13.4 110 6.8 110 0 110 C0 73.7 0 37.4 0 0 Z " fill="#FA8900" transform="translate(433,622)"/>
<path d="M0 0 C2.83188775 3.4505463 4.74503018 7.25962359 6.6875 11.25 C7.00783203 11.8996875 7.32816406 12.549375 7.65820312 13.21875 C8.44247141 14.81069757 9.22174255 16.40510529 10 18 C9.34 18 8.68 18 8 18 C5 13.61538462 5 13.61538462 5 11 C-0.11111491 12.70370497 -1.37571878 17.71498581 -3.6875 22.3125 C-4.46028836 23.874034 -5.23177266 25.43621708 -6 27 C-6.66 27 -7.32 27 -8 27 C-8 30.3 -8 33.6 -8 37 C-9.485 36.505 -9.485 36.505 -11 36 C-11.81752303 37.58074564 -12.62881997 39.16471223 -13.4375 40.75 C-13.88996094 41.63171875 -14.34242188 42.5134375 -14.80859375 43.421875 C-15.83455398 45.64198566 -16.51508603 47.61444619 -17 50 C-17.66 50 -18.32 50 -19 50 C-19.33 51.32 -19.66 52.64 -20 54 C-20.99 54 -21.98 54 -23 54 C-23.06058594 54.68707031 -23.12117187 55.37414062 -23.18359375 56.08203125 C-23.26738281 56.98308594 -23.35117187 57.88414062 -23.4375 58.8125 C-23.51871094 59.70582031 -23.59992187 60.59914063 -23.68359375 61.51953125 C-24 64 -24 64 -25 67 C-25.66 67.28875 -26.32 67.5775 -27 67.875 C-29.29150599 68.8553382 -29.29150599 68.8553382 -29.75 71.625 C-29.87375 72.800625 -29.87375 72.800625 -30 74 C-30.99 73.67 -31.98 73.34 -33 73 C-32.57547024 66.91836435 -29.73776988 62.60595886 -26.6875 57.5 C-25.59189704 55.62477929 -24.49820688 53.74843994 -23.40625 51.87109375 C-22.84292969 50.9054248 -22.27960937 49.93975586 -21.69921875 48.94482422 C-17.41912309 41.52722165 -13.35697502 33.98740463 -9.31152344 26.43994141 C-8.48506137 24.90240196 -7.65312782 23.36777906 -6.81347656 21.83740234 C-2.88373808 14.67172018 0.13479307 8.35717054 0 0 Z " fill="#261992" transform="translate(544,396)"/>
<path d="M0 0 C3.82601624 4.23594655 5.86362904 8.78407302 8 14 C7.34 14 6.68 14 6 14 C6 13.34 6 12.68 6 12 C5.34 11.67 4.68 11.34 4 11 C3.34 10.01 2.68 9.02 2 8 C-0.7429292 12.32798255 -3.44558315 16.66630602 -5.953125 21.13671875 C-6.74279059 22.54220563 -7.5475043 23.93925306 -8.359375 25.33203125 C-8.81828125 26.12996094 -9.2771875 26.92789063 -9.75 27.75 C-10.17796875 28.48734375 -10.6059375 29.2246875 -11.046875 29.984375 C-12.21374188 32.0804087 -12.21374188 32.0804087 -12 35 C-12.78375 35.7425 -13.5675 36.485 -14.375 37.25 C-17.23351368 39.81178837 -17.23351368 39.81178837 -17.9375 43.375 C-19.12653434 47.4317054 -20.68733153 49.14869188 -23.48046875 52.1796875 C-25.95406392 55.14291462 -27.41272438 58.50799363 -29 62 C-30 64 -31 66 -32 68 C-32.99 68 -33.98 68 -35 68 C-27.27407527 53.44561458 -19.51465781 38.92612904 -11.30200195 24.63842773 C-4.45191786 12.82636649 -4.45191786 12.82636649 0 0 Z " fill="#0F5E69" transform="translate(545,212)"/>
<path d="M0 0 C0.66 0 1.32 0 2 0 C2.25333333 5.57333333 2.25333333 5.57333333 0.8125 8 C0.544375 8.66 0.27625 9.32 0 10 C1.25829702 13.0999475 1.25829702 13.0999475 3 16 C3.33 16.99 3.66 17.98 4 19 C4.66 19 5.32 19 6 19 C6 20.32 6 21.64 6 23 C6.66 23.33 7.32 23.66 8 24 C7.67 24.66 7.34 25.32 7 26 C7.66 26.33 8.32 26.66 9 27 C11.298883 30.11461567 13.1543517 33.18162493 14.625 36.75 C15.76779337 40.01826344 15.76779337 40.01826344 18 42 C18 43.32 18 44.64 18 46 C18.66 46 19.32 46 20 46 C20.33 46.99 20.66 47.98 21 49 C21.66 49.66 22.32 50.32 23 51 C23.71695074 52.5823327 24.37752936 54.19067219 25 55.8125 C25.33 56.66457031 25.66 57.51664062 26 58.39453125 C26.33 59.25433594 26.66 60.11414063 27 61 C27.66427992 62.66761938 28.33024138 64.33457344 29 66 C29.66 66 30.32 66 31 66 C31.0928125 66.928125 31.0928125 66.928125 31.1875 67.875 C31.828919 70.27761141 31.828919 70.27761141 34.5625 71.25 C35.7690625 71.62125 35.7690625 71.62125 37 72 C36.34 73.32 35.68 74.64 35 76 C31.32125504 74.77375168 30.85854299 73.3149213 29.1472168 69.98754883 C28.78926025 69.26978271 28.43130371 68.5520166 28.0625 67.8125 C27.25936383 66.24920204 26.45459507 64.68674204 25.6484375 63.125 C25.00600098 61.87396484 25.00600098 61.87396484 24.35058594 60.59765625 C22.02935285 56.13310092 19.6060448 51.72486954 17.1875 47.3125 C16.43847412 45.94109863 16.43847412 45.94109863 15.67431641 44.54199219 C13.0153127 39.6743477 10.34690435 34.81197948 7.671875 29.953125 C7.13022705 28.96658936 6.5885791 27.98005371 6.03051758 26.96362305 C4.99663529 25.08076891 3.96016501 23.19933266 2.9206543 21.31958008 C1.58888806 18.89181701 0.28237553 16.45416959 -1 14 C-1.35215576 13.32622314 -1.70431152 12.65244629 -2.06713867 11.95825195 C-4.16007866 7.60915841 -4.16007866 7.60915841 -3.41796875 4.78515625 C-2.27864583 3.19010417 -1.13932292 1.59505208 0 0 Z " fill="#451B96" transform="translate(630,353)"/>
<path d="M0 0 C1.12341797 -0.01224609 2.24683594 -0.02449219 3.40429688 -0.03710938 C5.01208008 -0.04000977 5.01208008 -0.04000977 6.65234375 -0.04296875 C8.13528931 -0.04913208 8.13528931 -0.04913208 9.64819336 -0.05541992 C12.0625 0.1875 12.0625 0.1875 14.0625 2.1875 C14.1875 4.8125 14.1875 4.8125 14.0625 7.1875 C14.7225 7.1875 15.3825 7.1875 16.0625 7.1875 C16.12308594 7.77917969 16.18367188 8.37085938 16.24609375 8.98046875 C16.68262371 13.09728208 17.14921346 17.14294533 18.0625 21.1875 C17.4025 21.1875 16.7425 21.1875 16.0625 21.1875 C15.38963788 18.77240559 14.72403988 16.35569644 14.0625 13.9375 C13.87171875 13.25558594 13.6809375 12.57367187 13.484375 11.87109375 C12.56292956 8.48149088 12.0625 5.72971024 12.0625 2.1875 C4.4725 2.5175 -3.1175 2.8475 -10.9375 3.1875 C-11.56398437 5.91902344 -12.19046875 8.65054688 -12.8359375 11.46484375 C-13.44623837 14.09967358 -14.05940227 16.73382158 -14.67285156 19.36791992 C-15.09870738 21.20348854 -15.52156822 23.03975462 -15.94140625 24.87670898 C-16.54427631 27.51213271 -17.15776026 30.1448867 -17.7734375 32.77734375 C-17.95997894 33.60338608 -18.14652039 34.42942841 -18.3387146 35.28050232 C-18.80850142 37.26551392 -19.36499288 39.22964242 -19.9375 41.1875 C-20.9275 41.6825 -20.9275 41.6825 -21.9375 42.1875 C-21.62387263 35.69865784 -21.16413965 30.04908054 -18.5625 24.0703125 C-17.83606339 21.88192222 -17.8091059 20.11055679 -17.875 17.8125 C-17.9059375 16.018125 -17.9059375 16.018125 -17.9375 14.1875 C-17.2775 13.5275 -16.6175 12.8675 -15.9375 12.1875 C-16.2675 11.1975 -16.5975 10.2075 -16.9375 9.1875 C-16.2775 8.8575 -15.6175 8.5275 -14.9375 8.1875 C-14.23258733 5.86543475 -13.56537571 3.53156932 -12.9375 1.1875 C-10.40440278 -1.34559722 -3.40755092 0.00194829 0 0 Z " fill="#0D090F" transform="translate(161.9375,622.8125)"/>
<path d="M0 0 C2 1 2 1 2.7902832 3.19873047 C3.04124756 4.16182129 3.29221191 5.12491211 3.55078125 6.1171875 C3.83493896 7.19081543 4.11909668 8.26444336 4.41186523 9.37060547 C4.70907471 10.52705566 5.00628418 11.68350586 5.3125 12.875 C5.61937744 14.04562988 5.92625488 15.21625977 6.24243164 16.42236328 C6.86744556 18.80812884 7.48943378 21.19468911 8.10839844 23.58203125 C8.91227626 26.66370966 9.73516974 29.73917465 10.5703125 32.8125 C10.80322998 33.67504395 11.03614746 34.53758789 11.27612305 35.42626953 C11.70704949 37.02176316 12.14067312 38.61653152 12.57739258 40.21044922 C13.48937303 43.63144085 14 46.42953138 14 50 C21.59 50 29.18 50 37 50 C38.2345428 44.16797917 38.2345428 44.16797917 39.45263672 38.33251953 C39.61006348 37.60661621 39.76749023 36.88071289 39.9296875 36.1328125 C40.16534424 35.01737061 40.16534424 35.01737061 40.40576172 33.87939453 C41 32 41 32 43 30 C43.76173392 34.3164922 44.16063604 37.74433453 43 42 C42.34 42 41.68 42 41 42 C41 43.32 41 44.64 41 46 C40.34 46 39.68 46 39 46 C38.67 47.98 38.34 49.96 38 52 C29.75 51.67 21.5 51.34 13 51 C11.11656068 47.23312136 10.77942165 45.97041037 11 42 C10.34 41.67 9.68 41.34 9 41 C9.04125 40.278125 9.0825 39.55625 9.125 38.8125 C9.16242869 36.02727009 9.16242869 36.02727009 8.0625 33.75 C6.57963974 29.91200873 6.33764779 26.07842989 6 22 C5.34 22 4.68 22 4 22 C3.814375 20.948125 3.814375 20.948125 3.625 19.875 C3.07511192 17.00074836 3.07511192 17.00074836 2 14.375 C0.5977808 9.6425102 0.33193267 4.90910944 0 0 Z " fill="#0F090E" transform="translate(105,682)"/>
<path d="M0 0 C0.66 0 1.32 0 2 0 C3.00484204 1.95585325 4.00373805 3.91476237 5 5.875 C5.556875 6.96554687 6.11375 8.05609375 6.6875 9.1796875 C8 12 8 12 8 14 C8.99 14.33 9.98 14.66 11 15 C11 15.99 11 16.98 11 18 C11.66 18.33 12.32 18.66 13 19 C13.859375 20.93359375 13.859375 20.93359375 14.75 23.4375 C18.16030775 32.26119589 21.37941159 38.6897058 30 43 C29.67 43.66 29.34 44.32 29 45 C29.86625 44.95875 30.7325 44.9175 31.625 44.875 C35.12358468 45.00457721 37.74551597 45.76019656 41 47 C41 46.34 41 45.68 41 45 C41.75925781 44.79503906 42.51851562 44.59007812 43.30078125 44.37890625 C44.29464844 44.10949219 45.28851562 43.84007812 46.3125 43.5625 C47.29863281 43.29566406 48.28476562 43.02882813 49.30078125 42.75390625 C51.21517526 42.21920575 53.11433615 41.62855462 55 41 C55.495 40.01 55.495 40.01 56 39 C56.99 39.33 57.98 39.66 59 40 C51.43098458 46.40145453 45.22283789 48.50320724 35.31640625 48.24609375 C29.11259798 47.58700451 24.09750952 43.49047798 20 39 C17.1575977 34.59062763 14.76729632 29.97395973 12.375 25.3125 C11.72786388 24.08329836 11.07943352 22.85477719 10.4296875 21.62695312 C6.69781326 14.53041993 3.21988466 7.34318343 0 0 Z " fill="#5E35D2" transform="translate(538,518)"/>
<path d="M0 0 C6.87576072 0.51568205 12.37698946 3.86510302 16.875 9 C20.62607692 14.295638 21.48986055 17.81424115 20.65234375 24.22265625 C19.54805231 28.92416053 17.37636967 32.94649144 15.03320312 37.14404297 C13.82999378 39.30538453 12.65785358 41.48253538 11.484375 43.66015625 C10.59517541 45.29504691 9.70455065 46.92916323 8.8125 48.5625 C8.38461182 49.34882813 7.95672363 50.13515625 7.51586914 50.9453125 C7.10457764 51.68652344 6.69328613 52.42773438 6.26953125 53.19140625 C5.90448486 53.85342041 5.53943848 54.51543457 5.16333008 55.19750977 C3.95677738 57.06697011 2.62595434 58.48920403 1 60 C2.47632266 55.32497824 4.25065854 50.80687281 6.09765625 46.26953125 C6.78760953 44.53419422 7.40945532 42.77163403 8 41 C8.804375 40.21625 9.60875 39.4325 10.4375 38.625 C13.42880338 35.560738 14.47938675 33.08245301 15.5 29 C16 27 16 27 17.0625 24.75 C18.33117268 21.02856013 18.13296831 17.92256512 18 14 C17.34 13.67 16.68 13.34 16 13 C16 12.01 16 11.02 16 10 C15.01 9.67 14.02 9.34 13 9 C12.54625 8.525625 12.0925 8.05125 11.625 7.5625 C9.61423786 5.62907486 7.60947795 4.9168436 5 4 C5 3.34 5 2.68 5 2 C3.35 1.67 1.7 1.34 0 1 C0 0.67 0 0.34 0 0 Z " fill="#9D258F" transform="translate(524,192)"/>
<path d="M0 0 C1 1.33333333 2 2.66666667 3 4 C3.495 4.61875 3.99 5.2375 4.5 5.875 C6 8 6 8 7.3125 10.8125 C11.43473786 18.5989493 16.65987014 23.03462049 25 26 C28.98031179 26.90120267 32.94697014 27.53341409 37 28 C37 27.34 37 26.68 37 26 C39.97 25.67 42.94 25.34 46 25 C42.91438963 28.29841109 41.0089783 29.81599448 36.3984375 30.23828125 C25.93185737 30.4952128 19.40240141 27.91922944 11.77734375 20.77734375 C6.49903388 15.49903388 2.79832711 9.91841724 0 3 C0 2.01 0 1.02 0 0 Z M29 26 C31 27 31 27 31 27 Z " fill="#E9D501" transform="translate(410,536)"/>
<path d="M0 0 C0.33 0 0.66 0 1 0 C1 1.65 1 3.3 1 5 C-4.94 5.33 -10.88 5.66 -17 6 C-18.80657079 25.04431529 -18.80657079 25.04431529 -17 44 C-15.56933141 45.82439832 -15.56933141 45.82439832 -14 47 C-15.875 46.6875 -15.875 46.6875 -18 46 C-20.029668 42.955498 -20.24856301 42.39723672 -20.22705078 38.98754883 C-20.22689972 38.18694534 -20.22674866 37.38634186 -20.22659302 36.56147766 C-20.21627045 35.70201035 -20.20594788 34.84254303 -20.1953125 33.95703125 C-20.1924826 33.0734343 -20.18965271 32.18983734 -20.18673706 31.27946472 C-20.17554097 28.45700546 -20.15043751 25.63486338 -20.125 22.8125 C-20.11496946 20.89909312 -20.10584374 18.98568127 -20.09765625 17.07226562 C-20.07730495 12.38128987 -20.03815545 7.69100003 -20 3 C-13.4 3 -6.8 3 0 3 C0 2.01 0 1.02 0 0 Z " fill="#0A0815" transform="translate(354,667)"/>
<path d="M0 0 C2.19742354 2.19742354 2.51320936 3.23727674 3.2890625 6.17578125 C3.61777344 7.41811523 3.61777344 7.41811523 3.953125 8.68554688 C4.17484375 9.55244141 4.3965625 10.41933594 4.625 11.3125 C4.85445312 12.16779297 5.08390625 13.02308594 5.3203125 13.90429688 C6.38647142 18.00075869 7.3346996 21.72817617 7 26 C6.67 24.68 6.34 23.36 6 22 C5.34 22 4.68 22 4 22 C3.34 18.7 2.68 15.4 2 12 C0.02 12.99 0.02 12.99 -2 14 C-1.79375 14.721875 -1.5875 15.44375 -1.375 16.1875 C-0.93440601 19.49195489 -1.5914599 21.02641535 -3 24 C-3.33 24.99 -3.66 25.98 -4 27 C-4.66 27 -5.32 27 -6 27 C-6.33 27.99 -6.66 28.98 -7 30 C-6.35440084 23.70540816 -5.07366009 17.74878582 -3.5 11.625 C-3.27441406 10.72394531 -3.04882812 9.82289063 -2.81640625 8.89453125 C-1.1409337 2.2818674 -1.1409337 2.2818674 0 0 Z " fill="#0D0A10" transform="translate(161,659)"/>
<path d="M0 0 C1.45889648 -0.00193359 1.45889648 -0.00193359 2.94726562 -0.00390625 C3.96626953 -0.00003906 4.98527344 0.00382813 6.03515625 0.0078125 C7.05029297 0.00394531 8.06542969 0.00007812 9.11132812 -0.00390625 C10.08521484 -0.00261719 11.05910156 -0.00132812 12.0625 0 C13.40235962 0.00169189 13.40235962 0.00169189 14.76928711 0.00341797 C17.09765625 0.1328125 17.09765625 0.1328125 20.09765625 1.1328125 C20.09765625 1.7928125 20.09765625 2.4528125 20.09765625 3.1328125 C21.41765625 2.8028125 22.73765625 2.4728125 24.09765625 2.1328125 C23.76765625 3.1228125 23.43765625 4.1128125 23.09765625 5.1328125 C22.43765625 5.1328125 21.77765625 5.1328125 21.09765625 5.1328125 C21.09765625 5.7928125 21.09765625 6.4528125 21.09765625 7.1328125 C20.43765625 7.1328125 19.77765625 7.1328125 19.09765625 7.1328125 C18.76765625 5.4828125 18.43765625 3.8328125 18.09765625 2.1328125 C10.50765625 2.1328125 2.91765625 2.1328125 -4.90234375 2.1328125 C-3.59301455 6.84610268 -3.59301455 6.84610268 -2.26953125 11.55541992 C-1.28549052 15.16991476 -0.669599 18.38707675 -0.90234375 22.1328125 C-3.02281167 18.59869929 -3.43433664 15.18887415 -3.90234375 11.1328125 C-4.89234375 10.8028125 -5.88234375 10.4728125 -6.90234375 10.1328125 C-6.57234375 9.4728125 -6.24234375 8.8128125 -5.90234375 8.1328125 C-6.18476258 5.7927708 -6.51485162 3.45776527 -6.90234375 1.1328125 C-4.42892207 -0.10389834 -2.76375064 0.00349431 0 0 Z " fill="#07050F" transform="translate(95.90234375,622.8671875)"/>
<path d="M0 0 C1.5778125 0.02707031 1.5778125 0.02707031 3.1875 0.0546875 C5.75099422 0.10129649 8.31248094 0.1666973 10.875 0.25 C10.875 0.58 10.875 0.91 10.875 1.25 C10.30056152 1.26981934 9.72612305 1.28963867 9.13427734 1.31005859 C6.50576167 1.40592024 3.87797509 1.51534874 1.25 1.625 C-0.10544922 1.67140625 -0.10544922 1.67140625 -1.48828125 1.71875 C-8.07151496 2.0070668 -13.3829214 3.24046393 -19.3125 6.1875 C-19.96605469 6.50589844 -20.61960937 6.82429687 -21.29296875 7.15234375 C-23.22699399 8.3111094 -24.56402154 9.63625607 -26.125 11.25 C-27.115 11.745 -27.115 11.745 -28.125 12.25 C-29.15935556 13.89556566 -30.15263513 15.5670608 -31.125 17.25 C-32.44958708 19.25580329 -33.7809907 21.25715862 -35.125 23.25 C-35.455 22.59 -35.785 21.93 -36.125 21.25 C-32.34890944 12.60765047 -26.30736748 5.8284741 -17.6171875 2.0703125 C-11.71269887 -0.20474175 -6.25629841 -0.20695135 0 0 Z " fill="#A6299A" transform="translate(512.125,190.75)"/>
<path d="M0 0 C5.3892834 -0.14928763 10.77734103 -0.257654 16.16821289 -0.32958984 C17.99850452 -0.35960256 19.82865427 -0.40042728 21.65844727 -0.45263672 C40.0258626 -0.96325988 40.0258626 -0.96325988 46.48632812 4.43212891 C51.3841098 9.50528277 52.44065346 12.91687158 52.3359375 19.828125 C52 22 52 22 50 24 C50.04125 22.783125 50.0825 21.56625 50.125 20.3125 C50.08034844 13.9496521 47.73276574 10.38867403 43.828125 5.55078125 C39.19700064 1.62224199 33.33884847 1.67449741 27.5390625 1.5859375 C26.3532106 1.55688828 26.3532106 1.55688828 25.1434021 1.5272522 C22.63737517 1.46783947 20.13130135 1.42122573 17.625 1.375 C15.91794957 1.33678487 14.21091769 1.29773111 12.50390625 1.2578125 C8.33608956 1.16216989 4.1681827 1.07799885 0 1 C0 0.67 0 0.34 0 0 Z " fill="#7C43E7" transform="translate(732,179)"/>
<path d="M0 0 C1.32 0.33 2.64 0.66 4 1 C4 2.65 4 4.3 4 6 C4.66 6 5.32 6 6 6 C6.45890625 7.12019531 6.9178125 8.24039062 7.390625 9.39453125 C8.00981059 10.86744243 8.6296359 12.3400848 9.25 13.8125 C9.55035156 14.55048828 9.85070312 15.28847656 10.16015625 16.04882812 C12.43765344 21.45306423 12.43765344 21.45306423 17 25 C17.66 25 18.32 25 19 25 C18.87625 25.886875 18.7525 26.77375 18.625 27.6875 C18.67472445 31.24845631 18.67472445 31.24845631 21.75 33.6875 C22.8225 34.450625 23.895 35.21375 25 36 C25.78375 36.598125 26.5675 37.19625 27.375 37.8125 C28.179375 38.4003125 28.179375 38.4003125 29 39 C23.03576347 38.12442123 19.92941549 35.46159978 16 31 C12.99913631 26.50161792 10.46767519 21.80265463 8 17 C7.44119141 15.9176709 7.44119141 15.9176709 6.87109375 14.81347656 C0 1.43813559 0 1.43813559 0 0 Z " fill="#710E65" transform="translate(396,359)"/>
<path d="M0 0 C1 3 1 3 -0.35180664 6.1953125 C-1.02752147 7.51060428 -1.71447906 8.82015662 -2.41015625 10.125 C-2.77467392 10.82713623 -3.13919159 11.52927246 -3.51475525 12.25268555 C-4.68801428 14.50680085 -5.8751215 16.75329598 -7.0625 19 C-7.83618148 20.4826062 -8.60897788 21.96567463 -9.38085938 23.44921875 C-13.50009136 31.3470761 -17.69538145 39.20136604 -22 47 C-22.33 45.68 -22.66 44.36 -23 43 C-22.34 43 -21.68 43 -21 43 C-20.505 40.03 -20.505 40.03 -20 37 C-19.34 37 -18.68 37 -18 37 C-18 35.35 -18 33.7 -18 32 C-17.01 31.67 -16.02 31.34 -15 31 C-13.85771342 28.24236568 -13.85771342 28.24236568 -13 25 C-12.33333333 23 -11.66666667 21 -11 19 C-10.34 19 -9.68 19 -9 19 C-8.82984375 18.33613281 -8.6596875 17.67226562 -8.484375 16.98828125 C-7.0508776 11.76516572 -5.71210301 8.07133879 -2 4 C-1.29114106 2.68861096 -0.60543548 1.36222983 0 0 Z " fill="#763FE2" transform="translate(781,204)"/>
<path d="M0 0 C2.77096179 2.46589702 4.34101976 5.15350994 6.1015625 8.40234375 C6.67390625 9.45744141 7.24625 10.51253906 7.8359375 11.59960938 C8.42632813 12.70111328 9.01671875 13.80261719 9.625 14.9375 C10.223125 16.03513672 10.82125 17.13277344 11.4375 18.26367188 C16.56384053 27.76827836 16.56384053 27.76827836 17 31 C15.78515625 33.796875 15.78515625 33.796875 14.0625 36.75 C13.49660156 37.73484375 12.93070313 38.7196875 12.34765625 39.734375 C11.68056641 40.85585938 11.68056641 40.85585938 11 42 C10 39 10 39 10.99609375 36.73828125 C11.47175781 35.93777344 11.94742188 35.13726562 12.4375 34.3125 C12.91058594 33.50425781 13.38367188 32.69601562 13.87109375 31.86328125 C14.24363281 31.24839844 14.61617187 30.63351562 15 30 C14.01 30 13.02 30 12 30 C11.88785156 29.40316406 11.77570312 28.80632812 11.66015625 28.19140625 C9.94681566 20.65494733 6.77450014 14.36719727 3.04907227 7.66430664 C0 2.16944777 0 2.16944777 0 0 Z " fill="#17AD9B" transform="translate(647,401)"/>
<path d="M0 0 C1 3 1 3 0.11962891 5.11303711 C-0.34008301 5.9097583 -0.79979492 6.70647949 -1.2734375 7.52734375 C-1.7684375 8.40197266 -2.2634375 9.27660156 -2.7734375 10.17773438 C-3.56621094 11.54381836 -3.56621094 11.54381836 -4.375 12.9375 C-5.40777817 14.73591447 -6.43658715 16.53661561 -7.4609375 18.33984375 C-7.92290527 19.13769287 -8.38487305 19.93554199 -8.86083984 20.75756836 C-9.92677142 22.85584986 -10.54088135 24.70145103 -11 27 C-11.66 27 -12.32 27 -13 27 C-13.37125 27.9590625 -13.37125 27.9590625 -13.75 28.9375 C-15.40811572 32.99988351 -17.2035584 36.99724906 -19 41 C-19.66 41 -20.32 41 -21 41 C-21.4021875 42.3921875 -21.4021875 42.3921875 -21.8125 43.8125 C-22.91148371 46.76240366 -23.62418561 48.05615186 -26 50 C-24.58814401 45.32482024 -22.63740542 41.12219614 -20.33203125 36.8359375 C-19.9741301 36.16261383 -19.61622894 35.48929016 -19.2474823 34.79556274 C-18.49067503 33.37409073 -17.7316241 31.95381123 -16.97045898 30.53466797 C-15.82848666 28.40481616 -14.69392539 26.27115365 -13.56054688 24.13671875 C-9.21630077 15.981874 -4.73137518 7.93826968 0 0 Z " fill="#EDDE01" transform="translate(444,456)"/>
<path d="M0 0 C2 3 2 3 2 6 C2.66 6 3.32 6 4 6 C4.12375 6.804375 4.2475 7.60875 4.375 8.4375 C4.684375 9.7059375 4.684375 9.7059375 5 11 C5.66 11.33 6.32 11.66 7 12 C6.67 13.32 6.34 14.64 6 16 C6.99 15.01 7.98 14.02 9 13 C9.2396943 18.63281599 8.38529821 23.54538831 7 29 C4.3070231 24.96053465 3.52516503 20.86506069 2.375 16.1875 C2.14554688 15.29740234 1.91609375 14.40730469 1.6796875 13.49023438 C0.53606578 8.89872931 -0.29972359 4.77191511 0 0 Z " fill="#0F0A0F" transform="translate(186,673)"/>
<path d="M0 0 C2.76223278 2.76223278 2.57856291 5.20706617 3 9 C3.66 9 4.32 9 5 9 C5 9.66 5 10.32 5 11 C5.66 11 6.32 11 7 11 C7.185625 9.3603125 7.185625 9.3603125 7.375 7.6875 C8 4 8 4 10 1 C9.41640925 9.31616812 7.26200586 17.01459326 5 25 C4.67 25 4.34 25 4 25 C3.32727653 21.58449704 2.66288201 18.16742548 2 14.75 C1.80921875 13.78191406 1.6184375 12.81382812 1.421875 11.81640625 C1.24140625 10.88183594 1.0609375 9.94726562 0.875 8.984375 C0.70742187 8.12553711 0.53984375 7.26669922 0.3671875 6.38183594 C0 4 0 4 0 0 Z " fill="#0D090F" transform="translate(127,679)"/>
<path d="M0 0 C0.99 0 1.98 0 3 0 C1.67904588 4.34837687 -0.01802143 8.10451052 -2.2578125 12.0546875 C-2.88300781 13.16328125 -3.50820313 14.271875 -4.15234375 15.4140625 C-4.80332031 16.55617188 -5.45429687 17.69828125 -6.125 18.875 C-6.79084477 20.05181177 -7.45621396 21.22889276 -8.12109375 22.40625 C-9.74274265 25.27351326 -11.36917199 28.13795084 -13 31 C-14.33176248 27.00471255 -13.41870859 24.90144863 -12 21 C-11.01 20.34 -10.02 19.68 -9 19 C-8.67 17.989375 -8.34 16.97875 -8 15.9375 C-7.67 14.968125 -7.34 13.99875 -7 13 C-6.01 12.67 -5.02 12.34 -4 12 C-4 10.35 -4 8.7 -4 7 C-3.01 6.67 -2.02 6.34 -1 6 C-1.20625 5.38125 -1.4125 4.7625 -1.625 4.125 C-1.74875 3.42375 -1.8725 2.7225 -2 2 C-1.34 1.34 -0.68 0.68 0 0 Z " fill="#982183" transform="translate(522,252)"/>
<path d="M0 0 C0.66 0 1.32 0 2 0 C2.3623877 0.69971924 2.72477539 1.39943848 3.09814453 2.12036133 C4.77255064 5.35170407 6.44876581 8.5821052 8.125 11.8125 C8.97964844 13.46282227 8.97964844 13.46282227 9.8515625 15.14648438 C10.41875 16.23896484 10.9859375 17.33144531 11.5703125 18.45703125 C12.13524414 19.54580566 12.70017578 20.63458008 13.28222656 21.75634766 C15.44513825 25.84054957 17.71922979 29.85803998 20.02685547 33.86206055 C20.34799316 34.56758057 20.66913086 35.27310059 21 36 C20.67 36.66 20.34 37.32 20 38 C18.66141476 35.71125827 17.32898986 33.41930344 16 31.125 C15.6184375 30.47402344 15.236875 29.82304687 14.84375 29.15234375 C12 24.2265625 12 24.2265625 12 22 C11.01 21.67 10.02 21.34 9 21 C8.30356015 19.01017187 7.645124 17.00705243 7 15 C5.73404417 12.61231115 4.39393349 10.28217598 3.0234375 7.953125 C2 6 2 6 2 4 C1.01 4 0.02 4 -1 4 C-0.67 2.68 -0.34 1.36 0 0 Z " fill="#17AB99" transform="translate(625,361)"/>
<path d="M0 0 C0.66 0 1.32 0 2 0 C1.54470149 11.97435091 -2.27327632 23.86748789 -10.68359375 32.78515625 C-11.11800781 33.18605469 -11.55242188 33.58695313 -12 34 C-12.66 33.67 -13.32 33.34 -14 33 C-12.55561781 31.00537697 -11.18834444 29.17385641 -9.375 27.5 C-7.74637023 25.72331298 -7.40462501 24.34682504 -7 22 C-6.34 22 -5.68 22 -5 22 C-4.67 20.7625 -4.34 19.525 -4 18.25 C-3.814375 17.55390625 -3.62875 16.8578125 -3.4375 16.140625 C-2.86650651 13.71098139 -2.86650651 13.71098139 -3 10 C-2.34 9.67 -1.68 9.34 -1 9 C-0.53348793 6.87423218 -0.53348793 6.87423218 -0.375 4.4375 C-0.30023437 3.61121094 -0.22546875 2.78492188 -0.1484375 1.93359375 C-0.09945312 1.29550781 -0.05046875 0.65742187 0 0 Z " fill="#5F35D1" transform="translate(612,522)"/>
<path d="M0 0 C1 2 1 2 0.22265625 4.390625 C-0.54678434 6.28702402 -1.31760355 8.1828643 -2.08984375 10.078125 C-3.94793 16.04314008 -2.82018144 20.19055547 -0.5 25.875 C-0.0359375 27.02742187 0.428125 28.17984375 0.90625 29.3671875 C1.2671875 30.23601563 1.628125 31.10484375 2 32 C1.01 32.495 1.01 32.495 0 33 C-5.3821507 25.36081836 -5.63982524 19.25540304 -5 10 C-4.07725354 6.07533162 -2.90268289 2.90268289 0 0 Z " fill="#0E0B12" transform="translate(384,677)"/>
<path d="M0 0 C-2.34401383 0.78133794 -3.79245526 1.04237825 -6.23828125 0.54296875 C-16.39849399 -1.45458368 -26.16132233 0.38808144 -36 3 C-37.66400324 3.34638435 -39.32989123 3.68436477 -41 4 C-40 2 -40 2 -37.6875 0.875 C-35 0 -35 0 -31 0 C-31 -0.66 -31 -1.32 -31 -2 C-27.6046836 -2.19777236 -24.20874308 -2.38139685 -20.8125 -2.5625 C-19.85279297 -2.61857422 -18.89308594 -2.67464844 -17.90429688 -2.73242188 C-16.50727539 -2.80493164 -16.50727539 -2.80493164 -15.08203125 -2.87890625 C-14.22843018 -2.9260376 -13.3748291 -2.97316895 -12.49536133 -3.02172852 C-7.94297268 -2.98208831 -4.15788146 -1.7819492 0 0 Z " fill="#0C0811" transform="translate(282,654)"/>
<path d="M0 0 C0.53625 0.2475 1.0725 0.495 1.625 0.75 C-0.92100814 2.35034797 -3.19309082 3.69077375 -6.0625 4.625 C-9.12591016 6.11530764 -9.21161878 7.64765007 -10.375 10.75 C-11.035 11.059375 -11.695 11.36875 -12.375 11.6875 C-14.66542823 12.62046269 -14.66542823 12.62046269 -15.375 15.4375 C-15.705 16.530625 -16.035 17.62375 -16.375 18.75 C-17.61545398 21.14917261 -18.984209 23.432015 -20.375 25.75 C-20.705 25.09 -21.035 24.43 -21.375 23.75 C-20.24775258 21.23009506 -19.06467494 18.85696317 -17.75 16.4375 C-17.40582031 15.77298828 -17.06164062 15.10847656 -16.70703125 14.42382812 C-13.59182855 8.61299799 -7.39853767 -0.77879344 0 0 Z " fill="#723CD9" transform="translate(729.375,180.25)"/>
<path d="M0 0 C3.69739562 3.06068398 5.24114382 7.44591082 7.13085938 11.73046875 C9.86483277 17.54716842 13.12405076 20.68967848 18.9921875 23.36328125 C19.94351562 23.67652344 20.89484375 23.98976563 21.875 24.3125 C22.84179688 24.63863281 23.80859375 24.96476562 24.8046875 25.30078125 C25.52914063 25.53152344 26.25359375 25.76226562 27 26 C27 26.33 27 26.66 27 27 C19.18849702 26.65282209 14.46192893 24.78653969 9 19 C4.82249926 13.91626894 0 6.6972259 0 0 Z " fill="#EA9202" transform="translate(363,439)"/>
<path d="M0 0 C1.0209375 0.433125 1.0209375 0.433125 2.0625 0.875 C9.31210327 3.65144381 15.19717996 4.26255866 22.9375 4.125 C23.90751953 4.11597656 24.87753906 4.10695313 25.87695312 4.09765625 C28.25156407 4.07426107 30.62564776 4.04148176 33 4 C31.625 6 31.625 6 30 8 C29.34 8 28.68 8 28 8 C28 7.34 28 6.68 28 6 C27.505 6.165 27.01 6.33 26.5 6.5 C18.48464299 8.1030714 8.2275724 6.96350744 1 3 C0.67 2.01 0.34 1.02 0 0 Z " fill="#080812" transform="translate(320,728)"/>
<path d="M0 0 C1.19675992 4.78703966 0.51830209 5.6053397 -1.75 9.8125 C-4.37466706 14.76990383 -4.37466706 14.76990383 -6.6875 19.875 C-7.99676075 22.99228751 -9.45908986 25.9915564 -11 29 C-11.66 28.01 -12.32 27.02 -13 26 C-8.71 17.42 -4.42 8.84 0 0 Z " fill="#1F221D" transform="translate(776,216)"/>
<path d="M0 0 C1 1.33333333 2 2.66666667 3 4 C3.495 4.61875 3.99 5.2375 4.5 5.875 C6 8 6 8 7.3125 10.8125 C10.44980592 16.73852229 15.22016822 21.36075151 20 26 C11.57416487 23.12721966 6.39157523 16.34575353 2.4375 8.625 C0 3.51219512 0 3.51219512 0 0 Z " fill="#F1E001" transform="translate(410,536)"/>
<path d="M0 0 C0.33 0.66 0.66 1.32 1 2 C-0.20850753 5.07620099 -1.52221785 8.0444357 -3 11 C-3.66 11 -4.32 11 -5 11 C-5.24492188 11.82757813 -5.48984375 12.65515625 -5.7421875 13.5078125 C-7.19193489 17.53288756 -9.0723051 21.13227714 -11.125 24.875 C-11.49753906 25.56335938 -11.87007812 26.25171875 -12.25390625 26.9609375 C-13.16499526 28.64294798 -14.08190315 30.32180436 -15 32 C-16 29 -16 29 -15.29077148 27.07397461 C-14.90477783 26.35733643 -14.51878418 25.64069824 -14.12109375 24.90234375 C-13.69683105 24.10481689 -13.27256836 23.30729004 -12.83544922 22.4855957 C-12.37412598 21.64472412 -11.91280273 20.80385254 -11.4375 19.9375 C-10.74938232 18.65782349 -10.74938232 18.65782349 -10.04736328 17.35229492 C-6.86246945 11.46735999 -3.5773475 5.65686251 0 0 Z " fill="#6E39D8" transform="translate(706,209)"/>
<path d="M0 0 C0.99 1.485 0.99 1.485 2 3 C2.99 3 3.98 3 5 3 C5.33 3 5.66 3 6 3 C6.2396943 8.63281599 5.38529821 13.54538831 4 19 C3.67 19 3.34 19 3 19 C2.49521515 16.58424393 1.99602358 14.16755639 1.5 11.75 C1.35691406 11.06808594 1.21382812 10.38617187 1.06640625 9.68359375 C0.38748951 6.35366879 0 3.41667449 0 0 Z " fill="#0E130F" transform="translate(600,686)"/>
<path d="M0 0 C0.33 0 0.66 0 1 0 C-0.87932844 18.79328437 -0.87932844 18.79328437 -5 26 C-5.66 26 -6.32 26 -7 26 C-2.96127563 8.14350797 -2.96127563 8.14350797 0 0 Z " fill="#100A11" transform="translate(228,641)"/>
<path d="M0 0 C1.47668858 0.0133035 2.95331108 0.03716415 4.4296875 0.0703125 C5.18378906 0.07933594 5.93789063 0.08835937 6.71484375 0.09765625 C8.57826004 0.1212438 10.44151343 0.15711531 12.3046875 0.1953125 C13.83103673 3.24801096 13.14263194 5.95376939 12.8671875 9.3203125 C12.76535156 10.60164062 12.66351563 11.88296875 12.55859375 13.203125 C12.47480469 14.19054687 12.39101563 15.17796875 12.3046875 16.1953125 C11.9746875 16.1953125 11.6446875 16.1953125 11.3046875 16.1953125 C11.3046875 11.5753125 11.3046875 6.9553125 11.3046875 2.1953125 C5.6946875 2.1953125 0.0846875 2.1953125 -5.6953125 2.1953125 C-3.6953125 0.1953125 -3.6953125 0.1953125 0 0 Z " fill="#E06D00" transform="translate(265.6953125,694.8046875)"/>
<path d="M0 0 C7.26 0 14.52 0 22 0 C22 1.65 22 3.3 22 5 C21.67 4.01 21.34 3.02 21 2 C14.73 2 8.46 2 2 2 C1.67 2.66 1.34 3.32 1 4 C0.67 2.68 0.34 1.36 0 0 Z " fill="#9F29B8" transform="translate(787,654)"/>
<path d="M0 0 C0.33 0 0.66 0 1 0 C1 5.28 1 10.56 1 16 C2.5675 15.319375 4.135 14.63875 5.75 13.9375 C9.29116165 12.39989033 11.30962722 11.62904376 15 13 C13.35 13.33 11.7 13.66 10 14 C9.67 14.99 9.34 15.98 9 17 C2.84765625 17.87890625 2.84765625 17.87890625 1 18 C0 17 0 17 -0.09765625 13.18359375 C-0.09098089 11.60153318 -0.07901875 10.01948841 -0.0625 8.4375 C-0.05798828 7.63119141 -0.05347656 6.82488281 -0.04882812 5.99414062 C-0.03700518 3.99606244 -0.01906914 1.99802217 0 0 Z " fill="#0A0814" transform="translate(239,659)"/>
<path d="M0 0 C6.8523462 0.51392596 12.31829607 3.89533796 16.9375 8.875 C19.24470743 12.37076883 19.75132792 14.85546528 20 19 C18 16 18 16 18 14 C17.34 13.67 16.68 13.34 16 13 C16 12.01 16 11.02 16 10 C15.01 9.67 14.02 9.34 13 9 C12.54625 8.525625 12.0925 8.05125 11.625 7.5625 C9.61423786 5.62907486 7.60947795 4.9168436 5 4 C5 3.34 5 2.68 5 2 C3.35 1.67 1.7 1.34 0 1 C0 0.67 0 0.34 0 0 Z " fill="#A82CA2" transform="translate(524,192)"/>
<path d="M0 0 C0.33 0.66 0.66 1.32 1 2 C0.11506725 4.41744873 -0.82369569 6.71925951 -1.875 9.0625 C-2.15730469 9.71283203 -2.43960937 10.36316406 -2.73046875 11.03320312 C-4.84224258 15.84224258 -4.84224258 15.84224258 -6 17 C-6.07205511 18.68608966 -6.08386068 20.37500659 -6.0625 22.0625 C-6.05347656 22.98160156 -6.04445313 23.90070312 -6.03515625 24.84765625 C-6.02355469 25.55792969 -6.01195312 26.26820313 -6 27 C-8.35262492 24.64737508 -8.39658378 23.98269013 -8.5625 20.75 C-8.48416713 14.06233092 -4.81638448 4.81638448 0 0 Z " fill="#F0E002" transform="translate(416,508)"/>
<path d="M0 0 C1.37344385 4.39844322 0.24307502 7.92504555 -0.9375 12.25 C-1.23043945 13.36761719 -1.23043945 13.36761719 -1.52929688 14.5078125 C-2.01104198 16.34079386 -2.50439225 18.17071818 -3 20 C-3.66 20 -4.32 20 -5 20 C-5 17 -5 14 -5 11 C-4.34 10.67 -3.68 10.34 -3 10 C-2.65458149 7.66842508 -2.32205743 5.33491639 -2 3 C-1.34 2.01 -0.68 1.02 0 0 Z " fill="#0C0910" transform="translate(205,638)"/>
<path d="M0 0 C0.33 0.66 0.66 1.32 1 2 C-0.14926171 4.42324951 -1.34710866 6.68625689 -2.6875 9 C-3.21633789 9.96292969 -3.21633789 9.96292969 -3.75585938 10.9453125 C-5.71411238 14.36778027 -7.15094826 16.74884097 -11 18 C-11.33 16.68 -11.66 15.36 -12 14 C-10.948125 13.360625 -9.89625 12.72125 -8.8125 12.0625 C-4.35332066 8.92657307 -2.28970406 4.84319891 0 0 Z " fill="#E5D402" transform="translate(468,542)"/>
<path d="M0 0 C-7.6233686 4.00958213 -14.53483954 4.98272342 -23 3 C-24.67407227 1.45922852 -24.67407227 1.45922852 -26 0 C-25.44014404 0.00523682 -24.88028809 0.01047363 -24.3034668 0.01586914 C-21.76482263 0.03666691 -19.22619641 0.04966904 -16.6875 0.0625 C-15.80642578 0.07087891 -14.92535156 0.07925781 -14.01757812 0.08789062 C-13.17001953 0.09111328 -12.32246094 0.09433594 -11.44921875 0.09765625 C-10.66893311 0.10289307 -9.88864746 0.10812988 -9.0847168 0.11352539 C-1.04493225 -0.32428932 -1.04493225 -0.32428932 0 0 Z " fill="#080711" transform="translate(272,732)"/>
<path d="M0 0 C1.57524807 2.36287211 2.54376952 4.2508932 3.625 6.8125 C5.96286362 11.63992069 9.56557557 14.15852415 14 17 C13.67 17.66 13.34 18.32 13 19 C8.97875049 17.69581097 7.42987398 16.38069424 5 13 C4.29875 12.690625 3.5975 12.38125 2.875 12.0625 C1 11 1 11 0.3125 8.5625 C0.209375 7.716875 0.10625 6.87125 0 6 C-0.33 5.01 -0.66 4.02 -1 3 C-0.67 2.01 -0.34 1.02 0 0 Z " fill="#0B0910" transform="translate(231,713)"/>
<path d="M0 0 C0.33 0 0.66 0 1 0 C0.61375277 8.38156489 -1.5255343 16.01265489 -4 24 C-4.33 24 -4.66 24 -5 24 C-5.34827224 18.42764411 -4.98481654 14.08442482 -2.80078125 8.9296875 C-1.59396913 6.02156463 -0.82238115 3.03648426 0 0 Z " fill="#101412" transform="translate(559,634)"/>
<path d="M0 0 C1.32 0.33 2.64 0.66 4 1 C3.48050781 1.51046875 2.96101563 2.0209375 2.42578125 2.546875 C-3.24698873 8.46081635 -6.29015106 14.30038113 -9 22 C-9.33 22 -9.66 22 -10 22 C-9.49137369 14.03152111 -5.72125572 8.26423594 -1 2 C-0.67 1.34 -0.34 0.68 0 0 Z " fill="#0B0913" transform="translate(369,660)"/>
<path d="M0 0 C1.02480469 0.00322266 2.04960937 0.00644531 3.10546875 0.00976562 C4.16894531 0.01814453 5.23242188 0.02652344 6.328125 0.03515625 C7.40707031 0.03966797 8.48601563 0.04417969 9.59765625 0.04882812 C12.25786883 0.06059898 14.91796865 0.07704226 17.578125 0.09765625 C17.578125 0.42765625 17.578125 0.75765625 17.578125 1.09765625 C17.00368652 1.11747559 16.42924805 1.13729492 15.83740234 1.15771484 C13.20888667 1.25357649 10.58110009 1.36300499 7.953125 1.47265625 C6.59767578 1.5190625 6.59767578 1.5190625 5.21484375 1.56640625 C0.2744999 1.78277167 -3.73565513 2.39760803 -8.421875 4.09765625 C-9.081875 3.76765625 -9.741875 3.43765625 -10.421875 3.09765625 C-9.421875 1.09765625 -9.421875 1.09765625 -7.69824219 0.47875977 C-5.09175649 0.04238866 -2.6432945 -0.01468497 0 0 Z M-12.421875 4.09765625 C-11.761875 4.42765625 -11.101875 4.75765625 -10.421875 5.09765625 C-11.741875 5.42765625 -13.061875 5.75765625 -14.421875 6.09765625 C-13.761875 5.43765625 -13.101875 4.77765625 -12.421875 4.09765625 Z " fill="#AB2BA4" transform="translate(505.421875,190.90234375)"/>
<path d="M0 0 C0.66 0 1.32 0 2 0 C2.08071788 2.79224073 2.14035408 5.58216566 2.1875 8.375 C2.22520508 9.56609375 2.22520508 9.56609375 2.26367188 10.78125 C2.29004405 12.85586148 2.15486462 14.93100865 2 17 C1.01 17.66 0.02 18.32 -1 19 C-1.99 18.67 -2.98 18.34 -4 18 C-2.68 17.67 -1.36 17.34 0 17 C-0.08378906 15.85660156 -0.16757812 14.71320312 -0.25390625 13.53515625 C-0.35704794 12.04428998 -0.45989747 10.55340347 -0.5625 9.0625 C-0.61857422 8.30775391 -0.67464844 7.55300781 -0.73242188 6.77539062 C-0.86176157 4.85254042 -0.93516912 2.92610452 -1 1 C-0.67 0.67 -0.34 0.34 0 0 Z " fill="#A12BBA" transform="translate(706,710)"/>
<path d="M0 0 C0.66 0 1.32 0 2 0 C2.66 3.63 3.32 7.26 4 11 C2.02 11.66 0.04 12.32 -2 13 C-1.48041715 8.62065881 -0.94324258 4.31196609 0 0 Z " fill="#161417" transform="translate(572,660)"/>
<path d="M0 0 C0.75 1.5625 0.75 1.5625 1 4 C-1.07319191 8.37673848 -2.77738509 11.43626952 -7 14 C-6.85691406 13.43796875 -6.71382812 12.8759375 -6.56640625 12.296875 C-5.98879098 9.95454547 -5.45716693 7.60582341 -4.9375 5.25 C-4.76089844 4.45078125 -4.58429687 3.6515625 -4.40234375 2.828125 C-4.26957031 2.22484375 -4.13679687 1.6215625 -4 1 C-2.68 0.67 -1.36 0.34 0 0 Z " fill="#B9A906" transform="translate(532,423)"/>
<path d="M0 0 C0.66 0 1.32 0 2 0 C2.69969682 2.24623699 3.38435043 4.49716414 4.0625 6.75 C4.63677734 8.62945313 4.63677734 8.62945313 5.22265625 10.546875 C5.92656828 13.6738008 6.16653785 15.09466046 5 18 C5 17.01 5 16.02 5 15 C4.01 15 3.02 15 2 15 C1.93941406 14.41992188 1.87882813 13.83984375 1.81640625 13.2421875 C1.33983439 8.79907137 0.78991334 4.40094577 0 0 Z " fill="#0F0A0F" transform="translate(168,689)"/>
<path d="M0 0 C0 3.63 0 7.26 0 11 C4.29 11 8.58 11 13 11 C13 11.33 13 11.66 13 12 C8.05 12 3.1 12 -2 12 C-2.66 8.37 -3.32 4.74 -4 1 C-1 0 -1 0 0 0 Z " fill="#1F1110" transform="translate(302,659)"/>
<path d="M0 0 C0.33 0 0.66 0 1 0 C1.50812114 2.51943396 2.00664534 5.04016873 2.5 7.5625 C2.64308594 8.26697266 2.78617187 8.97144531 2.93359375 9.69726562 C3.80874925 14.21890238 4.14523405 18.39487028 4 23 C2.10705142 19.6338436 1.23447973 16.31729781 0.375 12.5625 C0.11460938 11.45003906 -0.14578125 10.33757813 -0.4140625 9.19140625 C-0.93581514 6.34959351 -1.19835319 3.8761213 -1 1 C-0.67 0.67 -0.34 0.34 0 0 Z " fill="#110A0F" transform="translate(118,633)"/>
<path d="M0 0 C0.99 0.495 0.99 0.495 2 1 C2 2.32 2 3.64 2 5 C2.66 5 3.32 5 4 5 C4 6.32 4 7.64 4 9 C4.66 9.66 5.32 10.32 6 11 C5.9765625 13.1640625 5.9765625 13.1640625 5.625 15.625 C5.51414062 16.44226563 5.40328125 17.25953125 5.2890625 18.1015625 C5.19367188 18.72804688 5.09828125 19.35453125 5 20 C2.73155961 16.59733941 2.19810007 13.9907882 1.375 10 C0.98441406 8.14375 0.98441406 8.14375 0.5859375 6.25 C0 3 0 3 0 0 Z " fill="#0A080F" transform="translate(122,658)"/>
<path d="M0 0 C0.33 0.99 0.66 1.98 1 3 C1.99 2.67 2.98 2.34 4 2 C3.98839844 2.6290625 3.97679687 3.258125 3.96484375 3.90625 C3.90713127 9.38069088 4.19771527 14.58457806 5 20 C2.94550007 16.9182501 2.25524191 14.6904243 1.375 11.125 C0.98441406 9.58199219 0.98441406 9.58199219 0.5859375 8.0078125 C0.04698884 5.24120939 -0.11394368 2.80715804 0 0 Z " fill="#080811" transform="translate(180,648)"/>
<path d="M0 0 C0.66 0 1.32 0 2 0 C2 4.62 2 9.24 2 14 C2.66 14.33 3.32 14.66 4 15 C2.68 15.33 1.36 15.66 0 16 C0 10.72 0 5.44 0 0 Z " fill="#DA7502" transform="translate(240,659)"/>
<path d="M0 0 C1 2 1 2 0.36328125 3.953125 C-1.76614759 8.60778729 -4.0132272 12.83985217 -7 17 C-7.66 16.67 -8.32 16.34 -9 16 C-6.03 10.72 -3.06 5.44 0 0 Z " fill="#502CB5" transform="translate(644,327)"/>
<path d="M0 0 C0.99 0 1.98 0 3 0 C3 1.32 3 2.64 3 4 C2.34 4 1.68 4 1 4 C0.67 6.31 0.34 8.62 0 11 C-0.66 11 -1.32 11 -2 11 C-2.33 12.32 -2.66 13.64 -3 15 C-2.5547115 9.72684667 -1.91626837 4.98229776 0 0 Z " fill="#0B0A10" transform="translate(212,700)"/>
<path d="M0 0 C1.1484375 1.671875 1.1484375 1.671875 2 4 C1.1015625 6.578125 1.1015625 6.578125 -0.375 9.25 C-1.09816406 10.58804687 -1.09816406 10.58804687 -1.8359375 11.953125 C-2.22007812 12.62859375 -2.60421875 13.3040625 -3 14 C-4.1484375 12.328125 -4.1484375 12.328125 -5 10 C-4.1015625 7.421875 -4.1015625 7.421875 -2.625 4.75 C-2.14289062 3.85796875 -1.66078125 2.9659375 -1.1640625 2.046875 C-0.77992188 1.37140625 -0.39578125 0.6959375 0 0 Z " fill="#AD9C0C" transform="translate(541,405)"/>
<path d="M0 0 C3.82601624 4.23594655 5.86362904 8.78407302 8 14 C7.34 14 6.68 14 6 14 C6 13.34 6 12.68 6 12 C5.34 11.67 4.68 11.34 4 11 C3.34 10.01 2.68 9.02 2 8 C1.01 8.495 1.01 8.495 0 9 C-1.125 3.375 -1.125 3.375 0 0 Z " fill="#146071" transform="translate(545,212)"/>
<path d="M0 0 C0.66 0.33 1.32 0.66 2 1 C-1 10 -1 10 -3 11 C-3.66 11.99 -4.32 12.98 -5 14 C-6 11 -6 11 -4.78515625 8.30078125 C-4.21667969 7.31464844 -3.64820313 6.32851563 -3.0625 5.3125 C-2.49660156 4.31863281 -1.93070313 3.32476562 -1.34765625 2.30078125 C-0.90292969 1.54152344 -0.45820312 0.78226563 0 0 Z " fill="#21231F" transform="translate(757,254)"/>
<path d="M0 0 C2.93814003 1.46907001 3.3286226 3.59447806 4.625 6.5625 C5.07101562 7.57441406 5.51703125 8.58632812 5.9765625 9.62890625 C6.31429688 10.41136719 6.65203125 11.19382813 7 12 C7.66 12 8.32 12 9 12 C9.66 13.65 10.32 15.3 11 17 C7.51870262 16.04516375 6.22785781 15.34351666 4.19921875 12.28515625 C3.70035156 11.22167969 3.20148438 10.15820312 2.6875 9.0625 C2.17574219 8.00160156 1.66398438 6.94070312 1.13671875 5.84765625 C0 3 0 3 0 0 Z " fill="#F48102" transform="translate(253,226)"/>
<path d="M0 0 C0.99920411 3.13225686 0.96338325 5.19332049 0.1875 8.375 C-0.00199219 9.15488281 -0.19148437 9.93476562 -0.38671875 10.73828125 C-1.14498196 13.5346787 -2.02116082 16.2732337 -3 19 C-3.66 19 -4.32 19 -5 19 C-4.35720991 16.20760027 -3.71091335 13.41609416 -3.0625 10.625 C-2.88009766 9.8309375 -2.69769531 9.036875 -2.50976562 8.21875 C-2.33251953 7.45820312 -2.15527344 6.69765625 -1.97265625 5.9140625 C-1.81031494 5.2123291 -1.64797363 4.5105957 -1.48071289 3.78759766 C-1 2 -1 2 0 0 Z " fill="#0B080F" transform="translate(153,690)"/>
<path d="M0 0 C2.31 0 4.62 0 7 0 C7.33 0.99 7.66 1.98 8 3 C7.01 4.485 7.01 4.485 6 6 C5.67 5.34 5.34 4.68 5 4 C3.02 4.99 3.02 4.99 1 6 C0.67 4.02 0.34 2.04 0 0 Z " fill="#821D62" transform="translate(440,392)"/>
<path d="M0 0 C2.01761744 3.02642617 3.05339709 5.5048508 4 9 C3.67 9.99 3.34 10.98 3 12 C3.66 12 4.32 12 5 12 C4.67 14.31 4.34 16.62 4 19 C2.37893452 16.05075061 1.51556732 13.36193006 0.875 10.0625 C0.62363281 8.81146484 0.62363281 8.81146484 0.3671875 7.53515625 C-0.00211177 4.98541981 -0.06442528 2.57240933 0 0 Z " fill="#091109" transform="translate(540,686)"/>
<path d="M0 0 C2.35119399 3.52679099 2.21443452 5.02879485 2.125 9.1875 C2.10695313 10.27417969 2.08890625 11.36085938 2.0703125 12.48046875 C2.03550781 13.72763672 2.03550781 13.72763672 2 15 C-0.1694867 11.74576996 -0.38021471 10.19339748 -0.6875 6.375 C-0.77386719 5.39273437 -0.86023438 4.41046875 -0.94921875 3.3984375 C-0.96597656 2.60695313 -0.98273437 1.81546875 -1 1 C-0.67 0.67 -0.34 0.34 0 0 Z " fill="#9E9008" transform="translate(542,391)"/>
<path d="M0 0 C2.67550292 2.67550292 2.83209389 4.94879894 3.625 8.625 C4.01558594 10.40777344 4.01558594 10.40777344 4.4140625 12.2265625 C4.70410156 13.59941406 4.70410156 13.59941406 5 15 C4.01 15.495 4.01 15.495 3 16 C2.49193553 14.27318563 1.99389533 12.54342021 1.5 10.8125 C1.08234375 9.36810547 1.08234375 9.36810547 0.65625 7.89453125 C0.03322392 5.14654124 -0.12302812 2.80401584 0 0 Z " fill="#100A0E" transform="translate(174,708)"/>
<path d="M0 0 C2.64 0.33 5.28 0.66 8 1 C8 1.66 8 2.32 8 3 C9.32 2.67 10.64 2.34 12 2 C11.67 2.99 11.34 3.98 11 5 C10.34 5 9.68 5 9 5 C9 5.66 9 6.32 9 7 C8.34 7 7.68 7 7 7 C6.67 5.35 6.34 3.7 6 2 C4.35 2 2.7 2 1 2 C0.67 1.34 0.34 0.68 0 0 Z " fill="#0D0A0F" transform="translate(108,623)"/>
<path d="M0 0 C-0.33 2.31 -0.66 4.62 -1 7 C-1.66 7 -2.32 7 -3 7 C-3.66 7.66 -4.32 8.32 -5 9 C-5.6875 7.25 -5.6875 7.25 -6 5 C-3 0 -3 0 0 0 Z " fill="#C2B008" transform="translate(519,448)"/>
<path d="M0 0 C0.66 0 1.32 0 2 0 C2.2295711 3.36704285 2.33943529 5.41370268 0.625 8.375 C0.08875 8.91125 -0.4475 9.4475 -1 10 C-1.66 10 -2.32 10 -3 10 C-4 7 -4 7 -3.22265625 5.17578125 C-2.1484375 3.45052083 -1.07421875 1.72526042 0 0 Z " fill="#4A24A2" transform="translate(630,353)"/>
<path d="M0 0 C1.25348607 2.95106435 1.01044806 3.97406463 -0.21484375 7.015625 C-1.06755859 8.61664063 -1.06755859 8.61664063 -1.9375 10.25 C-2.50339844 11.32765625 -3.06929687 12.4053125 -3.65234375 13.515625 C-4.09707031 14.33546875 -4.54179688 15.1553125 -5 16 C-5.33 14.68 -5.66 13.36 -6 12 C-5.34 12 -4.68 12 -4 12 C-3.67 10.02 -3.34 8.04 -3 6 C-2.34 6 -1.68 6 -1 6 C-1.020625 5.195625 -1.04125 4.39125 -1.0625 3.5625 C-1 1 -1 1 0 0 Z " fill="#6C3BD1" transform="translate(764,235)"/>
<path d="M0 0 C1.3805087 3.76668598 0.59568159 6.44789173 -0.4375 10.25 C-0.72496094 11.32765625 -1.01242188 12.4053125 -1.30859375 13.515625 C-1.53675781 14.33546875 -1.76492187 15.1553125 -2 16 C-2.94314127 12.58389775 -3.08065117 9.54865136 -3 6 C-2.34 6 -1.68 6 -1 6 C-0.67 4.02 -0.34 2.04 0 0 Z " fill="#0E0A10" transform="translate(200,660)"/>
<path d="M0 0 C4.33034194 3.84919283 6.6560756 7.72289646 9 13 C8.34 13 7.68 13 7 13 C4 8.61538462 4 8.61538462 4 6 C2.68 6.33 1.36 6.66 0 7 C0 4.69 0 2.38 0 0 Z " fill="#32248E" transform="translate(545,401)"/>
<path d="M0 0 C0.66 0.33 1.32 0.66 2 1 C1.38461538 6.53846154 1.38461538 6.53846154 -0.5625 8.875 C-1.036875 9.24625 -1.51125 9.6175 -2 10 C-3 7 -3 7 -2 4 C-1.34 4 -0.68 4 0 4 C0 2.68 0 1.36 0 0 Z " fill="#BDAE0C" transform="translate(523,437)"/>
<path d="M0 0 C0.33 0.66 0.66 1.32 1 2 C-0.46615298 5.77010767 -2.13404221 9.41161963 -4 13 C-4.66 13 -5.32 13 -6 13 C-4.58707905 8.1725201 -2.57025846 4.2837641 0 0 Z " fill="#0B0C1B" transform="translate(434,420)"/>
<path d="M0 0 C0.33 0.66 0.66 1.32 1 2 C0.2884375 3.3921875 0.2884375 3.3921875 -0.4375 4.8125 C-1.98078978 7.96081114 -2.30199784 9.57735783 -2 13 C-2.99 12.67 -3.98 12.34 -5 12 C-4.52389341 7.00088076 -2.96837781 4.02167317 0 0 Z " fill="#28199B" transform="translate(516,457)"/>
<path d="M0 0 C0.33 0.66 0.66 1.32 1 2 C-0.21484375 4.6015625 -0.21484375 4.6015625 -1.9375 7.625 C-2.50339844 8.62789063 -3.06929688 9.63078125 -3.65234375 10.6640625 C-4.09707031 11.43492187 -4.54179687 12.20578125 -5 13 C-5.66 12.67 -6.32 12.34 -7 12 C-6.00025127 9.00075382 -4.8948856 7.47792733 -3 5 C-1.98343919 3.34338239 -0.97934924 1.67888441 0 0 Z " fill="#0F120F" transform="translate(402,346)"/>
<path d="M0 0 C0.99 0.33 1.98 0.66 3 1 C1.35 4.3 -0.3 7.6 -2 11 C-2.66 9.68 -3.32 8.36 -4 7 C-3.34 6.34 -2.68 5.68 -2 5 C-1.29289322 3.35008418 -0.62056011 1.68437744 0 0 Z " fill="#232523" transform="translate(711,193)"/>
<path d="M0 0 C0.66 0 1.32 0 2 0 C2 2.64 2 5.28 2 8 C1.34 8 0.68 8 0 8 C-2 5 -2 5 -2 2 C-1.34 1.34 -0.68 0.68 0 0 Z " fill="#28120E" transform="translate(278,724)"/>
<path d="M0 0 C1.32 0 2.64 0 4 0 C4.33 4.62 4.66 9.24 5 14 C4.01 14.495 4.01 14.495 3 15 C2.34 14.34 1.68 13.68 1 13 C1.33 12.67 1.66 12.34 2 12 C2.23363881 10.15108054 2.41303635 8.29511969 2.5625 6.4375 C2.64628906 5.42558594 2.73007812 4.41367187 2.81640625 3.37109375 C2.87699219 2.58863281 2.93757813 1.80617188 3 1 C2.01 0.67 1.02 0.34 0 0 Z " fill="#1F1610" transform="translate(272,698)"/>
<path d="M0 0 C0.66 0.33 1.32 0.66 2 1 C1.71125 1.53625 1.4225 2.0725 1.125 2.625 C-0.16711808 5.35280484 -1.08558592 8.12612718 -2 11 C-2.99 10.67 -3.98 10.34 -5 10 C-3.35 6.7 -1.7 3.4 0 0 Z " fill="#841864" transform="translate(402,348)"/>
<path d="M0 0 C0.66 0.33 1.32 0.66 2 1 C2.6328125 3.50390625 2.6328125 3.50390625 3.125 6.5625 C3.29257812 7.57441406 3.46015625 8.58632813 3.6328125 9.62890625 C3.75398437 10.41136719 3.87515625 11.19382812 4 12 C1.53401431 9.53401431 0.34805991 7.20966645 -1 4 C-0.6875 1.625 -0.6875 1.625 0 0 Z " fill="#121222" transform="translate(541,384)"/>
<path d="M0 0 C4 2 4 2 5.25 4.625 C5.4975 5.40875 5.745 6.1925 6 7 C5.34 7.66 4.68 8.32 4 9 C2.68 6.03 1.36 3.06 0 0 Z " fill="#3E2A9F" transform="translate(518,481)"/>
<path d="M0 0 C3 1 3 1 4.16796875 3.06640625 C4.50441406 3.89011719 4.84085938 4.71382813 5.1875 5.5625 C5.53167969 6.38878906 5.87585938 7.21507812 6.23046875 8.06640625 C6.48441406 8.70449219 6.73835937 9.34257812 7 10 C4 9 4 9 2.83203125 6.93359375 C2.49558594 6.10988281 2.15914062 5.28617187 1.8125 4.4375 C1.46832031 3.61121094 1.12414062 2.78492188 0.76953125 1.93359375 C0.51558594 1.29550781 0.26164063 0.65742188 0 0 Z " fill="#38269C" transform="translate(553,415)"/>
<path d="M0 0 C1.32 0.99 2.64 1.98 4 3 C2.35 4.65 0.7 6.3 -1 8 C-1.125 2.25 -1.125 2.25 0 0 Z " fill="#DD6701" transform="translate(393,358)"/>
<path d="M0 0 C-3.3340947 2.19097652 -6.04179141 3.43454163 -10 4 C-4.75 -1.425 -4.75 -1.425 0 0 Z " fill="#763EDF" transform="translate(731,181)"/>
<path d="M0 0 C0.33 0.66 0.66 1.32 1 2 C1.66 2 2.32 2 3 2 C3.33 1.34 3.66 0.68 4 0 C4.33 1.32 4.66 2.64 5 4 C3.02 4.66 1.04 5.32 -1 6 C-0.67 4.02 -0.34 2.04 0 0 Z " fill="#0C120C" transform="translate(571,667)"/>
<path d="M0 0 C2.5654594 2.5654594 2.54046087 4.47686668 3 8 C2.01 8 1.02 8 0 8 C-1.125 2.25 -1.125 2.25 0 0 Z " fill="#1C0E0C" transform="translate(161,659)"/>
<path d="M0 0 C2.4294516 3.6441774 2.16179575 5.71241272 2 10 C0.68 9.67 -0.64 9.34 -2 9 C-1.34 6.03 -0.68 3.06 0 0 Z " fill="#322585" transform="translate(534,423)"/>
<path d="M0 0 C1.67542976 0.28604898 3.34385343 0.61781233 5 1 C4.34 2.32 3.68 3.64 3 5 C2.01 4.67 1.02 4.34 0 4 C-0.33 3.01 -0.66 2.02 -1 1 C-0.67 0.67 -0.34 0.34 0 0 Z " fill="#42259F" transform="translate(662,424)"/>
<path d="M0 0 C-0.33 0.99 -0.66 1.98 -1 3 C-4.0625 4.1875 -4.0625 4.1875 -7 5 C-7 4.01 -7 3.02 -7 2 C-2.25 0 -2.25 0 0 0 Z " fill="#B1A102" transform="translate(501,374)"/>
<path d="M0 0 C0.66 0 1.32 0 2 0 C2 2.31 2 4.62 2 7 C1.01 7.495 1.01 7.495 0 8 C-1.125 2.25 -1.125 2.25 0 0 Z " fill="#110E10" transform="translate(206,722)"/>
<path d="M0 0 C2 3.75 2 3.75 2 6 C1.34 6 0.68 6 0 6 C-0.33 7.32 -0.66 8.64 -1 10 C-2.31223496 6.06329512 -1.24296256 3.87511856 0 0 Z " fill="#251410" transform="translate(217,679)"/>
<path d="M0 0 C0.33 0 0.66 0 1 0 C0.88637738 1.4800841 0.75877092 2.95910074 0.625 4.4375 C0.52058594 5.67306641 0.52058594 5.67306641 0.4140625 6.93359375 C0.27742187 7.61550781 0.14078125 8.29742188 0 9 C-0.99 9.495 -0.99 9.495 -2 10 C-2.17942163 6.05272412 -2.09350689 3.4019487 0 0 Z " fill="#0B060F" transform="translate(142,655)"/>
<path d="M0 0 C0.66 0 1.32 0 2 0 C1.67 2.64 1.34 5.28 1 8 C0.01 7.34 -0.98 6.68 -2 6 C-1.34 4.02 -0.68 2.04 0 0 Z " fill="#1E100F" transform="translate(206,631)"/>
<path d="M0 0 C2.15377564 2.62198774 3.40072174 4.64404172 4 8 C3.01 8 2.02 8 1 8 C0.67 5.36 0.34 2.72 0 0 Z " fill="#1C9C96" transform="translate(658,423)"/>
<path d="M0 0 C0.99 0.33 1.98 0.66 3 1 C2.01 2.98 1.02 4.96 0 7 C-0.66 6.67 -1.32 6.34 -2 6 C-1.34 4.02 -0.68 2.04 0 0 Z " fill="#412699" transform="translate(668,418)"/>
<path d="M0 0 C0.66 0.99 1.32 1.98 2 3 C1.01 4.98 0.02 6.96 -1 9 C-1.66 8.34 -2.32 7.68 -3 7 C-2.01 4.69 -1.02 2.38 0 0 Z " fill="#4B2CA7" transform="translate(685,386)"/>
<path d="M0 0 C2.08954032 4.17908064 2.16552619 4.80410573 1 9 C0.34 9 -0.32 9 -1 9 C-0.67 6.03 -0.34 3.06 0 0 Z " fill="#242426" transform="translate(785,191)"/>
</svg>
