<?xml version="1.0" encoding="UTF-8"?>
<svg version="1.1" xmlns="http://www.w3.org/2000/svg" width="1024" height="1024">
<path d="M0 0 C337.92 0 675.84 0 1024 0 C1024 337.92 1024 675.84 1024 1024 C686.08 1024 348.16 1024 0 1024 C0 686.08 0 348.16 0 0 Z " fill="#191919" transform="translate(0,0)"/>
<path d="M0 0 C13.42791507 -0.20908208 25.65341204 2.9673686 35.85644531 12.09936523 C40.9689302 17.20229407 45.08582083 21.69342933 45.41894531 29.16186523 C45.05822951 47.73872914 32.61313052 67.83440731 23.51098633 83.55371094 C19.87845916 89.89453116 16.6547803 96.42425361 13.41894531 102.97436523 C8.19375422 113.53283396 2.68705036 123.86541334 -3.14355469 134.09936523 C-11.88917304 149.45168659 -19.92500875 165.15161041 -27.97851562 180.8737793 C-31.29568803 187.34928193 -34.62043373 193.82084568 -37.95605469 200.28686523 C-38.42436203 201.19532196 -38.42436203 201.19532196 -38.90213013 202.12213135 C-42.74724506 209.57390447 -46.69315068 216.95848369 -50.76855469 224.28686523 C-57.73568638 236.84457303 -64.03586851 249.74731817 -70.40771484 262.61376953 C-75.07915308 272.03658976 -79.83855228 281.39989092 -84.76239014 290.693573 C-87.60360285 296.05795435 -90.35291216 301.45795071 -93.01855469 306.91186523 C-99.13605808 319.272271 -105.73926107 331.38228159 -112.56542969 343.36499023 C-118.06311395 353.04880462 -123.08400526 362.93279625 -128.01855469 372.91186523 C-132.97004714 382.92263538 -138.0570858 392.77483077 -143.69897461 402.41967773 C-147.73932838 409.33230468 -151.55519452 416.35159645 -155.33105469 423.41186523 C-159.35327978 430.92452695 -163.39270135 438.41939954 -167.59912109 445.83056641 C-171.00817574 451.83888883 -174.35776235 457.87983721 -177.70678711 463.92175293 C-183.11957058 473.6860546 -188.55256308 483.43570243 -194.14355469 493.09936523 C-195.13355469 493.09936523 -196.12355469 493.09936523 -197.14355469 493.09936523 C-198.73071289 491.01757812 -198.73071289 491.01757812 -200.44433594 488.07202148 C-201.0845166 486.98284424 -201.72469727 485.89366699 -202.38427734 484.77148438 C-203.07540366 483.56858457 -203.7659816 482.36536956 -204.45605469 481.16186523 C-205.1746475 479.92508047 -205.89389419 478.68867542 -206.61376953 477.45263672 C-208.45540931 474.28185559 -210.28118557 471.10225101 -212.10150146 467.91918945 C-213.07631645 466.21678896 -214.05627997 464.51733947 -215.03662109 462.81811523 C-222.49519713 449.87439083 -229.42533249 436.72201473 -236.03686523 423.33007812 C-240.48275956 414.34427883 -245.18247466 405.53332085 -250.03027344 396.75952148 C-253.22663735 390.9732306 -256.33903028 385.14338541 -259.44833374 379.30996704 C-265.29409296 368.34414338 -271.25164108 357.44634871 -277.28445435 346.58242798 C-282.49887726 337.18306537 -287.5080241 327.69034815 -292.42138672 318.12988281 C-296.5059101 310.22315068 -300.84527742 302.48604101 -305.26708984 294.76416016 C-309.83940086 286.73750463 -314.11135765 278.57399473 -318.34106445 270.36279297 C-322.78334062 261.75024401 -327.39237819 253.23931811 -332.05371094 244.74389648 C-336.59414448 236.46668468 -341.0532216 228.14562097 -345.52246094 219.82983398 C-347.71248573 215.75527154 -349.90791229 211.68373144 -352.11114502 207.61630249 C-353.09484146 205.80017575 -354.07758461 203.98353635 -355.06005859 202.16674805 C-356.3013579 199.87211852 -357.54445337 197.57845951 -358.78955078 195.28588867 C-359.62413818 193.74143066 -359.62413818 193.74143066 -360.47558594 192.16577148 C-360.96776611 191.25770752 -361.45994629 190.34964355 -361.96704102 189.4140625 C-363.14355469 187.09936523 -363.14355469 187.09936523 -364.14355469 184.09936523 C-363.17822266 181.73706055 -363.17822266 181.73706055 -361.63574219 178.92749023 C-360.78423584 177.3607959 -360.78423584 177.3607959 -359.91552734 175.76245117 C-359.28952637 174.63613281 -358.66352539 173.50981445 -358.01855469 172.34936523 C-357.37116643 171.16780486 -356.72452878 169.98583292 -356.07861328 168.8034668 C-351.5358461 160.51252656 -346.8704274 152.29094443 -342.1887207 144.07788086 C-335.53543448 132.35413454 -329.2510241 120.43220781 -322.95166016 108.51586914 C-321.34594844 105.48179816 -319.73296437 102.45178014 -318.11621094 99.42358398 C-313.93329688 91.56721823 -309.90841848 83.70847657 -306.29980469 75.56811523 C-305.14355469 73.09936523 -305.14355469 73.09936523 -303.14355469 70.09936523 C-302.69141602 71.04440918 -302.23927734 71.98945313 -301.7734375 72.96313477 C-293.45540642 90.32558442 -285.05851808 107.5678745 -275.65332031 124.3737793 C-272.77888434 129.56301008 -270.00319918 134.8057076 -267.20605469 140.03686523 C-262.8502264 148.16049093 -258.40418058 156.22121698 -253.83105469 164.22436523 C-246.72496966 176.67997495 -240.04740942 189.35596608 -233.35072327 202.03436279 C-224.47709295 218.83067533 -215.54487454 235.59121612 -206.14355469 252.09936523 C-204.46948017 255.09528583 -202.80386114 258.09579576 -201.14355469 261.09936523 C-191.21122372 243.76489059 -181.77167912 226.14690185 -172.64355469 208.37670898 C-172.2674707 207.64460709 -171.89138672 206.91250519 -171.50390625 206.15821838 C-169.67682218 202.59766175 -167.85555334 199.03425976 -166.04199219 195.46679688 C-162.43669995 188.39716204 -158.68410335 181.47768135 -154.63574219 174.6472168 C-152.8270418 171.5589319 -151.21637636 168.43939776 -149.64355469 165.22436523 C-148.9746134 163.86873382 -148.30530789 162.5132821 -147.63574219 161.15795898 C-147.25514648 160.38436035 -146.87455078 159.61076172 -146.48242188 158.8137207 C-143.59618823 152.96230829 -140.68277492 147.12437699 -137.76855469 141.28686523 C-137.43977325 140.62820465 -137.11099182 139.96954407 -136.77224731 139.29092407 C-132.19824176 130.1346412 -127.53723453 121.03193993 -122.73339844 111.99389648 C-119.49003587 105.8867001 -116.32116862 99.7409435 -113.14355469 93.59936523 C-104.82699064 77.544394 -96.42497559 61.55018109 -87.75976562 45.68017578 C-84.80723553 40.25211011 -81.98930585 34.80183741 -79.33105469 29.22436523 C-73.68249935 17.77421488 -65.30273463 7.90719309 -53.41699219 2.82592773 C-47.73165841 1.00896539 -41.99050576 0.90311599 -36.08105469 0.78295898 C-34.7785376 0.75178734 -34.7785376 0.75178734 -33.44970703 0.71998596 C-31.61414114 0.67687492 -29.77852606 0.63581499 -27.94287109 0.59667969 C-25.18021444 0.53764856 -22.41776157 0.4724142 -19.65527344 0.40600586 C-15.27344486 0.30311926 -10.89154909 0.21711623 -6.50915527 0.14230347 C-4.33916433 0.10291576 -2.1697143 0.05205642 0 0 Z " fill="#42309A" transform="translate(876.1435546875,172.900634765625)"/>
<path d="M0 0 C1.20540436 -0.0127597 2.41080872 -0.02551941 3.65274048 -0.03866577 C4.94860077 -0.04089142 6.24446106 -0.04311707 7.57958984 -0.04541016 C8.93614845 -0.0518464 10.2927057 -0.05857536 11.64926147 -0.06558228 C14.49211843 -0.07754018 17.33485406 -0.081265 20.17773438 -0.08007812 C23.79206819 -0.07987581 27.40560794 -0.10709216 31.01975441 -0.14162254 C33.82363333 -0.16404888 36.62732651 -0.1679108 39.43128586 -0.16685867 C41.40246173 -0.17031866 43.37357961 -0.19189301 45.34463501 -0.21395874 C57.90677286 -0.15082307 68.76309583 3.31659743 77.89221191 12.21788025 C82.84363491 17.63682641 86.27849849 23.07076445 89.44677734 29.66943359 C89.92699341 30.63977036 90.40720947 31.61010712 90.90197754 32.60984802 C92.41993177 35.68451347 93.91810549 38.76831895 95.41552734 41.85302734 C96.4181126 43.89339052 97.42200976 45.93310961 98.42724609 47.97216797 C100.37571107 51.92886311 102.317655 55.88863805 104.25341797 59.8515625 C109.82236629 71.24406092 115.53030113 82.55773756 121.41552734 93.79052734 C124.96960747 100.59777005 128.5099813 107.40764267 131.91552734 114.29052734 C142.06715502 134.76243245 152.75719811 154.99765327 164.07568359 174.84912109 C172.78190512 190.15112135 180.8738868 205.71943714 188.85020447 221.41090393 C195.85522686 235.18810682 202.98078813 248.89877391 210.47802734 262.41552734 C214.91501951 270.46323129 219.14284685 278.60427698 223.31201172 286.79248047 C238.73591468 318.49451444 238.73591468 318.49451444 267.35302734 337.66552734 C275.5831586 339.10941002 283.49457372 339.43245495 290.91552734 335.29052734 C289.45744834 339.11347498 287.73777141 342.71448583 285.86083984 346.34912109 C285.56363037 346.92544281 285.2664209 347.50176453 284.96020508 348.09555054 C283.98976759 349.97450075 283.01545361 351.85140271 282.04052734 353.72802734 C281.70406189 354.37734222 281.36759644 355.0266571 281.02093506 355.69564819 C276.32685356 364.75070165 271.54187701 373.74874837 266.61938477 382.68212891 C262.86722065 389.50379332 259.21460136 396.37429097 255.58105469 403.25952148 C231.02487169 449.78458115 231.02487169 449.78458115 221.16552734 454.35302734 C209.81267215 457.62788942 198.49593693 457.40912395 187.76708984 452.25927734 C177.46066005 446.4150183 172.51149779 436.50159525 167.08496094 426.44384766 C165.98058027 424.41031164 164.8544961 422.39123417 163.71630859 420.37646484 C152.90837469 401.21705168 142.73888392 381.6865621 132.60302734 362.16552734 C127.86651465 353.04614023 122.98029627 344.01595688 118.04052734 335.00537109 C112.87289894 325.57346558 107.79845703 316.09107195 102.70654297 306.61816406 C100.92056597 303.29988891 99.12973917 299.9842773 97.33740234 296.66943359 C88.02077662 279.43079457 78.89803452 262.10281223 69.98974609 244.64990234 C59.19522368 223.50471164 48.28263816 202.46134576 36.81787109 181.66943359 C35.80813548 179.83513991 34.79901389 178.00050806 33.79052734 176.16552734 C33.30181152 175.27639648 32.8130957 174.38726562 32.30957031 173.47119141 C28.6962717 166.84540872 25.31156452 160.12313334 21.97802734 153.35302734 C17.56135471 144.38912227 12.8231921 135.67566565 7.84594727 127.01220703 C3.21980248 118.92559283 -1.09392529 110.69886203 -5.34765625 102.41137695 C-8.22940748 96.81029414 -11.18774148 91.27562056 -14.29711914 85.79785156 C-19.24225628 77.07029717 -23.5682477 68.13905583 -27.64697266 58.97802734 C-28.1601001 57.82641113 -28.67322754 56.67479492 -29.2019043 55.48828125 C-34.17829823 44.11678091 -37.39370382 33.9938614 -33.70947266 21.60302734 C-30.00323374 12.55928237 -22.01896006 7.23386947 -13.40869141 3.26318359 C-12.64169922 2.94220703 -11.87470703 2.62123047 -11.08447266 2.29052734 C-10.33702789 1.94645844 -9.58958313 1.60238953 -8.81948853 1.24789429 C-5.72310524 0.16403403 -3.27696676 0.0236319 0 0 Z " fill="#F27400" transform="translate(138.08447265625,172.70947265625)"/>
<path d="M0 0 C2.64165713 3.24403613 4.37132121 6.62021904 6.15234375 10.3984375 C6.7635439 11.6841002 7.37496238 12.96965912 7.98657227 14.25512695 C8.46333908 15.26284653 8.46333908 15.26284653 8.94973755 16.29092407 C15.05287721 29.16791331 21.51388796 41.76364461 28.45800781 54.20996094 C31.33910535 59.42294109 34.12865416 64.68535888 36.9375 69.9375 C41.29339578 78.06109099 45.739373 86.12184981 50.3125 94.125 C57.41858503 106.58060971 64.09614527 119.25660084 70.79283142 131.93499756 C85.32291123 159.80830945 85.32291123 159.80830945 101.0625 187 C103.80042156 191.51868355 106.15002181 196.20142829 108.4855957 200.93505859 C116.42764885 217.00186683 124.76299725 232.87718309 133.3918457 248.58496094 C137.45809071 255.98786955 141.45617859 263.42619874 145.4375 270.875 C150.35626381 280.0726448 155.28780463 289.26318397 160.25 298.4375 C160.78681396 299.43185059 161.32362793 300.42620117 161.87670898 301.45068359 C162.37630127 302.37316895 162.87589355 303.2956543 163.390625 304.24609375 C163.82407227 305.04716553 164.25751953 305.8482373 164.70410156 306.67358398 C165.99217195 309.07591178 165.99217195 309.07591178 167.72558594 311.48461914 C169 314 169 314 168.8269043 316.55200195 C168.0096238 318.97150934 167.0715994 320.97405198 165.76953125 323.16796875 C165.30329346 323.96565674 164.83705566 324.76334473 164.35668945 325.58520508 C163.59231567 326.87334106 163.59231567 326.87334106 162.8125 328.1875 C157.9795004 336.47778914 153.33560545 344.84920154 148.8125 353.3125 C144.79050553 360.82528213 140.75085041 368.32003946 136.54443359 375.73120117 C133.13537894 381.7395236 129.78579233 387.78047198 126.43676758 393.8223877 C121.02398411 403.58668937 115.5909916 413.3363372 110 423 C109.01 423 108.02 423 107 423 C105.4128418 420.91821289 105.4128418 420.91821289 103.69921875 417.97265625 C103.05903809 416.883479 102.41885742 415.79430176 101.75927734 414.67211914 C101.06815103 413.46921934 100.37757309 412.26600432 99.6875 411.0625 C98.96890719 409.82571524 98.2496605 408.58931018 97.52978516 407.35327148 C95.68814537 404.18249036 93.86236912 401.00288578 92.04205322 397.81982422 C91.06723823 396.11742372 90.08727472 394.41797423 89.10693359 392.71875 C81.64835755 379.7750256 74.7182222 366.6226495 68.10668945 353.23071289 C63.66079513 344.2449136 58.96108003 335.43395562 54.11328125 326.66015625 C50.91691734 320.87386536 47.80452441 315.04402018 44.69522095 309.21060181 C38.84946173 298.24477814 32.89191361 287.34698347 26.85910034 276.48306274 C21.64467743 267.08370014 16.63553059 257.59098291 11.72216797 248.03051758 C7.63764458 240.12378545 3.29827727 232.38667578 -1.12353516 224.66479492 C-5.69584617 216.6381394 -9.96780296 208.4746295 -14.19750977 200.26342773 C-18.63978593 191.65087878 -23.2488235 183.13995288 -27.91015625 174.64453125 C-32.45058979 166.36731944 -36.90966691 158.04625574 -41.37890625 149.73046875 C-43.56893105 145.65590631 -45.7643576 141.58436621 -47.96759033 137.51693726 C-48.95128677 135.70081051 -49.93402992 133.88417111 -50.91650391 132.06738281 C-52.15780322 129.77275329 -53.40089868 127.47909428 -54.64599609 125.18652344 C-55.2023877 124.15688477 -55.7587793 123.12724609 -56.33203125 122.06640625 C-56.82421143 121.15834229 -57.3163916 120.25027832 -57.82348633 119.31469727 C-59 117 -59 117 -60 114 C-59.03466797 111.63769531 -59.03466797 111.63769531 -57.4921875 108.828125 C-56.64068115 107.26143066 -56.64068115 107.26143066 -55.77197266 105.66308594 C-55.14597168 104.53676758 -54.5199707 103.41044922 -53.875 102.25 C-53.22761174 101.06843962 -52.58097409 99.88646769 -51.93505859 98.70410156 C-47.39229141 90.41316133 -42.72687271 82.1915792 -38.04516602 73.97851562 C-31.39187979 62.2547693 -25.10746942 50.33284258 -18.80810547 38.41650391 C-17.20239376 35.38243292 -15.58940968 32.3524149 -13.97265625 29.32421875 C-6.1634343 15.03025278 -6.1634343 15.03025278 0 0 Z " fill="#057F7A" transform="translate(572,243)"/>
<path d="M0 0 C12.4376593 10.71118535 24.29126812 29.383719 26.8359375 45.859375 C26.73588141 51.65050039 22.95549014 56.36796366 20 61.125 C18.70242613 63.27535408 17.40818552 65.42772284 16.1171875 67.58203125 C15.47749023 68.64631348 14.83779297 69.7105957 14.17871094 70.80712891 C11.6744857 75.06648114 9.37959695 79.41725353 7.125 83.8125 C4.15341973 89.57843149 1.04440069 95.20001526 -2.3125 100.75 C-7.33149767 109.07819351 -11.74047784 117.7077932 -16.17071533 126.35705566 C-20.54515137 134.89588917 -25.01713823 143.35313557 -29.79296875 151.67578125 C-31.40584009 154.49228793 -32.9644747 157.32839515 -34.5 160.1875 C-37.20674167 165.17478369 -40.03202963 170.08959229 -42.875 175 C-43.35267822 175.82540283 -43.83035645 176.65080566 -44.32250977 177.5012207 C-46.54332772 181.327557 -48.77736798 185.14371768 -51.06640625 188.9296875 C-56.21282149 197.47237594 -60.89689077 206.18174858 -65.4375 215.0625 C-70.25724351 224.48581696 -75.32907509 233.66654713 -80.7956543 242.72827148 C-84.81862954 249.42385693 -88.57111923 256.23506356 -92.25 263.125 C-113.15733475 302.12045636 -113.15733475 302.12045636 -132.5 308.1875 C-143.53428245 311.10624568 -153.22711286 310.79152849 -163.4140625 305.3984375 C-177.96332448 296.62078358 -185.64882343 283.64279522 -193.5 269.0625 C-194.05385376 268.04168335 -194.05385376 268.04168335 -194.61889648 267.00024414 C-199.74630513 257.23751648 -202.44251713 248.05382707 -199.9921875 237.02734375 C-197.12809679 228.46889945 -192.2274294 221.04788828 -187.47827148 213.43457031 C-182.56384777 205.53158596 -178.01174231 197.48179616 -173.5625 189.3125 C-168.26438344 179.59841132 -162.81727198 169.9978015 -157.14306641 160.49682617 C-152.5388031 152.77528795 -148.15496019 144.94606483 -143.83105469 137.06494141 C-142.59662531 134.82347754 -141.35091313 132.58864699 -140.1015625 130.35546875 C-136.00035931 123.02260881 -131.94165959 115.67005125 -128 108.25 C-127.67636475 107.642771 -127.35272949 107.03554199 -127.01928711 106.40991211 C-123.45862966 99.6648275 -120.08509881 92.82396335 -116.68341064 85.99786377 C-115.00031145 82.62205654 -113.3125042 79.24860677 -111.625 75.875 C-110.9583089 74.54167889 -110.29164227 73.20834553 -109.625 71.875 C-105.625 63.875 -105.625 63.875 -104.62446594 61.8739624 C-103.9595469 60.54410401 -103.29466029 59.2142294 -102.62980652 57.88433838 C-100.93667033 54.49770295 -99.24292615 51.11137384 -97.5480957 47.72558594 C-97.20667038 47.04328918 -96.86524506 46.36099243 -96.51347351 45.65802002 C-95.83427103 44.3007675 -95.15484073 42.94362896 -94.47517395 41.58660889 C-92.49806897 37.63526815 -90.54616251 33.67251691 -88.60546875 29.703125 C-83.12999417 18.6657058 -77.87940114 9.14935865 -68.625 0.875 C-67.86574219 0.18535156 -67.10648438 -0.50429688 -66.32421875 -1.21484375 C-45.83859356 -18.42567983 -20.34304005 -15.59633071 0 0 Z " fill="#B2B408" transform="translate(544.625,502.125)"/>
<path d="M0 0 C0.80566406 0.43054688 1.61132812 0.86109375 2.44140625 1.3046875 C12.58563619 7.03501586 19.83586115 14.13737784 26 24 C26.99 25.546875 26.99 25.546875 28 27.125 C30.19066618 33.42316527 27.93490029 38.52804758 25.19140625 44.2734375 C23.99466665 46.64853103 22.7863066 49.01409534 21.5625 51.375 C20.91797171 52.63882986 20.27409752 53.90299349 19.63085938 55.16748047 C15.46794495 63.31538685 11.1351968 71.35963701 6.625 79.3203125 C3.32323483 85.16288915 0.1702642 91.08539117 -3 97 C-6.9504648 104.36175025 -10.91950102 111.70945187 -15 119 C-18.97565547 126.10366345 -22.84106921 133.26312115 -26.6875 140.4375 C-36.79844321 159.27823819 -47.26513227 177.92042451 -57.72167969 196.57080078 C-65.42814661 210.32117196 -73.07481123 224.10499361 -80.7109375 237.89453125 C-85.24546221 246.07829014 -89.82503552 254.23488177 -94.4375 262.375 C-98.74367288 269.98057554 -103.02397012 277.59956156 -107.25 285.25 C-107.94887329 286.50949463 -107.94887329 286.50949463 -108.66186523 287.79443359 C-109.08798096 288.56867676 -109.51409668 289.34291992 -109.953125 290.140625 C-110.32598633 290.81641602 -110.69884766 291.49220703 -111.08300781 292.18847656 C-112.13102047 294.14919951 -112.13102047 294.14919951 -113 297 C-119.77328938 301.55894477 -125.98198141 301.90225963 -134 301 C-147.6950684 298.09966597 -158.7969973 290.39796561 -166.49072266 278.74145508 C-167.87290447 276.35784439 -169.16773119 273.9453252 -170.4375 271.5 C-170.9219458 270.58943848 -171.4063916 269.67887695 -171.90551758 268.74072266 C-173.29618561 266.11335572 -174.67289612 263.4792208 -176.04272461 260.84094238 C-177.08675624 258.83315852 -178.13583308 256.82806088 -179.18554688 254.82324219 C-181.5287948 250.34528676 -183.86007974 245.8611984 -186.1875 241.375 C-186.56929413 240.64095947 -186.95108826 239.90691895 -187.3444519 239.15063477 C-188.4361277 237.0481088 -189.52173343 234.94256518 -190.60546875 232.8359375 C-190.93407898 232.2045285 -191.26268921 231.57311951 -191.60125732 230.9225769 C-194.69238616 224.88185594 -194.69238616 224.88185594 -195 222 C-193.77089785 219.3697214 -192.48116329 216.98424372 -191 214.5 C-190.0703112 212.88691551 -189.14341559 211.27221918 -188.21875 209.65625 C-187.70570313 208.76292969 -187.19265625 207.86960937 -186.6640625 206.94921875 C-183.8461477 201.95502702 -181.16365963 196.88818644 -178.47128296 191.82562256 C-172.05387207 179.76346294 -165.50353597 167.78231608 -158.80419922 155.87451172 C-153.22302741 145.94868827 -147.84618324 135.93796764 -142.61083984 125.82519531 C-139.07954416 119.02041228 -135.44511281 112.27955771 -131.75 105.5625 C-128.39022117 99.44684516 -125.08831774 93.32004503 -122 87.0625 C-112.94054614 68.7067438 -103.27322743 50.70471914 -93 33 C-92.50580566 32.1440625 -92.01161133 31.288125 -91.50244141 30.40625 C-81.40745477 13.02100562 -70.80082137 -0.45382682 -51 -7 C-34.41696012 -10.62105322 -14.89672011 -8.17747015 0 0 Z " fill="#6F236B" transform="translate(543,211)"/>
<path d="M0 0 C3.24896396 2.71652087 4.83273309 6.276304 6.66796875 10 C7.39562957 11.4464735 8.12367328 12.89275444 8.85205078 14.33886719 C9.23266663 15.09921265 9.61328247 15.85955811 10.00543213 16.64294434 C17.84536394 32.27585014 26.33432125 47.30800577 35.37597656 62.27392578 C40.69434371 71.20129914 45.26619878 80.51609891 49.87011719 89.82446289 C53.14625542 96.39490502 56.71751892 102.78762125 60.3125 109.1875 C62.67367664 113.39595013 64.9742083 117.63515486 67.26708984 121.88110352 C72.05970108 130.74909128 77.00801456 139.50249192 82.125 148.1875 C88.07666104 158.29946648 93.67494959 168.54572848 99 179 C99.48750732 179.95229492 99.48750732 179.95229492 99.98486328 180.92382812 C105.66824678 192.04466507 108.08334562 202.02636984 105.19921875 214.44921875 C98.43374768 232.97870481 86.55395046 252.71062427 68.3125 261.4375 C57.52846454 266.26990661 46.02344871 266.49911335 34.95703125 262.39453125 C21.40081688 256.00144204 14.65503781 245.96661512 7.75 233.1875 C7.08158939 231.9657562 6.41230876 230.744488 5.7421875 229.52368164 C4.41845941 227.10977853 3.09870962 224.69378407 1.78320312 222.27539062 C-0.46095714 218.15331311 -2.72350611 214.04179316 -5 209.9375 C-5.57427734 208.90061035 -5.57427734 208.90061035 -6.16015625 207.84277344 C-10.41322139 200.19903177 -14.81416568 192.64044246 -19.20019531 185.07250977 C-23.4577449 177.7131982 -27.62685806 170.31026283 -31.75 162.875 C-38.1815242 151.28454437 -44.94309371 139.90107222 -51.78027344 128.54638672 C-52.17839233 127.8822879 -52.57651123 127.21818909 -52.98669434 126.53396606 C-53.73266567 125.28979272 -54.48157355 124.04737326 -55.23400879 122.80709839 C-57.13511742 119.63156694 -58.93008232 116.55449586 -60 113 C-59.09858525 110.46982205 -58.16696669 108.44575498 -56.875 106.125 C-56.51100098 105.43720459 -56.14700195 104.74940918 -55.77197266 104.04077148 C-54.96288241 102.51329092 -54.14656219 100.98962479 -53.32421875 99.46923828 C-51.94598811 96.89928535 -50.6096169 94.31089789 -49.28125 91.71484375 C-40.96882525 75.51128951 -32.34124795 59.4138818 -22.88671875 43.84375 C-20.11826695 39.26259975 -17.62781718 34.57451132 -15.1875 29.8125 C-11.64773992 22.9691901 -7.92014442 16.30751897 -3.7800293 9.80786133 C-1.74917178 6.55467242 -0.46544701 3.82382619 0 0 Z " fill="#007CB2" transform="translate(571,547)"/>
<path d="M0 0 C0.495 0.99 0.495 0.99 1 2 C0.39031953 3.68834592 -0.28837557 5.35202764 -1 7 C-1.309375 8.0725 -1.61875 9.145 -1.9375 10.25 C-2.4634375 11.61125 -2.4634375 11.61125 -3 13 C-3.99 13.33 -4.98 13.66 -6 14 C-6.72045764 15.9812585 -7.38001259 17.98504093 -8 20 C-9.5 22.875 -9.5 22.875 -11 25 C-11.66 25 -12.32 25 -13 25 C-12.67 26.32 -12.34 27.64 -12 29 C-12.66 29 -13.32 29 -14 29 C-15.50560497 31.85410334 -16.63216796 34.68124642 -17.625 37.75 C-17.88539063 38.54921875 -18.14578125 39.3484375 -18.4140625 40.171875 C-18.60742188 40.77515625 -18.80078125 41.3784375 -19 42 C-20.485 41.505 -20.485 41.505 -22 41 C-21.773125 41.598125 -21.54625 42.19625 -21.3125 42.8125 C-21 45 -21 45 -22.3125 46.75 C-24 48 -24 48 -26 48 C-26.12375 48.763125 -26.2475 49.52625 -26.375 50.3125 C-27 53 -27 53 -29 56 C-29.66 56 -30.32 56 -31 56 C-31.2475 56.99 -31.495 57.98 -31.75 59 C-32.77249076 62.62653196 -34.31218581 65.79729522 -36.09765625 69.10546875 C-38.29046741 73.70942292 -38.2157345 78.42188717 -38.25 83.4375 C-38.2809375 84.56381836 -38.2809375 84.56381836 -38.3125 85.71289062 C-38.34558612 90.41525476 -37.76437834 93.04470148 -35 97 C-34.8125 99.8125 -34.8125 99.8125 -35 102 C-34.0409375 102.37125 -34.0409375 102.37125 -33.0625 102.75 C-31 104 -31 104 -30.51953125 105.7890625 C-30.34808594 106.51867187 -30.17664063 107.24828125 -30 108 C-29.25718499 109.56578992 -28.46233272 111.10765161 -27.625 112.625 C-27.20476562 113.40101563 -26.78453125 114.17703125 -26.3515625 114.9765625 C-25.0036616 117.27474295 -25.0036616 117.27474295 -22 119 C-21.505 120.175625 -21.01 121.35125 -20.5 122.5625 C-20.005 123.696875 -19.51 124.83125 -19 126 C-17.515 126.495 -17.515 126.495 -16 127 C-16 127.99 -16 128.98 -16 130 C-15.34 130.33 -14.68 130.66 -14 131 C-13.34 131.99 -12.68 132.98 -12 134 C-10.08843449 135.21529063 -10.08843449 135.21529063 -7.9375 136.1875 C-6.86822266 136.70376953 -6.86822266 136.70376953 -5.77734375 137.23046875 C-4.16985083 138.06622074 -4.16985083 138.06622074 -3 138 C-2.113125 138.66 -1.22625 139.32 -0.3125 140 C3.24198099 142.14610173 4.94522088 142.38616944 9 142 C9 142.66 9 143.32 9 144 C26.03704729 141.25786324 26.03704729 141.25786324 42 135 C42 134.01 42 133.02 42 132 C42.66 132 43.32 132 44 132 C44 131.34 44 130.68 44 130 C44.66 130 45.32 130 46 130 C46.103125 129.360625 46.20625 128.72125 46.3125 128.0625 C46.539375 127.381875 46.76625 126.70125 47 126 C47.99 125.67 48.98 125.34 50 125 C49.67 123.35 49.34 121.7 49 120 C50.32 120 51.64 120 53 120 C53.33 117.03 53.66 114.06 54 111 C55.32 110.67 56.64 110.34 58 110 C58 109.34 58 108.68 58 108 C58.66 108 59.32 108 60 108 C60.28875 106.7625 60.5775 105.525 60.875 104.25 C62.07639287 99.48643525 63.4261978 96.4184195 67 93 C67.33 92.34 67.66 91.68 68 91 C68.66 91.33 69.32 91.66 70 92 C47.03473379 136.93420852 47.03473379 136.93420852 29.69921875 143.19140625 C18.71071554 146.63807338 8.75871935 147.66762901 -2 143 C-18.18308325 134.43248534 -26.46647551 120.80283717 -34.875 105.1875 C-35.42885376 104.16668335 -35.42885376 104.16668335 -35.99389648 103.12524414 C-41.12130513 93.36251648 -43.81751713 84.17882707 -41.3671875 73.15234375 C-38.50616017 64.60305341 -33.6142134 57.18690061 -28.86645508 49.58374023 C-23.07858107 40.28321513 -17.80260764 30.74362296 -12.59448242 21.11132812 C-8.66568764 13.8817409 -4.52367274 6.87409734 0 0 Z " fill="#E8D80E" transform="translate(386,666)"/>
<path d="M0 0 C0.99 0.33 1.98 0.66 3 1 C2.938125 2.2375 2.87625 3.475 2.8125 4.75 C2.79249663 8.5373051 3.51158348 10.0968474 6 13 C6 14.32 6 15.64 6 17 C6.66 17.33 7.32 17.66 8 18 C9.33745868 20.31471877 10.59229825 22.62459791 11.8125 25 C12.52654343 26.37020903 13.24138563 27.7400021 13.95703125 29.109375 C14.30459473 29.77646484 14.6521582 30.44355469 15.01025391 31.13085938 C16.64896277 34.22556955 18.41021271 37.24891368 20.1875 40.265625 C21 42 21 42 21 45 C21.66 45.33 22.32 45.66 23 46 C23.625 48.5625 23.625 48.5625 24 51 C24.66 51 25.32 51 26 51 C29 57.625 29 57.625 29 61 C29.66 61 30.32 61 31 61 C31.680625 62.3921875 31.680625 62.3921875 32.375 63.8125 C33.9421633 67.03921389 33.9421633 67.03921389 36 70 C36 70.66 36 71.32 36 72 C36.99 72.99 36.99 72.99 38 74 C38 74.99 38 75.98 38 77 C38.66 77 39.32 77 40 77 C40 78.32 40 79.64 40 81 C40.66 81 41.32 81 42 81 C43.33819498 83.6226232 44.6707151 86.24786599 46 88.875 C46.3815625 89.62136719 46.763125 90.36773438 47.15625 91.13671875 C47.5171875 91.85214844 47.878125 92.56757812 48.25 93.3046875 C48.58515625 93.96452637 48.9203125 94.62436523 49.265625 95.30419922 C50 97 50 97 50 99 C50.66 99 51.32 99 52 99 C52.25394531 99.67546875 52.50789062 100.3509375 52.76953125 101.046875 C53.11371094 101.93890625 53.45789063 102.8309375 53.8125 103.75 C54.14894531 104.63171875 54.48539063 105.5134375 54.83203125 106.421875 C55.97169736 108.93752594 57.32259044 110.82352644 59 113 C59.433125 114.3303125 59.433125 114.3303125 59.875 115.6875 C60.24625 116.450625 60.6175 117.21375 61 118 C63.54775306 118.89386164 63.54775306 118.89386164 66 119 C66.99 117.515 66.99 117.515 68 116 C68.66 116.33 69.32 116.66 70 117 C68.35 120.3 66.7 123.6 65 127 C62.46931696 124.46931696 61.21156643 122.85553899 59.57421875 119.80859375 C59.11466797 118.95974609 58.65511719 118.11089844 58.18164062 117.23632812 C57.68857422 116.31271484 57.19550781 115.38910156 56.6875 114.4375 C56.16478516 113.46876953 55.64207031 112.50003906 55.10351562 111.50195312 C53.39731103 108.33731626 51.69854971 105.16875103 50 102 C48.25598272 98.75872794 46.51044045 95.51828002 44.76489258 92.27783203 C43.58016569 90.07750789 42.39642218 87.87665399 41.21362305 85.67529297 C37.98889883 79.67619778 34.74026647 73.69143562 31.46069336 67.72216797 C25.86885967 57.54041363 20.47455442 47.26819784 15.17138672 36.93310547 C12.41961502 31.58889543 9.62932703 26.28225004 6.66796875 21.05078125 C6.15306885 20.1395752 5.63816895 19.22836914 5.10766602 18.28955078 C4.1495911 16.60814745 3.18072886 14.93282473 2.19897461 13.26513672 C-0.21595355 9.02995015 -1.70214874 6.032066 -1 1 C-0.67 0.67 -0.34 0.34 0 0 Z " fill="#2E1E7E" transform="translate(677,431)"/>
<path d="M0 0 C2.60045875 2.3024119 3.84739183 4.49896677 5.1875 7.6875 C5.53167969 8.49574219 5.87585938 9.30398438 6.23046875 10.13671875 C6.48441406 10.75160156 6.73835937 11.36648438 7 12 C5.68 12.33 4.36 12.66 3 13 C2.505 11.515 2.505 11.515 2 10 C1.34 9.67 0.68 9.34 0 9 C-0.42925781 9.85851562 -0.42925781 9.85851562 -0.8671875 10.734375 C-2.578125 14.15625 -4.2890625 17.578125 -6 21 C-6.66 21 -7.32 21 -8 21 C-8.103125 21.70125 -8.20625 22.4025 -8.3125 23.125 C-9.0924103 26.38644309 -10.50477099 29.00954197 -12 32 C-12 32.99 -12 33.98 -12 35 C-15.33333333 39.66666667 -15.33333333 39.66666667 -18 41 C-18.66401496 42.72817867 -19.25759857 44.48376056 -19.8125 46.25 C-21.49020247 51.08203444 -22.93643113 53.89885534 -27 57 C-27.66 57 -28.32 57 -29 57 C-29.103125 57.928125 -29.20625 58.85625 -29.3125 59.8125 C-30.04120877 63.19105883 -30.57983054 63.78151133 -33 66 C-34.25375595 69.51051666 -34.50441953 73.31854509 -35 77 C-36.875 77.625 -36.875 77.625 -39 78 C-39.66 77.34 -40.32 76.68 -41 76 C-29.55170162 54.70077354 -29.55170162 54.70077354 -24.9375 47.4375 C-20.94905355 41.12383892 -17.57176606 34.53277968 -14.15844727 27.89428711 C-10.93403962 21.66358853 -7.50576138 15.61844434 -3.72875977 9.70556641 C-1.71146841 6.48597503 -0.46624756 3.78649537 0 0 Z " fill="#045FAB" transform="translate(571,547)"/>
<path d="M0 0 C8.74245459 -0.41178228 18.32236295 1.69810527 25.84375 6.2109375 C25.84375 6.8709375 25.84375 7.5309375 25.84375 8.2109375 C24.23941191 7.73234509 22.63528584 7.25304192 21.03125 6.7734375 C20.13792969 6.50660156 19.24460937 6.23976563 18.32421875 5.96484375 C16.48901945 5.40705877 14.66341274 4.81749175 12.84375 4.2109375 C9.18794954 3.7394091 5.51923805 3.4808886 1.84375 3.2109375 C0.68875 3.1078125 -0.46625 3.0046875 -1.65625 2.8984375 C-6.84296979 3.36153748 -11.35580902 5.27093628 -16.15625 7.2109375 C-16.99929688 7.51515625 -17.84234375 7.819375 -18.7109375 8.1328125 C-21.39317337 9.31539572 -23.37735107 10.74837463 -25.65625 12.5859375 C-28.04378909 14.51098971 -30.39785635 16.38116015 -32.90625 18.1484375 C-35.56823639 20.58859169 -37.16165683 23.19018904 -38.9453125 26.30859375 C-40.15625 28.2109375 -40.15625 28.2109375 -41.66796875 29.6953125 C-43.39779558 31.45692092 -44.28643572 33.17443161 -45.34375 35.3984375 C-45.86001953 36.47158203 -45.86001953 36.47158203 -46.38671875 37.56640625 C-46.64066406 38.10910156 -46.89460938 38.65179687 -47.15625 39.2109375 C-47.81625 38.5509375 -48.47625 37.8909375 -49.15625 37.2109375 C-44.70938985 28.88916062 -39.81993706 21.89863785 -33.15625 15.2109375 C-32.61613281 14.64761719 -32.07601563 14.08429688 -31.51953125 13.50390625 C-23.08494177 5.45174148 -11.40365176 1.11557463 0 0 Z " fill="#6EA001" transform="translate(508.15625,488.7890625)"/>
<path d="M0 0 C2.86453858 3.41016497 4.34703566 6.90694544 6 11 C5.01 11.33 4.02 11.66 3 12 C3 10.68 3 9.36 3 8 C1.04105639 8.11306697 1.04105639 8.11306697 -1 9 C-2.15020525 11.24743756 -2.15020525 11.24743756 -3 14 C-4.59084735 17.32631719 -6.30200009 20.52279167 -8.1875 23.6875 C-10.24000571 26.80930581 -10.24000571 26.80930581 -10 30 C-10.66 30.33 -11.32 30.66 -12 31 C-13.06609497 33.71003133 -13.92291225 36.46328267 -14.8046875 39.23828125 C-16.10883465 42.25145784 -17.61081732 43.79239521 -20 46 C-21.05725253 47.97033426 -22.04435012 49.97843296 -23 52 C-23.98527395 53.92427814 -24.98654603 55.84041309 -26 57.75 C-26.495 58.69359375 -26.99 59.6371875 -27.5 60.609375 C-29 63 -29 63 -32 65 C-30.38290384 59.2069908 -27.54143952 54.2758724 -24.625 49.0625 C-20.18552198 41.02260191 -15.81849219 32.9511635 -11.5625 24.8125 C-11.0792627 23.89412354 -10.59602539 22.97574707 -10.09814453 22.02954102 C-4.46299104 11.27160906 -4.46299104 11.27160906 0 0 Z " fill="#0C5A5D" transform="translate(572,243)"/>
<path d="M0 0 C2.29227845 -0.04422936 4.58435063 -0.0744695 6.87689209 -0.10119629 C7.55443039 -0.11655426 8.23196869 -0.13191223 8.93003845 -0.1477356 C13.57268729 -0.17985813 17.30254642 0.40012836 21.60736084 2.04724121 C22.10236084 3.53224121 22.10236084 3.53224121 22.60736084 5.04724121 C21.39765625 4.72126953 20.18795166 4.39529785 18.94158936 4.05944824 C12.72445907 2.6855378 6.60010899 2.79740373 0.25970459 2.85192871 C-1.61895546 2.85617355 -1.61895546 2.85617355 -3.53556824 2.86050415 C-6.83502022 2.86974967 -10.13426988 2.8876596 -13.43365479 2.90991211 C-16.81253609 2.93052002 -20.19144724 2.93953753 -23.57037354 2.94958496 C-30.17787335 2.97155491 -36.78523973 3.00496444 -43.39263916 3.04724121 C-39.44094424 0.86677332 -35.9438112 0.70289064 -31.50592041 0.63317871 C-30.34300728 0.60412949 -30.34300728 0.60412949 -29.15660095 0.57449341 C-26.67289214 0.51488925 -24.18912656 0.46860318 -21.70513916 0.42224121 C-20.08467681 0.38400212 -18.4642335 0.34494707 -16.84381104 0.30505371 C-12.82189811 0.21023674 -8.8000865 0.13955747 -4.77746582 0.08276367 C-3.18491493 0.05904231 -1.59241719 0.03144131 0 0 Z " fill="#24251F" transform="translate(872.3926391601563,170.9527587890625)"/>
<path d="M0 0 C0.81976318 0.00273926 1.63952637 0.00547852 2.48413086 0.00830078 C19.7394363 0.3019363 19.7394363 0.3019363 24.75 5.3125 C22.7912957 5.17173685 20.83303907 5.0247324 18.875 4.875 C17.78445313 4.79378906 16.69390625 4.71257812 15.5703125 4.62890625 C12.75 4.3125 12.75 4.3125 10.75 3.3125 C8.87943209 3.0849985 7.00314042 2.90287189 5.125 2.75 C4.12210937 2.66621094 3.11921875 2.58242187 2.0859375 2.49609375 C1.31507813 2.43550781 0.54421875 2.37492188 -0.25 2.3125 C-0.58 2.9725 -0.91 3.6325 -1.25 4.3125 C-1.25 3.6525 -1.25 2.9925 -1.25 2.3125 C-15.51187695 4.32846456 -25.69805061 7.7099845 -37.25 16.3125 C-37.91 15.9825 -38.57 15.6525 -39.25 15.3125 C-28.47309829 4.79219119 -14.89432557 -0.10164673 0 0 Z " fill="#902D8A" transform="translate(507.25,202.6875)"/>
<path d="M0 0 C1 3 1 3 0.1796875 5.19921875 C-0.25085938 6.02035156 -0.68140625 6.84148437 -1.125 7.6875 C-1.59164062 8.57824219 -2.05828125 9.46898437 -2.5390625 10.38671875 C-4.16915525 13.30257985 -5.92735651 16.10740332 -7.73046875 18.91796875 C-12.27149151 26.02036735 -12.27149151 26.02036735 -14 34 C-15 35 -16 36 -17 37 C-18.44439344 39.27450461 -19.71528574 41.63284564 -21 44 C-21.4125 44.66 -21.825 45.32 -22.25 46 C-23.37363525 48.99636066 -23.12164284 51.83728615 -23 55 C-22.34 55 -21.68 55 -21 55 C-21.33 55.99 -21.66 56.98 -22 58 C-24.33618738 55.13286094 -26.00499363 52.58046368 -27 49 C-26.14819336 46.41064453 -26.14819336 46.41064453 -24.58984375 43.6328125 C-23.73156982 42.07216064 -23.73156982 42.07216064 -22.85595703 40.47998047 C-22.22286621 39.37283691 -21.58977539 38.26569336 -20.9375 37.125 C-20.30440918 35.98562988 -19.67131836 34.84625977 -19.01904297 33.67236328 C-17.36466821 30.6963796 -15.68861001 27.73323915 -14.00592041 24.77319336 C-12.38277407 21.91198061 -10.77650744 19.04131795 -9.16796875 16.171875 C-6.13276988 10.76931125 -3.07562732 5.37964175 0 0 Z " fill="#0A585E" transform="translate(539,308)"/>
<path d="M0 0 C0.99 0.33 1.98 0.66 3 1 C-3.46535304 14.23695964 -10.12086983 27.54072506 -18 40 C-18.66 39.67 -19.32 39.34 -20 39 C-17.29508197 29.44262295 -17.29508197 29.44262295 -15 26 C-14.34 26 -13.68 26 -13 26 C-13 25.34 -13 24.68 -13 24 C-12.34 23.67 -11.68 23.34 -11 23 C-10.26924352 20.6859378 -9.59861742 18.35171131 -9 16 C-8.34 16 -7.68 16 -7 16 C-6.67 13.36 -6.34 10.72 -6 8 C-4.68 8 -3.36 8 -2 8 C-1.855625 7.236875 -1.71125 6.47375 -1.5625 5.6875 C-1 3 -1 3 0 0 Z " fill="#87A20A" transform="translate(562,560)"/>
<path d="M0 0 C2.51700557 2.27650694 3.96232817 4.53350295 5.49609375 7.55078125 C6.20197632 8.92484131 6.20197632 8.92484131 6.92211914 10.32666016 C7.42219482 11.3119873 7.92227051 12.29731445 8.4375 13.3125 C12.71857582 21.63648331 17.07247122 29.9116681 21.5625 38.125 C22.06257568 39.04192627 22.56265137 39.95885254 23.07788086 40.90356445 C23.54846924 41.76296631 24.01905762 42.62236816 24.50390625 43.5078125 C24.93719238 44.29961914 25.37047852 45.09142578 25.81689453 45.90722656 C26.78384941 47.6176552 27.83230519 49.28178418 28.90234375 50.9296875 C29.26457031 51.61289062 29.62679687 52.29609375 30 53 C29.67 53.99 29.34 54.98 29 56 C27.7069894 53.75076296 26.41555023 51.50064815 25.125 49.25 C24.76019531 48.61578125 24.39539063 47.9815625 24.01953125 47.328125 C22.25866335 44.25461013 20.58088768 41.16816709 19 38 C16.903105 34.01290869 14.78260069 30.03847214 12.66015625 26.06494141 C11.97233254 24.77592085 11.28579975 23.48621059 10.60058594 22.19580078 C9.60391959 20.31901761 8.60317085 18.44446193 7.6015625 16.5703125 C7.00682129 15.45414551 6.41208008 14.33797852 5.79931641 13.18798828 C4.0345705 9.93785924 4.0345705 9.93785924 1.77490234 6.83935547 C0 4 0 4 0 0 Z " fill="#029273" transform="translate(697,478)"/>
<path d="M0 0 C0 3 0 3 -2.1875 5.5625 C-4.81277706 7.83774012 -6.72443519 8.97053677 -10 10 C-10 10.66 -10 11.32 -10 12 C-13.63 12.66 -17.26 13.32 -21 14 C-21.33 14.99 -21.66 15.98 -22 17 C-23.299375 16.979375 -24.59875 16.95875 -25.9375 16.9375 C-30.69382325 16.92995028 -35.28388953 17.40112883 -40 18 C-40 17.34 -40 16.68 -40 16 C-40.66 15.67 -41.32 15.34 -42 15 C-41.175 14.98582031 -40.35 14.97164062 -39.5 14.95703125 C-24.90422769 14.35430405 -10.44864488 10.86659067 0 0 Z " fill="#0F0E13" transform="translate(433,797)"/>
<path d="M0 0 C0.66 0.33 1.32 0.66 2 1 C1.20335937 1.59167969 0.40671875 2.18335938 -0.4140625 2.79296875 C-2.59867232 4.41894116 -4.77641986 6.05359228 -6.94921875 7.6953125 C-8.61070847 8.95047119 -10.27561663 10.20134867 -11.95703125 11.4296875 C-15.53969458 14.17103939 -17.63460463 17.26524667 -19.82421875 21.1328125 C-21 23 -21 23 -22.5078125 24.48046875 C-24.23959214 26.24398258 -25.12902867 27.96106031 -26.1875 30.1875 C-26.53167969 30.90292969 -26.87585938 31.61835937 -27.23046875 32.35546875 C-27.48441406 32.89816406 -27.73835938 33.44085937 -28 34 C-28.66 33.34 -29.32 32.68 -30 32 C-22.95441281 18.81501047 -13.6844774 6.70807715 0 0 Z " fill="#80AB03" transform="translate(489,494)"/>
<path d="M0 0 C8.81332675 6.30175695 13.07477612 17.80794254 17.5 27.4375 C18.02557495 28.55439209 18.02557495 28.55439209 18.56176758 29.69384766 C20.6109254 34.29580923 21.46739521 37.86514429 21 43 C20.67 43.66 20.34 44.32 20 45 C19.34 45 18.68 45 18 45 C18 44.01 18 43.02 18 42 C18.66 42 19.32 42 20 42 C18.32722915 35.60811139 16.14908007 29.93768991 12.98828125 24.12890625 C12 22 12 22 12 19 C11.34 19 10.68 19 10 19 C9.81824219 18.45730469 9.63648438 17.91460938 9.44921875 17.35546875 C9.19785156 16.64003906 8.94648437 15.92460938 8.6875 15.1875 C8.32205078 14.12595703 8.32205078 14.12595703 7.94921875 13.04296875 C6.92576816 10.84023353 5.75612339 9.6481265 4 8 C3.33333333 6.66666667 2.66666667 5.33333333 2 4 C1.34 3.67 0.68 3.34 0 3 C0 2.01 0 1.02 0 0 Z " fill="#71A402" transform="translate(550,509)"/>
<path d="M0 0 C3.57509616 3.29752659 6.10807258 7.33222224 8.8671875 11.30859375 C11.95780225 15.20865522 15.19878659 18.016357 19.9375 19.625 C20.56527344 19.84414063 21.19304687 20.06328125 21.83984375 20.2890625 C22.55269531 20.52367187 23.26554687 20.75828125 24 21 C24.91136719 21.35578125 25.82273437 21.7115625 26.76171875 22.078125 C30.52696532 23.15001666 34.00151269 23.22258786 37.875 23.125 C38.56335938 23.11597656 39.25171875 23.10695313 39.9609375 23.09765625 C41.64077838 23.07432513 43.32043746 23.03846326 45 23 C39.59563124 26.60291251 32.43658441 25.61436146 26.203125 24.5 C15.09790439 21.46503288 7.41381535 14.97984691 1.5625 5.125 C0 2 0 2 0 0 Z " fill="#F49F03" transform="translate(309,604)"/>
<path d="M0 0 C1.11029455 3.72741743 0.83932006 5.50529188 -1 9 C-1.99 9.66 -2.98 10.32 -4 11 C-4.309375 11.928125 -4.61875 12.85625 -4.9375 13.8125 C-6 17 -6 17 -7.9375 19.375 C-10.22537003 22.28683459 -11.08824182 24.80884638 -12.09375 28.328125 C-13 30 -13 30 -15.09375 30.734375 C-15.7228125 30.82203125 -16.351875 30.9096875 -17 31 C-11.8860465 20.31488523 -6.10492667 10.14621616 0 0 Z " fill="#DFD709" transform="translate(404,634)"/>
<path d="M0 0 C0.66 0.66 1.32 1.32 2 2 C1.50886719 2.97066406 1.01773437 3.94132813 0.51171875 4.94140625 C-1.36047423 9.30985653 -1.34419687 13.24864746 -1.1875 17.9375 C-1.17396484 18.71673828 -1.16042969 19.49597656 -1.14648438 20.29882812 C-1.11150224 22.19952404 -1.05770959 24.09985834 -1 26 C-1.99 26 -2.98 26 -4 26 C-6.08305834 19.03425291 -5.95629452 10.65166268 -3 4 C-2.34 4 -1.68 4 -1 4 C-0.67 2.68 -0.34 1.36 0 0 Z " fill="#E0CE0E" transform="translate(349,732)"/>
<path d="M0 0 C1.5 1.375 1.5 1.375 3 3 C3 3.66 3 4.32 3 5 C3.99 5 4.98 5 6 5 C6.12375 5.78375 6.2475 6.5675 6.375 7.375 C6.79117993 10.14057822 6.79117993 10.14057822 9 12 C11.18166968 14.18166968 13.33748983 16.36345058 15.4375 18.625 C17.977499 20.97914542 19.82317782 21.79795918 23 23 C23.66 23.99 24.32 24.98 25 26 C16.92631329 24.96564868 10.95386937 18.50219305 6.0625 12.375 C0 4.0962559 0 4.0962559 0 0 Z " fill="#019DD1" transform="translate(581,782)"/>
<path d="M0 0 C0.33 0.66 0.66 1.32 1 2 C-0.13989258 4.68969727 -0.13989258 4.68969727 -1.89453125 8.06640625 C-2.20194748 8.66049789 -2.50936371 9.25458954 -2.82609558 9.86668396 C-3.4789143 11.12366737 -4.13571389 12.37858999 -4.79614258 13.6315918 C-5.8075735 15.55314047 -6.80404478 17.48189965 -7.79882812 19.41210938 C-12.72494491 28.86247245 -12.72494491 28.86247245 -15 30 C-14.68950274 28.56206608 -14.3765224 27.1246682 -14.0625 25.6875 C-13.88847656 24.88699219 -13.71445312 24.08648438 -13.53515625 23.26171875 C-13 21 -13 21 -12 18 C-11.01 17.67 -10.02 17.34 -9 17 C-8.505 15.2675 -8.505 15.2675 -8 13.5 C-7.505 11.7675 -7.505 11.7675 -7 10 C-6.01 9.67 -5.02 9.34 -4 9 C-3.26919734 7.02253397 -2.60578253 5.01927511 -2 3 C-1.34 2.01 -0.68 1.02 0 0 Z " fill="#D9D00A" transform="translate(485,702)"/>
<path d="M0 0 C1.25082246 5.00328983 -0.26337663 7.25569143 -2.5625 11.5625 C-2.92730469 12.26761719 -3.29210937 12.97273438 -3.66796875 13.69921875 C-4.76425582 15.80746311 -5.87818711 17.90524279 -7 20 C-7.61746094 21.15371094 -8.23492188 22.30742187 -8.87109375 23.49609375 C-10.2322568 26.00624814 -11.60611643 28.50790514 -13 31 C-13.66 30.67 -14.32 30.34 -15 30 C-10.05 20.1 -5.1 10.2 0 0 Z " fill="#22241D" transform="translate(898,257)"/>
<path d="M0 0 C0.99 0.66 1.98 1.32 3 2 C2.01 3.485 2.01 3.485 1 5 C0.34 5 -0.32 5 -1 5 C-0.938125 6.175625 -0.938125 6.175625 -0.875 7.375 C-1 10 -1 10 -3 12 C-3 12.99 -3 13.98 -3 15 C-4.0234375 16.82421875 -4.0234375 16.82421875 -5.375 18.6875 C-5.81585937 19.31011719 -6.25671875 19.93273437 -6.7109375 20.57421875 C-7.34902344 21.27998047 -7.34902344 21.27998047 -8 22 C-8.66 22 -9.32 22 -10 22 C-9.42770367 16.80771145 -6.9017839 12.6896297 -4.4375 8.1875 C-4.01275391 7.39923828 -3.58800781 6.61097656 -3.15039062 5.79882812 C-2.10603446 3.8626622 -1.0557923 1.92994633 0 0 Z " fill="#056AB3" transform="translate(529,625)"/>
<path d="M0 0 C2.78664266 2.47100689 4.32490396 5.16270375 6.06640625 8.4375 C6.9181543 10.02691406 6.9181543 10.02691406 7.78710938 11.6484375 C8.37298828 12.75445313 8.95886719 13.86046875 9.5625 15 C10.72925659 17.18814678 11.8971734 19.37567541 13.06640625 21.5625 C13.58146729 22.53316406 14.09652832 23.50382813 14.62719727 24.50390625 C16.02622714 27.13150146 16.02622714 27.13150146 18 30 C17.67 30.99 17.34 31.98 17 33 C13.55995137 27.33751445 10.20725189 21.65353687 7.078125 15.8125 C6.00754467 13.84339003 6.00754467 13.84339003 4 12 C3.32060826 10.00428677 2.65438441 8.00405227 2 6 C1.34 5.01 0.68 4.02 0 3 C0 2.01 0 1.02 0 0 Z " fill="#0E0B18" transform="translate(293,578)"/>
<path d="M0 0 C0.33 0.66 0.66 1.32 1 2 C-0.07983398 4.24658203 -0.07983398 4.24658203 -1.74609375 7.0078125 C-2.33583984 7.99394531 -2.92558594 8.98007812 -3.53320312 9.99609375 C-4.47583008 11.54490234 -4.47583008 11.54490234 -5.4375 13.125 C-6.06205078 14.16527344 -6.68660156 15.20554687 -7.33007812 16.27734375 C-8.87961329 18.85595953 -10.43649945 21.42983616 -12 24 C-13.55932272 20.88135455 -12.65549131 18.33704665 -12 15 C-11.34 14.34 -10.68 13.68 -10 13 C-9.01 13 -8.02 13 -7 13 C-6.8453125 11.9171875 -6.8453125 11.9171875 -6.6875 10.8125 C-5.59216294 6.33157568 -3.40243123 3.07839016 0 0 Z " fill="#E2D40C" transform="translate(469,732)"/>
<path d="M0 0 C0.99 0.66 1.98 1.32 3 2 C-0.75925926 8.61111111 -0.75925926 8.61111111 -2.625 11.625 C-4.06342191 13.97066616 -4.06342191 13.97066616 -5 16.5625 C-6.03611974 19.08804187 -7.3701347 20.82684627 -9 23 C-9.71162443 24.64797236 -10.39031953 26.31165408 -11 28 C-11.66 27.67 -12.32 27.34 -13 27 C-10.97963499 21.46595671 -8.0716538 16.40730846 -5.27734375 11.23828125 C-3.30094147 7.55291066 -1.43783868 3.93842768 0 0 Z " fill="#22241C" transform="translate(912,230)"/>
<path d="M0 0 C2.60045875 2.3024119 3.84739183 4.49896677 5.1875 7.6875 C5.53167969 8.49574219 5.87585938 9.30398438 6.23046875 10.13671875 C6.48441406 10.75160156 6.73835937 11.36648438 7 12 C5.68 12.33 4.36 12.66 3 13 C2.67 12.01 2.34 11.02 2 10 C1.34 9.67 0.68 9.34 0 9 C-0.66 10.32 -1.32 11.64 -2 13 C-3.45047396 10.09905209 -2.45356803 8.44027404 -1.5625 5.375 C-1.27503906 4.37210938 -0.98757813 3.36921875 -0.69140625 2.3359375 C-0.46324219 1.56507813 -0.23507812 0.79421875 0 0 Z " fill="#0A5C93" transform="translate(571,547)"/>
<path d="M0 0 C0.66 0.99 1.32 1.98 2 3 C-0.64 7.95 -3.28 12.9 -6 18 C-6.99 18 -7.98 18 -9 18 C-7.87114558 15.13444648 -6.69345961 12.31334952 -5.4375 9.5 C-4.24344131 6.59272667 -3.4677675 4.0872655 -3 1 C-2.01 0.67 -1.02 0.34 0 0 Z " fill="#8FA40B" transform="translate(540,600)"/>
<path d="M0 0 C3.67862593 3.41510254 5.80873758 7.53727666 8.25 11.875 C8.72179687 12.67808594 9.19359375 13.48117187 9.6796875 14.30859375 C10.12054687 15.09105469 10.56140625 15.87351562 11.015625 16.6796875 C11.62325684 17.74292236 11.62325684 17.74292236 12.24316406 18.82763672 C13.19501556 21.55975757 12.76872416 23.25292391 12 26 C11.34 25.34 10.68 24.68 10 24 C10 22.68 10 21.36 10 20 C9.34 19.67 8.68 19.34 8 19 C7.29417494 17.11779985 6.59405991 15.23316593 5.9296875 13.3359375 C4.60024227 9.99556671 2.81358207 6.97343984 0.98828125 3.8828125 C0 2 0 2 0 0 Z " fill="#028969" transform="translate(728,536)"/>
<path d="M0 0 C0 3.90617433 -1.31784596 6.50629545 -3 10 C-3.99 10.495 -3.99 10.495 -5 11 C-5.67441131 12.6635479 -6.3400321 14.33066942 -7 16 C-7.95824253 17.36365283 -8.94721175 18.70794169 -10 20 C-10.66 19.67 -11.32 19.34 -12 19 C-10.38395881 16.01588868 -8.75569271 13.0386265 -7.125 10.0625 C-6.66480469 9.21236328 -6.20460938 8.36222656 -5.73046875 7.48632812 C-5.28574219 6.67744141 -4.84101562 5.86855469 -4.3828125 5.03515625 C-3.77010498 3.91185913 -3.77010498 3.91185913 -3.14501953 2.76586914 C-2 1 -2 1 0 0 Z " fill="#362B93" transform="translate(690,410)"/>
<path d="M0 0 C1 3 1 3 -0.4765625 6.2578125 C-1.18238881 7.55255425 -1.89917143 8.84136459 -2.625 10.125 C-2.99238281 10.79281494 -3.35976563 11.46062988 -3.73828125 12.14868164 C-4.81646878 14.1043152 -5.90724919 16.05247751 -7 18 C-7.81597656 19.47919922 -7.81597656 19.47919922 -8.6484375 20.98828125 C-9.75702795 22.99720094 -10.8733044 25.00119868 -12 27 C-13 24 -13 24 -12.02783203 21.56396484 C-11.52622559 20.62246582 -11.02461914 19.6809668 -10.5078125 18.7109375 C-9.96769531 17.68742187 -9.42757812 16.66390625 -8.87109375 15.609375 C-8.29488281 14.54203125 -7.71867188 13.4746875 -7.125 12.375 C-6.55652344 11.29992187 -5.98804688 10.22484375 -5.40234375 9.1171875 C-1.1868472 1.1868472 -1.1868472 1.1868472 0 0 Z " fill="#4C32AF" transform="translate(757,279)"/>
<path d="M0 0 C0.99 0.33 1.98 0.66 3 1 C2.11054687 2.04220703 2.11054687 2.04220703 1.203125 3.10546875 C-1.05115806 6.06721298 -2.63209023 8.96636844 -4.25 12.3125 C-4.77078125 13.38113281 -5.2915625 14.44976562 -5.828125 15.55078125 C-6.40820312 16.76314453 -6.40820312 16.76314453 -7 18 C-7.99 18 -8.98 18 -10 18 C-6.72591106 11.96476272 -3.43506486 5.94530457 0 0 Z " fill="#21231B" transform="translate(880,293)"/>
<path d="M0 0 C3.28465896 2.79196011 5.01321958 6.23196817 7 10 C7 10.66 7 11.32 7 12 C7.66 12 8.32 12 9 12 C9.69685498 13.6210103 10.38222861 15.24696066 11.0625 16.875 C11.44535156 17.77992188 11.82820312 18.68484375 12.22265625 19.6171875 C13 22 13 22 12 24 C10.36643581 21.12978722 8.7447327 18.25303743 7.125 15.375 C6.66480469 14.56675781 6.20460937 13.75851562 5.73046875 12.92578125 C3.35777192 8.69619124 1.32310762 4.69931328 0 0 Z " fill="#F48903" transform="translate(238,472)"/>
<path d="M0 0 C1.24712299 4.98849198 0.4105886 5.58058757 -2 10 C-2.90773605 11.95284461 -3.80283424 13.9115965 -4.6875 15.875 C-5.12449219 16.84179688 -5.56148437 17.80859375 -6.01171875 18.8046875 C-6.33785156 19.52914063 -6.66398438 20.25359375 -7 21 C-7.66 20.01 -8.32 19.02 -9 18 C-6.03 12.06 -3.06 6.12 0 0 Z " fill="#22231F" transform="translate(857,334)"/>
<path d="M0 0 C4.54328213 1.29999518 7.84454339 3.05296901 11.625 5.875 C12.54539062 6.55304688 13.46578125 7.23109375 14.4140625 7.9296875 C16.78526571 9.82808282 18.90402675 11.80562425 21 14 C20.67 14.66 20.34 15.32 20 16 C19.19949219 15.23816406 19.19949219 15.23816406 18.3828125 14.4609375 C13.54408456 9.99055563 8.73737053 6.4135473 2.96875 3.2265625 C1 2 1 2 0 0 Z " fill="#892C87" transform="translate(541,211)"/>
<path d="M0 0 C0.33 0.66 0.66 1.32 1 2 C-0.15356619 4.49194143 -1.360162 6.85297019 -2.6875 9.25 C-3.21633789 10.23419922 -3.21633789 10.23419922 -3.75585938 11.23828125 C-5.97154353 15.31319579 -8.37148838 19.17886798 -11 23 C-11.33 22.34 -11.66 21.68 -12 21 C-11.11962891 18.95288086 -11.11962891 18.95288086 -9.7265625 16.46484375 C-9.2315625 15.57345703 -8.7365625 14.68207031 -8.2265625 13.76367188 C-7.69804687 12.83103516 -7.16953125 11.89839844 -6.625 10.9375 C-6.10421875 10.00099609 -5.5834375 9.06449219 -5.046875 8.09960938 C-1.1770705 1.1770705 -1.1770705 1.1770705 0 0 Z " fill="#862781" transform="translate(446,252)"/>
<path d="M0 0 C1.37562854 1.28965176 2.70766393 2.62689293 4 4 C4 4.66 4 5.32 4 6 C4.66 6.33 5.32 6.66 6 7 C6.66796875 9.21484375 6.66796875 9.21484375 7.1875 11.9375 C7.36667969 12.83339844 7.54585937 13.72929687 7.73046875 14.65234375 C8 17 8 17 7 19 C6.34 19 5.68 19 5 19 C4.96132813 18.03900391 4.96132813 18.03900391 4.921875 17.05859375 C4.51767639 10.89456494 3.33953734 7.17089652 0 2 C0 1.34 0 0.68 0 0 Z " fill="#222418" transform="translate(916,188)"/>
<path d="M0 0 C0.66 0.99 1.32 1.98 2 3 C0.68 5.64 -0.64 8.28 -2 11 C-3.88343932 7.23312136 -4.22057835 5.97041037 -4 2 C-2.68 1.34 -1.36 0.68 0 0 Z " fill="#A1AE0F" transform="translate(524,630)"/>
<path d="M0 0 C0.99 0.33 1.98 0.66 3 1 C2.24163557 2.65161581 1.46787924 4.29617138 0.6875 5.9375 C0.04361328 7.31228516 0.04361328 7.31228516 -0.61328125 8.71484375 C-2 11 -2 11 -5 12 C-5.33 10.68 -5.66 9.36 -6 8 C-4.68 8 -3.36 8 -2 8 C-1.855625 7.236875 -1.71125 6.47375 -1.5625 5.6875 C-1 3 -1 3 0 0 Z " fill="#779B0D" transform="translate(562,560)"/>
<path d="M0 0 C0.66 0 1.32 0 2 0 C0.16508812 4.74018901 -1.91941459 9.36413251 -4 14 C-4.66 13.01 -5.32 12.02 -6 11 C-4.02 7.37 -2.04 3.74 0 0 Z " fill="#9FB006" transform="translate(446,553)"/>
<path d="M0 0 C0.99 0.33 1.98 0.66 3 1 C3 3.97 3 6.94 3 10 C2.01 10.495 2.01 10.495 1 11 C-1.08997373 7.60379269 -1.2632246 4.94836905 -1 1 C-0.67 0.67 -0.34 0.34 0 0 Z " fill="#31278B" transform="translate(677,431)"/>
<path d="M0 0 C0 3 0 3 -1.9375 5.4375 C-5.67413004 8.564068 -9.4932057 10.24244841 -14 12 C-14 11.34 -14 10.68 -14 10 C-11.953125 8.6328125 -11.953125 8.6328125 -9.25 7.125 C-5.61820489 5.09671677 -2.83248419 3.05749461 0 0 Z " fill="#0C0B16" transform="translate(433,797)"/>
<path d="M0 0 C1 3 1 3 0.14453125 5.05078125 C-0.29503906 5.79714844 -0.73460937 6.54351562 -1.1875 7.3125 C-1.64898437 8.10140625 -2.11046875 8.8903125 -2.5859375 9.703125 C-4.32192317 12.52290283 -6.11517594 15.27747635 -8 18 C-8.33 17.34 -8.66 16.68 -9 16 C-8.28735352 14.30419922 -8.28735352 14.30419922 -7.12890625 12.3046875 C-6.71962891 11.58925781 -6.31035156 10.87382812 -5.88867188 10.13671875 C-5.45103516 9.39035156 -5.01339844 8.64398438 -4.5625 7.875 C-4.12873047 7.12089844 -3.69496094 6.36679687 -3.24804688 5.58984375 C-2.17251034 3.72242866 -1.08715861 1.86067303 0 0 Z " fill="#0E160F" transform="translate(444,480)"/>
<path d="M0 0 C0.33 0.66 0.66 1.32 1 2 C-0.328125 4.53125 -0.328125 4.53125 -2.25 7.5 C-2.87390625 8.4796875 -3.4978125 9.459375 -4.140625 10.46875 C-6 13 -6 13 -9 15 C-8.690625 14.4225 -8.38125 13.845 -8.0625 13.25 C-7.07416636 11.15705816 -6.4831387 9.25464725 -6 7 C-5.34 7 -4.68 7 -4 7 C-4 6.01 -4 5.02 -4 4 C-2 1.8125 -2 1.8125 0 0 Z " fill="#019ED4" transform="translate(666,778)"/>
<path d="M0 0 C0.66 0 1.32 0 2 0 C1.38461538 6.52307692 1.38461538 6.52307692 -0.5625 8.9375 C-1.036875 9.288125 -1.51125 9.63875 -2 10 C-2.99 9.67 -3.98 9.34 -5 9 C-3.35 6.03 -1.7 3.06 0 0 Z " fill="#121314" transform="translate(446,775)"/>
<path d="M0 0 C0.99 1.0209375 0.99 1.0209375 2 2.0625 C5.49468234 5.56725347 9.25130779 8.77221788 13 12 C8.29261473 12 5.31789668 9.18174109 2 6 C0.5 2.625 0.5 2.625 0 0 Z " fill="#1B0A09" transform="translate(585,792)"/>
<path d="M0 0 C0.33 0.66 0.66 1.32 1 2 C1.66 2 2.32 2 3 2 C4.46939453 6.30322683 5.77443263 10.62297367 7 15 C4.47138427 12.73946101 3.16143472 10.60099936 1.8125 7.5 C1.46832031 6.7265625 1.12414062 5.953125 0.76953125 5.15625 C0 3 0 3 0 0 Z " fill="#EEE111" transform="translate(346,757)"/>
<path d="M0 0 C0.66 0.33 1.32 0.66 2 1 C0.35 4.3 -1.3 7.6 -3 11 C-5 9 -5 9 -5.125 6.375 C-5.08375 5.59125 -5.0425 4.8075 -5 4 C-4.01 3.67 -3.02 3.34 -2 3 C-1.34 2.01 -0.68 1.02 0 0 Z " fill="#2A2A83" transform="translate(745,547)"/>
<path d="M0 0 C0.66 0.33 1.32 0.66 2 1 C1.54917531 2.46067199 1.08906463 3.91848032 0.625 5.375 C0.36976563 6.18710937 0.11453125 6.99921875 -0.1484375 7.8359375 C-1 10 -1 10 -3 12 C-3.34833144 7.12335991 -2.41685712 4.22949995 0 0 Z " fill="#8EA706" transform="translate(454,536)"/>
<path d="M0 0 C0.99 0.33 1.98 0.66 3 1 C-5.44827586 8 -5.44827586 8 -10 8 C-8.71064081 6.85157077 -7.41843421 5.70633773 -6.125 4.5625 C-5.04605469 3.60537109 -5.04605469 3.60537109 -3.9453125 2.62890625 C-2 1 -2 1 0 0 Z " fill="#4E34B5" transform="translate(818,178)"/>
<path d="M0 0 C1 3 1 3 0.00390625 5.26171875 C-0.47175781 6.06222656 -0.94742187 6.86273437 -1.4375 7.6875 C-1.91058594 8.49574219 -2.38367188 9.30398438 -2.87109375 10.13671875 C-3.24363281 10.75160156 -3.61617188 11.36648438 -4 12 C-5.09566959 8.71299123 -5.45243698 6.98970589 -4 3.8125 C-3.67 3.214375 -3.34 2.61625 -3 2 C-2.01 2 -1.02 2 0 2 C0 1.34 0 0.68 0 0 Z " fill="#100F16" transform="translate(389,657)"/>
<path d="M0 0 C1.07349791 4.29399165 0.79682816 5.19495213 -1 9 C-2.32 9 -3.64 9 -5 9 C-3.35 6.03 -1.7 3.06 0 0 Z " fill="#CFC808" transform="translate(404,634)"/>
<path d="M0 0 C0.33 0.66 0.66 1.32 1 2 C0.22265625 3.9453125 0.22265625 3.9453125 -0.9375 6.125 C-1.31777344 6.84945312 -1.69804688 7.57390625 -2.08984375 8.3203125 C-2.39019531 8.87460937 -2.69054687 9.42890625 -3 10 C-3.99 10 -4.98 10 -6 10 C-2.62068966 1.31034483 -2.62068966 1.31034483 0 0 Z " fill="#9CAA0B" transform="translate(537,608)"/>
<path d="M0 0 C2.72426311 2.35277269 3.8141763 4.62496331 5 8 C3.68 8.33 2.36 8.66 1 9 C-1.125 2.25 -1.125 2.25 0 0 Z " fill="#0261A0" transform="translate(573,551)"/>
<path d="M0 0 C0.33 0.66 0.66 1.32 1 2 C0.00390625 3.9453125 0.00390625 3.9453125 -1.4375 6.125 C-1.91058594 6.84945313 -2.38367188 7.57390625 -2.87109375 8.3203125 C-3.24363281 8.87460937 -3.61617188 9.42890625 -4 10 C-5.89213369 7.61426621 -7.02391783 5.92824652 -8 3 C-5.525 3.99 -5.525 3.99 -3 5 C-2.01 3.35 -1.02 1.7 0 0 Z " fill="#0E1113" transform="translate(352,424)"/>
<path d="M0 0 C2.86453858 3.41016497 4.34703566 6.90694544 6 11 C5.01 11.33 4.02 11.66 3 12 C2.71125 11.030625 2.4225 10.06125 2.125 9.0625 C1.35785318 5.89335797 1.35785318 5.89335797 -1 5 C-0.67 3.35 -0.34 1.7 0 0 Z " fill="#175764" transform="translate(572,243)"/>
<path d="M0 0 C0 3.59058544 -0.89631503 4.74787471 -2.875 7.6875 C-3.40867187 8.49574219 -3.94234375 9.30398437 -4.4921875 10.13671875 C-4.98976563 10.75160156 -5.48734375 11.36648437 -6 12 C-6.66 12 -7.32 12 -8 12 C-6.49087042 7.01987239 -3.44338151 3.75740058 0 0 Z " fill="#8E2C89" transform="translate(467,219)"/>
<path d="M0 0 C0 3.19610552 -0.54671542 4.41717626 -2 7.1875 C-2.37125 7.90292969 -2.7425 8.61835937 -3.125 9.35546875 C-3.41375 9.89816406 -3.7025 10.44085937 -4 11 C-4.94484589 7.6100949 -5.16242542 5.39785892 -4 2 C-1.9375 0.6875 -1.9375 0.6875 0 0 Z " fill="#E37208" transform="translate(428,508)"/>
<path d="M0 0 C0 0.33 0 0.66 0 1 C-1.65 1 -3.3 1 -5 1 C-5.33 1.66 -5.66 2.32 -6 3 C-9.375 3.125 -9.375 3.125 -13 3 C-13.66 2.34 -14.32 1.68 -15 1 C-9.94997778 -0.03590199 -5.12583611 -0.10251672 0 0 Z " fill="#679503" transform="translate(515,489)"/>
<path d="M0 0 C0.66 0.33 1.32 0.66 2 1 C0.02 4.96 -1.96 8.92 -4 13 C-5.20545511 9.38363467 -4.7015245 8.7128829 -3.125 5.375 C-2.75632812 4.57835937 -2.38765625 3.78171875 -2.0078125 2.9609375 C-1 1 -1 1 0 0 Z " fill="#22231F" transform="translate(777,237)"/>
<path d="M0 0 C1.32 0.33 2.64 0.66 4 1 C-0.58921384 4.15654048 -4.29370646 6.57202798 -10 7 C-8 5 -8 5 -4.4375 3.5 C-0.93797326 2.41004413 -0.93797326 2.41004413 0 0 Z " fill="#01A5DA" transform="translate(644,802)"/>
<path d="M0 0 C0.66 0.33 1.32 0.66 2 1 C-0.97 5.95 -0.97 5.95 -4 11 C-4.66 10.67 -5.32 10.34 -6 10 C-6 9.34 -6 8.68 -6 8 C-5.34 7.67 -4.68 7.34 -4 7 C-4 6.01 -4 5.02 -4 4 C-2 1.8125 -2 1.8125 0 0 Z " fill="#0D0C15" transform="translate(351,723)"/>
<path d="M0 0 C0.33 0.66 0.66 1.32 1 2 C1.66 2.33 2.32 2.66 3 3 C1.71937515 4.7074998 0.38232443 6.37373596 -1 8 C-1.66 8 -2.32 8 -3 8 C-2.45276317 4.62537285 -1.9451 2.91765 0 0 Z " fill="#101015" transform="translate(380,600)"/>
<path d="M0 0 C2.97526665 2.55022856 4.50122302 5.40293526 6 9 C5.67 9.99 5.34 10.98 5 12 C4.896875 11.360625 4.79375 10.72125 4.6875 10.0625 C4.460625 9.381875 4.23375 8.70125 4 8 C3.01 7.67 2.02 7.34 1 7 C0.67 4.69 0.34 2.38 0 0 Z " fill="#0F0C18" transform="translate(121,254)"/>
<path d="M0 0 C0.99 0.33 1.98 0.66 3 1 C1.77472971 5.05281712 0.30119506 8.44360764 -2 12 C-3 10 -3 10 -2.125 7.125 C-1.75375 6.09375 -1.3825 5.0625 -1 4 C-0.65023242 2.67088318 -0.30903983 1.33917261 0 0 Z " fill="#E7DA0A" transform="translate(473,720)"/>
<path d="M0 0 C0.99 0 1.98 0 3 0 C3.33 1.65 3.66 3.3 4 5 C2.125 5.625 2.125 5.625 0 6 C-0.66 5.34 -1.32 4.68 -2 4 C-1.34 2.68 -0.68 1.36 0 0 Z " fill="#096CA5" transform="translate(532,619)"/>
<path d="M0 0 C0.33 0.66 0.66 1.32 1 2 C0.06421005 4.35981813 -0.93347808 6.69631264 -2 9 C-2.66 9 -3.32 9 -4 9 C-4.33 9.99 -4.66 10.98 -5 12 C-5.33 11.34 -5.66 10.68 -6 10 C-4.78515625 7.6171875 -4.78515625 7.6171875 -3.0625 4.875 C-2.21365234 3.50988281 -2.21365234 3.50988281 -1.34765625 2.1171875 C-0.90292969 1.41851562 -0.45820313 0.71984375 0 0 Z " fill="#8B2A84" transform="translate(458,231)"/>
<path d="M0 0 C0.66 0.33 1.32 0.66 2 1 C0.90931332 4.77545388 0.0916909 7.47043472 -3 10 C-3.33 9.34 -3.66 8.68 -4 8 C-3.22265625 6.0546875 -3.22265625 6.0546875 -2.0625 3.875 C-1.49208984 2.78832031 -1.49208984 2.78832031 -0.91015625 1.6796875 C-0.60980469 1.12539063 -0.30945313 0.57109375 0 0 Z " fill="#20211D" transform="translate(814,417)"/>
<path d="M0 0 C0.33 0.66 0.66 1.32 1 2 C0.07421875 4.12890625 0.07421875 4.12890625 -1.3125 6.5625 C-1.98732422 7.77099609 -1.98732422 7.77099609 -2.67578125 9.00390625 C-4 11 -4 11 -6 12 C-4.68139111 7.38486888 -2.78644563 3.90102388 0 0 Z " fill="#1B1D0F" transform="translate(762,518)"/>
<path d="M0 0 C3.375 0.25 3.375 0.25 7 1 C7.66 2.32 8.32 3.64 9 5 C4.545 4.01 4.545 4.01 0 3 C0 2.01 0 1.02 0 0 Z " fill="#262724" transform="translate(886,171)"/>
<path d="M0 0 C2.61885488 2.36944013 4.41866551 4.83733102 6 8 C5.67 8.99 5.34 9.98 5 11 C4.16151196 9.54462432 3.32936066 8.08559627 2.5 6.625 C1.80390625 5.40683594 1.80390625 5.40683594 1.09375 4.1640625 C0 2 0 2 0 0 Z " fill="#019ED5" transform="translate(575,771)"/>
<path d="M0 0 C0.33 0.66 0.66 1.32 1 2 C0.3125 4.0625 0.3125 4.0625 -1 6 C-3.125 6.75 -3.125 6.75 -5 7 C-2.25 1.125 -2.25 1.125 0 0 Z " fill="#D7CD0C" transform="translate(392,658)"/>
<path d="M0 0 C1.60031344 3.20062687 0.03173691 5.72271806 -1 9 C-1.66 8.34 -2.32 7.68 -3 7 C-2.75 3.9375 -2.75 3.9375 -2 1 C-1.34 0.67 -0.68 0.34 0 0 Z " fill="#A4AE0D" transform="translate(515,647)"/>
<path d="M0 0 C0.66 0.33 1.32 0.66 2 1 C1.43454163 4.95820859 0.19097652 7.6659053 -2 11 C-3 9 -3 9 -2.125 6.0625 C-1.75375 5.051875 -1.3825 4.04125 -1 3 C-0.67 2.01 -0.34 1.02 0 0 Z " fill="#F79001" transform="translate(386,582)"/>
<path d="M0 0 C0.66 0.33 1.32 0.66 2 1 C1.67 2.65 1.34 4.3 1 6 C-0.32 5.67 -1.64 5.34 -3 5 C-2.67 4.01 -2.34 3.02 -2 2 C-1.34 2 -0.68 2 0 2 C0 1.34 0 0.68 0 0 Z " fill="#7C9A0F" transform="translate(549,584)"/>
<path d="M0 0 C0.99 0.66 1.98 1.32 3 2 C2.67 2.99 2.34 3.98 2 5 C1.34 5 0.68 5 0 5 C0 5.99 0 6.98 0 8 C-0.66 8 -1.32 8 -2 8 C-1.34 5.36 -0.68 2.72 0 0 Z " fill="#242623" transform="translate(920,209)"/>
</svg>
